<svg width="3781" height="890" viewBox="0 0 3781 890" fill="none" xmlns="http://www.w3.org/2000/svg">
<path d="M2650.24 236.362H2680.71C2694.92 236.362 2705.34 237.363 2711.99 239.365C2719.55 241.709 2725.39 244.712 2729.49 248.374C2733.64 252.036 2736.89 255.82 2739.23 259.727C2744.02 267.686 2746.41 276.719 2746.41 286.826C2746.41 302.744 2740.7 315.635 2729.27 325.498C2721.17 332.578 2711.62 336.948 2700.63 338.608C2694.53 339.536 2685.98 340 2675 340H2650.24V236.362ZM2687.6 333.921C2688.38 333.97 2689.08 333.994 2689.72 333.994H2691.4C2704.64 333.994 2715.94 329.868 2725.32 321.616C2735.23 312.925 2740.18 301.377 2740.18 286.973C2740.18 277.891 2738.01 269.712 2733.67 262.437C2727.37 251.841 2717.41 245.42 2703.78 243.174C2699.34 242.441 2693.94 242.026 2687.6 241.929V333.921ZM2833.49 322.202C2835.4 322.202 2836.35 323.081 2836.35 324.839C2836.35 326.157 2835.5 327.72 2833.79 329.526C2826.07 337.437 2815.5 341.392 2802.07 341.392C2790.01 341.392 2779.86 337.754 2771.6 330.479C2763.06 322.91 2758.79 313.34 2758.79 301.768C2758.79 289.951 2762.64 280.234 2770.36 272.617C2778.51 264.512 2789.35 260.459 2802.88 260.459C2813.72 260.459 2822.83 263.755 2830.2 270.347C2838.16 277.427 2842.14 286.729 2842.14 298.252C2842.14 299.912 2842.09 301.67 2841.99 303.525H2793.65V334.946C2796.97 335.63 2800.71 335.972 2804.86 335.972C2813.65 335.972 2821.14 333.066 2827.34 327.256C2828.61 325.986 2829.51 324.985 2830.05 324.253C2831.17 322.886 2832.32 322.202 2833.49 322.202ZM2813.94 267.197C2810.76 266.27 2807.18 265.806 2803.17 265.806C2799.17 265.806 2795.99 266.074 2793.65 266.611V298.179H2813.94V267.197ZM2855.03 330.186C2855.03 329.453 2855.27 328.794 2855.76 328.208C2856.3 327.573 2856.98 327.256 2857.81 327.256C2858.64 327.256 2859.32 327.5 2859.86 327.988C2859.86 327.988 2860.47 328.55 2861.69 329.673C2866.77 334.116 2873.88 336.338 2883.01 336.338C2889.16 336.338 2893.11 335.068 2894.87 332.529C2895.36 331.846 2895.6 331.162 2895.6 330.479C2895.6 329.746 2895.46 329.062 2895.16 328.428C2894.92 327.744 2894.36 326.938 2893.48 326.011C2892.6 325.034 2891.36 323.887 2889.74 322.568L2883.3 317.368C2872.65 309.067 2865.35 302.329 2861.4 297.153C2857.79 292.417 2855.98 287.583 2855.98 282.651C2855.98 276.45 2858.84 271.25 2864.55 267.051C2870.46 262.656 2878.1 260.459 2887.47 260.459C2894.07 260.459 2899.27 261.216 2903.07 262.729C2906.88 264.243 2909.57 265.635 2911.13 266.904C2912.69 268.125 2913.47 269.248 2913.47 270.273C2913.47 272.373 2912.64 273.423 2910.98 273.423C2910.2 273.423 2909.47 273.154 2908.79 272.617C2908.15 272.031 2906.86 271.079 2904.91 269.761C2902.95 268.394 2900.36 267.319 2897.14 266.538C2893.92 265.757 2890.92 265.366 2888.13 265.366C2885.35 265.366 2883.37 265.806 2882.2 266.685C2881.08 267.563 2880.52 268.442 2880.52 269.321C2880.52 270.151 2880.69 270.957 2881.03 271.738C2881.37 272.471 2882 273.35 2882.93 274.375C2885.08 276.914 2888.52 279.917 2893.26 283.384C2898 286.851 2902 290.024 2905.27 292.905C2908.54 295.786 2911.11 298.447 2912.96 300.889C2916.33 305.283 2918.02 309.727 2918.02 314.219C2918.02 318.711 2917.19 322.568 2915.53 325.791C2913.87 328.965 2911.5 331.699 2908.42 333.994C2901.93 338.926 2893.26 341.392 2882.42 341.392C2873.73 341.392 2866.48 339.731 2860.67 336.411C2856.91 334.312 2855.03 332.236 2855.03 330.186ZM2951.12 248.96C2946.09 248.96 2942.16 247.837 2939.33 245.591C2936.5 243.345 2935.08 240.391 2935.08 236.729C2935.08 233.652 2936.64 231.016 2939.77 228.818C2943.09 226.475 2946.6 225.303 2950.32 225.303C2954.03 225.303 2956.88 225.669 2958.88 226.401C2960.94 227.134 2962.67 228.086 2964.08 229.258C2966.92 231.65 2968.33 234.434 2968.33 237.607C2968.33 240.781 2966.72 243.467 2963.5 245.664C2960.28 247.861 2956.15 248.96 2951.12 248.96ZM2935.74 261.777H2967.23V340H2935.74V261.777ZM3007.22 316.123C3002.88 317.441 3000.71 318.882 3000.71 320.444C3000.71 321.958 3001.98 323.008 3004.51 323.594C3009.45 324.766 3016.23 325.474 3024.88 325.718C3033.52 325.913 3040.01 326.572 3044.36 327.695C3048.75 328.77 3052.24 330.137 3054.83 331.797C3059.52 334.873 3061.86 338.95 3061.86 344.028C3061.86 350.376 3058.71 355.527 3052.42 359.482C3045.43 363.828 3035.59 366.001 3022.9 366.001C3009.76 366.001 2998.92 364.048 2990.38 360.142C2987.3 358.628 2985.76 356.919 2985.76 355.015C2985.76 354.185 2986.06 353.525 2986.64 353.037C2987.28 352.549 2987.94 352.305 2988.62 352.305C2989.45 352.305 2990.4 352.622 2991.48 353.257C2993.97 354.673 2996.26 355.845 2998.36 356.772C3000.51 357.749 3003.86 358.677 3008.4 359.556C3012.94 360.435 3017.31 360.874 3021.51 360.874C3025.75 360.874 3029.2 360.679 3031.83 360.288C3034.52 359.946 3036.74 359.531 3038.5 359.043C3041.97 358.018 3043.7 356.87 3043.7 355.601C3043.7 354.429 3043.36 353.574 3042.67 353.037C3041.99 352.5 3041.09 352.012 3039.96 351.572C3038.89 351.182 3037.38 350.815 3035.42 350.474C3031.42 349.79 3025.97 349.277 3019.09 348.936C3012.21 348.594 3006.76 347.91 3002.76 346.885C2998.75 345.908 2995.48 344.639 2992.94 343.076C2988.01 340.098 2985.54 336.069 2985.54 330.991C2985.54 323.667 2990.5 317.734 3000.41 313.193C2995.87 310.703 2992.26 307.432 2989.57 303.379C2986.89 299.277 2985.54 294.858 2985.54 290.122C2985.54 285.337 2986.42 281.211 2988.18 277.744C2989.99 274.229 2992.5 271.201 2995.73 268.662C3002.51 263.193 3011.28 260.459 3022.02 260.459C3026.8 260.459 3031.61 261.191 3036.45 262.656C3043.38 255.967 3049.8 252.622 3055.71 252.622C3058.2 252.622 3060.03 253.037 3061.2 253.867C3062.42 254.697 3063.04 255.747 3063.04 257.017C3063.04 258.286 3062.62 259.214 3061.79 259.8C3060.96 260.337 3060.18 260.605 3059.45 260.605C3058.13 260.605 3057 260.459 3056.08 260.166C3054.71 259.678 3053.32 259.434 3051.9 259.434C3049.27 259.434 3045.95 261.265 3041.94 264.927C3049.9 268.833 3055.1 274.448 3057.54 281.772C3058.32 284.214 3058.71 287.217 3058.71 290.781C3058.71 294.297 3057.69 297.812 3055.64 301.328C3053.59 304.844 3050.85 307.871 3047.43 310.41C3040.31 315.684 3031.93 318.32 3022.31 318.32C3017.23 318.418 3012.21 317.686 3007.22 316.123ZM3022.61 312.974C3030.52 312.876 3037.33 310.947 3043.04 307.188C3049.63 302.891 3052.93 297.08 3052.93 289.756C3052.93 282.432 3049.68 276.523 3043.19 272.031C3037.23 267.93 3030.37 265.806 3022.61 265.659V312.974ZM3132.91 269.761C3131.69 268.979 3130.37 268.589 3128.95 268.589C3127.54 268.589 3126.07 268.931 3124.56 269.614C3123.04 270.249 3121.46 271.152 3119.8 272.324C3116.33 274.814 3113.13 278.135 3110.2 282.285V340H3078.71V261.777H3110.2V274.302C3118.55 265.073 3128 260.459 3138.55 260.459C3155.78 260.459 3164.4 268.809 3164.4 285.508V340H3132.91V269.761ZM3256.39 322.202C3258.3 322.202 3259.25 323.081 3259.25 324.839C3259.25 326.157 3258.4 327.72 3256.69 329.526C3248.97 337.437 3238.4 341.392 3224.97 341.392C3212.91 341.392 3202.76 337.754 3194.5 330.479C3185.96 322.91 3181.69 313.34 3181.69 301.768C3181.69 289.951 3185.54 280.234 3193.26 272.617C3201.41 264.512 3212.25 260.459 3225.78 260.459C3236.62 260.459 3245.73 263.755 3253.1 270.347C3261.06 277.427 3265.04 286.729 3265.04 298.252C3265.04 299.912 3264.99 301.67 3264.89 303.525H3216.55V334.946C3219.87 335.63 3223.61 335.972 3227.76 335.972C3236.55 335.972 3244.04 333.066 3250.24 327.256C3251.51 325.986 3252.42 324.985 3252.95 324.253C3254.08 322.886 3255.22 322.202 3256.39 322.202ZM3236.84 267.197C3233.67 266.27 3230.08 265.806 3226.07 265.806C3222.07 265.806 3218.89 266.074 3216.55 266.611V298.179H3236.84V267.197ZM3283.64 261.777H3315.13V284.775C3318.5 276.426 3322.12 270.298 3325.97 266.392C3329.88 262.437 3333.79 260.459 3337.69 260.459C3339.89 260.459 3341.62 261.045 3342.89 262.217C3344.21 263.34 3344.87 264.609 3344.87 266.025C3344.87 267.441 3344.68 268.564 3344.29 269.395C3343.89 270.225 3343.38 270.933 3342.75 271.519C3341.43 272.739 3340.18 273.35 3339.01 273.35C3337.16 273.35 3335.79 273.154 3334.91 272.764C3333.4 272.08 3332.05 271.738 3330.88 271.738C3329.71 271.738 3328.22 272.69 3326.41 274.595C3324.61 276.45 3322.87 279.038 3321.21 282.358C3317.16 290.464 3315.13 299.253 3315.13 308.726V340H3283.64V261.777Z" fill="black"/>
<path d="M2646.37 450.125V507H2638.83V450.125H2646.37ZM2695.74 501.844C2697.46 501.844 2699.05 501.492 2700.51 500.789C2701.97 500.086 2703.16 499.122 2704.1 497.898C2705.04 496.648 2705.57 495.229 2705.7 493.641H2712.58C2712.45 496.141 2711.6 498.471 2710.04 500.633C2708.5 502.768 2706.48 504.5 2703.98 505.828C2701.48 507.13 2698.74 507.781 2695.74 507.781C2692.57 507.781 2689.79 507.221 2687.42 506.102C2685.08 504.982 2683.12 503.445 2681.56 501.492C2680.03 499.539 2678.87 497.299 2678.09 494.773C2677.33 492.221 2676.95 489.526 2676.95 486.688V485.047C2676.95 482.208 2677.33 479.526 2678.09 477C2678.87 474.448 2680.03 472.195 2681.56 470.242C2683.12 468.289 2685.08 466.753 2687.42 465.633C2689.79 464.513 2692.57 463.953 2695.74 463.953C2699.05 463.953 2701.94 464.63 2704.41 465.984C2706.89 467.312 2708.83 469.135 2710.23 471.453C2711.67 473.745 2712.45 476.349 2712.58 479.266H2705.7C2705.57 477.521 2705.08 475.945 2704.22 474.539C2703.39 473.133 2702.24 472.013 2700.78 471.18C2699.35 470.32 2697.67 469.891 2695.74 469.891C2693.53 469.891 2691.67 470.333 2690.16 471.219C2688.67 472.078 2687.49 473.25 2686.6 474.734C2685.74 476.193 2685.12 477.82 2684.73 479.617C2684.36 481.388 2684.18 483.198 2684.18 485.047V486.688C2684.18 488.536 2684.36 490.359 2684.73 492.156C2685.09 493.953 2685.7 495.581 2686.56 497.039C2687.45 498.497 2688.63 499.669 2690.12 500.555C2691.63 501.414 2693.5 501.844 2695.74 501.844ZM2727.93 471.375V507H2720.7V464.734H2727.73L2727.93 471.375ZM2741.13 464.5L2741.09 471.219C2740.49 471.089 2739.92 471.01 2739.38 470.984C2738.85 470.932 2738.26 470.906 2737.58 470.906C2735.91 470.906 2734.44 471.167 2733.16 471.688C2731.89 472.208 2730.81 472.938 2729.92 473.875C2729.04 474.812 2728.33 475.932 2727.81 477.234C2727.32 478.51 2726.99 479.917 2726.84 481.453L2724.8 482.625C2724.8 480.073 2725.05 477.677 2725.55 475.438C2726.07 473.198 2726.86 471.219 2727.93 469.5C2729 467.755 2730.35 466.401 2731.99 465.438C2733.66 464.448 2735.64 463.953 2737.93 463.953C2738.45 463.953 2739.05 464.018 2739.73 464.148C2740.4 464.253 2740.87 464.37 2741.13 464.5ZM2764.57 507.781C2761.63 507.781 2758.96 507.286 2756.56 506.297C2754.19 505.281 2752.15 503.862 2750.43 502.039C2748.74 500.216 2747.43 498.055 2746.52 495.555C2745.61 493.055 2745.16 490.32 2745.16 487.352V485.711C2745.16 482.273 2745.66 479.214 2746.68 476.531C2747.7 473.823 2749.08 471.531 2750.82 469.656C2752.57 467.781 2754.54 466.362 2756.76 465.398C2758.97 464.435 2761.26 463.953 2763.63 463.953C2766.65 463.953 2769.26 464.474 2771.45 465.516C2773.66 466.557 2775.47 468.016 2776.88 469.891C2778.28 471.74 2779.32 473.927 2780 476.453C2780.68 478.953 2781.02 481.688 2781.02 484.656V487.898H2749.45V482H2773.79V481.453C2773.68 479.578 2773.29 477.755 2772.62 475.984C2771.97 474.214 2770.92 472.755 2769.49 471.609C2768.06 470.464 2766.11 469.891 2763.63 469.891C2761.99 469.891 2760.48 470.242 2759.1 470.945C2757.72 471.622 2756.54 472.638 2755.55 473.992C2754.56 475.346 2753.79 477 2753.24 478.953C2752.7 480.906 2752.42 483.159 2752.42 485.711V487.352C2752.42 489.357 2752.7 491.245 2753.24 493.016C2753.82 494.76 2754.64 496.297 2755.7 497.625C2756.8 498.953 2758.11 499.995 2759.65 500.75C2761.21 501.505 2762.98 501.883 2764.96 501.883C2767.51 501.883 2769.67 501.362 2771.45 500.32C2773.22 499.279 2774.77 497.885 2776.09 496.141L2780.47 499.617C2779.56 500.997 2778.4 502.312 2776.99 503.562C2775.59 504.812 2773.85 505.828 2771.8 506.609C2769.77 507.391 2767.36 507.781 2764.57 507.781ZM2814.38 499.773V478.016C2814.38 476.349 2814.04 474.904 2813.36 473.68C2812.71 472.43 2811.72 471.466 2810.39 470.789C2809.06 470.112 2807.42 469.773 2805.47 469.773C2803.65 469.773 2802.04 470.086 2800.66 470.711C2799.31 471.336 2798.24 472.156 2797.46 473.172C2796.71 474.188 2796.33 475.281 2796.33 476.453H2789.1C2789.1 474.943 2789.49 473.445 2790.27 471.961C2791.05 470.477 2792.17 469.135 2793.63 467.938C2795.12 466.714 2796.89 465.75 2798.95 465.047C2801.03 464.318 2803.35 463.953 2805.9 463.953C2808.97 463.953 2811.68 464.474 2814.02 465.516C2816.39 466.557 2818.24 468.133 2819.57 470.242C2820.92 472.326 2821.6 474.943 2821.6 478.094V497.781C2821.6 499.188 2821.72 500.685 2821.95 502.273C2822.21 503.862 2822.59 505.229 2823.09 506.375V507H2815.55C2815.18 506.167 2814.9 505.06 2814.69 503.68C2814.48 502.273 2814.38 500.971 2814.38 499.773ZM2815.62 481.375L2815.7 486.453H2808.4C2806.34 486.453 2804.51 486.622 2802.89 486.961C2801.28 487.273 2799.92 487.755 2798.83 488.406C2797.73 489.057 2796.9 489.878 2796.33 490.867C2795.76 491.831 2795.47 492.964 2795.47 494.266C2795.47 495.594 2795.77 496.805 2796.37 497.898C2796.97 498.992 2797.86 499.865 2799.06 500.516C2800.29 501.141 2801.78 501.453 2803.55 501.453C2805.77 501.453 2807.72 500.984 2809.41 500.047C2811.11 499.109 2812.45 497.964 2813.44 496.609C2814.45 495.255 2815 493.94 2815.08 492.664L2818.16 496.141C2817.98 497.234 2817.49 498.445 2816.68 499.773C2815.87 501.102 2814.79 502.378 2813.44 503.602C2812.11 504.799 2810.52 505.802 2808.67 506.609C2806.85 507.391 2804.79 507.781 2802.5 507.781C2799.64 507.781 2797.12 507.221 2794.96 506.102C2792.83 504.982 2791.16 503.484 2789.96 501.609C2788.79 499.708 2788.2 497.586 2788.2 495.242C2788.2 492.977 2788.65 490.984 2789.53 489.266C2790.42 487.521 2791.69 486.076 2793.36 484.93C2795.03 483.758 2797.03 482.872 2799.38 482.273C2801.72 481.674 2804.34 481.375 2807.23 481.375H2815.62ZM2850.66 464.734V470.281H2827.81V464.734H2850.66ZM2835.55 454.461H2842.77V496.531C2842.77 497.964 2842.99 499.044 2843.44 499.773C2843.88 500.503 2844.45 500.984 2845.16 501.219C2845.86 501.453 2846.61 501.57 2847.42 501.57C2848.02 501.57 2848.65 501.518 2849.3 501.414C2849.97 501.284 2850.48 501.18 2850.82 501.102L2850.86 507C2850.29 507.182 2849.53 507.352 2848.59 507.508C2847.68 507.69 2846.58 507.781 2845.27 507.781C2843.5 507.781 2841.88 507.43 2840.39 506.727C2838.91 506.023 2837.72 504.852 2836.84 503.211C2835.98 501.544 2835.55 499.305 2835.55 496.492V454.461ZM2876.68 507.781C2873.74 507.781 2871.07 507.286 2868.67 506.297C2866.3 505.281 2864.26 503.862 2862.54 502.039C2860.85 500.216 2859.54 498.055 2858.63 495.555C2857.72 493.055 2857.27 490.32 2857.27 487.352V485.711C2857.27 482.273 2857.77 479.214 2858.79 476.531C2859.8 473.823 2861.18 471.531 2862.93 469.656C2864.67 467.781 2866.65 466.362 2868.87 465.398C2871.08 464.435 2873.37 463.953 2875.74 463.953C2878.76 463.953 2881.37 464.474 2883.55 465.516C2885.77 466.557 2887.58 468.016 2888.98 469.891C2890.39 471.74 2891.43 473.927 2892.11 476.453C2892.79 478.953 2893.12 481.688 2893.12 484.656V487.898H2861.56V482H2885.9V481.453C2885.79 479.578 2885.4 477.755 2884.73 475.984C2884.08 474.214 2883.03 472.755 2881.6 471.609C2880.17 470.464 2878.22 469.891 2875.74 469.891C2874.1 469.891 2872.59 470.242 2871.21 470.945C2869.83 471.622 2868.65 472.638 2867.66 473.992C2866.67 475.346 2865.9 477 2865.35 478.953C2864.8 480.906 2864.53 483.159 2864.53 485.711V487.352C2864.53 489.357 2864.8 491.245 2865.35 493.016C2865.92 494.76 2866.74 496.297 2867.81 497.625C2868.91 498.953 2870.22 499.995 2871.76 500.75C2873.32 501.505 2875.09 501.883 2877.07 501.883C2879.62 501.883 2881.78 501.362 2883.55 500.32C2885.33 499.279 2886.88 497.885 2888.2 496.141L2892.58 499.617C2891.67 500.997 2890.51 502.312 2889.1 503.562C2887.7 504.812 2885.96 505.828 2883.91 506.609C2881.88 507.391 2879.47 507.781 2876.68 507.781ZM2929.26 464.734V507H2921.99V464.734H2929.26ZM2921.45 453.523C2921.45 452.352 2921.8 451.362 2922.5 450.555C2923.23 449.747 2924.3 449.344 2925.7 449.344C2927.08 449.344 2928.14 449.747 2928.87 450.555C2929.62 451.362 2930 452.352 2930 453.523C2930 454.643 2929.62 455.607 2928.87 456.414C2928.14 457.195 2927.08 457.586 2925.7 457.586C2924.3 457.586 2923.23 457.195 2922.5 456.414C2921.8 455.607 2921.45 454.643 2921.45 453.523ZM2948.09 473.758V507H2940.86V464.734H2947.7L2948.09 473.758ZM2946.37 484.266L2943.36 484.148C2943.39 481.258 2943.82 478.589 2944.65 476.141C2945.48 473.667 2946.65 471.518 2948.16 469.695C2949.67 467.872 2951.47 466.466 2953.55 465.477C2955.66 464.461 2957.99 463.953 2960.55 463.953C2962.63 463.953 2964.51 464.24 2966.17 464.812C2967.84 465.359 2969.26 466.245 2970.43 467.469C2971.63 468.693 2972.54 470.281 2973.16 472.234C2973.79 474.161 2974.1 476.518 2974.1 479.305V507H2966.84V479.227C2966.84 477.013 2966.51 475.242 2965.86 473.914C2965.21 472.56 2964.26 471.583 2963.01 470.984C2961.76 470.359 2960.22 470.047 2958.4 470.047C2956.6 470.047 2954.96 470.424 2953.48 471.18C2952.02 471.935 2950.76 472.977 2949.69 474.305C2948.65 475.633 2947.83 477.156 2947.23 478.875C2946.65 480.568 2946.37 482.365 2946.37 484.266ZM3002.77 464.734V470.281H2979.92V464.734H3002.77ZM2987.66 454.461H2994.88V496.531C2994.88 497.964 2995.1 499.044 2995.55 499.773C2995.99 500.503 2996.56 500.984 2997.27 501.219C2997.97 501.453 2998.72 501.57 2999.53 501.57C3000.13 501.57 3000.76 501.518 3001.41 501.414C3002.08 501.284 3002.59 501.18 3002.93 501.102L3002.97 507C3002.4 507.182 3001.64 507.352 3000.7 507.508C2999.79 507.69 2998.68 507.781 2997.38 507.781C2995.61 507.781 2993.98 507.43 2992.5 506.727C2991.02 506.023 2989.83 504.852 2988.95 503.211C2988.09 501.544 2987.66 499.305 2987.66 496.492V454.461ZM3037.11 497.234V464.734H3044.38V507H3037.46L3037.11 497.234ZM3038.48 488.328L3041.48 488.25C3041.48 491.062 3041.18 493.667 3040.59 496.062C3040.01 498.432 3039.08 500.49 3037.77 502.234C3036.47 503.979 3034.77 505.346 3032.66 506.336C3030.55 507.299 3027.98 507.781 3024.96 507.781C3022.9 507.781 3021.02 507.482 3019.3 506.883C3017.6 506.284 3016.15 505.359 3014.92 504.109C3013.7 502.859 3012.75 501.232 3012.07 499.227C3011.42 497.221 3011.09 494.812 3011.09 492V464.734H3018.32V492.078C3018.32 493.979 3018.53 495.555 3018.95 496.805C3019.39 498.029 3019.97 499.005 3020.7 499.734C3021.46 500.438 3022.29 500.932 3023.2 501.219C3024.14 501.505 3025.1 501.648 3026.09 501.648C3029.17 501.648 3031.6 501.062 3033.4 499.891C3035.2 498.693 3036.48 497.091 3037.27 495.086C3038.07 493.055 3038.48 490.802 3038.48 488.328ZM3063.24 464.734V507H3055.98V464.734H3063.24ZM3055.43 453.523C3055.43 452.352 3055.78 451.362 3056.48 450.555C3057.21 449.747 3058.28 449.344 3059.69 449.344C3061.07 449.344 3062.12 449.747 3062.85 450.555C3063.61 451.362 3063.98 452.352 3063.98 453.523C3063.98 454.643 3063.61 455.607 3062.85 456.414C3062.12 457.195 3061.07 457.586 3059.69 457.586C3058.28 457.586 3057.21 457.195 3056.48 456.414C3055.78 455.607 3055.43 454.643 3055.43 453.523ZM3092.54 464.734V470.281H3069.69V464.734H3092.54ZM3077.42 454.461H3084.65V496.531C3084.65 497.964 3084.87 499.044 3085.31 499.773C3085.76 500.503 3086.33 500.984 3087.03 501.219C3087.73 501.453 3088.49 501.57 3089.3 501.57C3089.9 501.57 3090.52 501.518 3091.17 501.414C3091.85 501.284 3092.36 501.18 3092.7 501.102L3092.73 507C3092.16 507.182 3091.41 507.352 3090.47 507.508C3089.56 507.69 3088.45 507.781 3087.15 507.781C3085.38 507.781 3083.75 507.43 3082.27 506.727C3080.78 506.023 3079.6 504.852 3078.71 503.211C3077.85 501.544 3077.42 499.305 3077.42 496.492V454.461ZM3108.87 464.734V507H3101.6V464.734H3108.87ZM3101.05 453.523C3101.05 452.352 3101.41 451.362 3102.11 450.555C3102.84 449.747 3103.91 449.344 3105.31 449.344C3106.69 449.344 3107.75 449.747 3108.48 450.555C3109.23 451.362 3109.61 452.352 3109.61 453.523C3109.61 454.643 3109.23 455.607 3108.48 456.414C3107.75 457.195 3106.69 457.586 3105.31 457.586C3103.91 457.586 3102.84 457.195 3102.11 456.414C3101.41 455.607 3101.05 454.643 3101.05 453.523ZM3133.32 500.477L3144.88 464.734H3152.27L3137.07 507H3132.23L3133.32 500.477ZM3123.67 464.734L3135.59 500.672L3136.41 507H3131.56L3116.25 464.734H3123.67ZM3176.21 507.781C3173.27 507.781 3170.6 507.286 3168.2 506.297C3165.83 505.281 3163.79 503.862 3162.07 502.039C3160.38 500.216 3159.08 498.055 3158.16 495.555C3157.25 493.055 3156.8 490.32 3156.8 487.352V485.711C3156.8 482.273 3157.3 479.214 3158.32 476.531C3159.34 473.823 3160.72 471.531 3162.46 469.656C3164.21 467.781 3166.18 466.362 3168.4 465.398C3170.61 464.435 3172.9 463.953 3175.27 463.953C3178.29 463.953 3180.9 464.474 3183.09 465.516C3185.3 466.557 3187.11 468.016 3188.52 469.891C3189.92 471.74 3190.96 473.927 3191.64 476.453C3192.32 478.953 3192.66 481.688 3192.66 484.656V487.898H3161.09V482H3185.43V481.453C3185.33 479.578 3184.93 477.755 3184.26 475.984C3183.61 474.214 3182.57 472.755 3181.13 471.609C3179.7 470.464 3177.75 469.891 3175.27 469.891C3173.63 469.891 3172.12 470.242 3170.74 470.945C3169.36 471.622 3168.18 472.638 3167.19 473.992C3166.2 475.346 3165.43 477 3164.88 478.953C3164.34 480.906 3164.06 483.159 3164.06 485.711V487.352C3164.06 489.357 3164.34 491.245 3164.88 493.016C3165.46 494.76 3166.28 496.297 3167.34 497.625C3168.44 498.953 3169.75 499.995 3171.29 500.75C3172.85 501.505 3174.62 501.883 3176.6 501.883C3179.15 501.883 3181.32 501.362 3183.09 500.32C3184.86 499.279 3186.41 497.885 3187.73 496.141L3192.11 499.617C3191.2 500.997 3190.04 502.312 3188.63 503.562C3187.23 504.812 3185.49 505.828 3183.44 506.609C3181.41 507.391 3179 507.781 3176.21 507.781ZM3245.86 499.773V478.016C3245.86 476.349 3245.52 474.904 3244.84 473.68C3244.19 472.43 3243.2 471.466 3241.88 470.789C3240.55 470.112 3238.91 469.773 3236.95 469.773C3235.13 469.773 3233.53 470.086 3232.15 470.711C3230.79 471.336 3229.73 472.156 3228.95 473.172C3228.19 474.188 3227.81 475.281 3227.81 476.453H3220.59C3220.59 474.943 3220.98 473.445 3221.76 471.961C3222.54 470.477 3223.66 469.135 3225.12 467.938C3226.6 466.714 3228.37 465.75 3230.43 465.047C3232.51 464.318 3234.83 463.953 3237.38 463.953C3240.46 463.953 3243.16 464.474 3245.51 465.516C3247.88 466.557 3249.73 468.133 3251.05 470.242C3252.41 472.326 3253.09 474.943 3253.09 478.094V497.781C3253.09 499.188 3253.2 500.685 3253.44 502.273C3253.7 503.862 3254.08 505.229 3254.57 506.375V507H3247.03C3246.67 506.167 3246.38 505.06 3246.17 503.68C3245.96 502.273 3245.86 500.971 3245.86 499.773ZM3247.11 481.375L3247.19 486.453H3239.88C3237.83 486.453 3235.99 486.622 3234.38 486.961C3232.76 487.273 3231.41 487.755 3230.31 488.406C3229.22 489.057 3228.39 489.878 3227.81 490.867C3227.24 491.831 3226.95 492.964 3226.95 494.266C3226.95 495.594 3227.25 496.805 3227.85 497.898C3228.45 498.992 3229.35 499.865 3230.55 500.516C3231.77 501.141 3233.27 501.453 3235.04 501.453C3237.25 501.453 3239.21 500.984 3240.9 500.047C3242.59 499.109 3243.93 497.964 3244.92 496.609C3245.94 495.255 3246.48 493.94 3246.56 492.664L3249.65 496.141C3249.47 497.234 3248.97 498.445 3248.16 499.773C3247.36 501.102 3246.28 502.378 3244.92 503.602C3243.59 504.799 3242.01 505.802 3240.16 506.609C3238.33 507.391 3236.28 507.781 3233.98 507.781C3231.12 507.781 3228.61 507.221 3226.45 506.102C3224.31 504.982 3222.64 503.484 3221.45 501.609C3220.27 499.708 3219.69 497.586 3219.69 495.242C3219.69 492.977 3220.13 490.984 3221.02 489.266C3221.9 487.521 3223.18 486.076 3224.84 484.93C3226.51 483.758 3228.52 482.872 3230.86 482.273C3233.2 481.674 3235.82 481.375 3238.71 481.375H3247.11ZM3271.68 473.758V507H3264.45V464.734H3271.29L3271.68 473.758ZM3269.96 484.266L3266.95 484.148C3266.98 481.258 3267.41 478.589 3268.24 476.141C3269.08 473.667 3270.25 471.518 3271.76 469.695C3273.27 467.872 3275.07 466.466 3277.15 465.477C3279.26 464.461 3281.59 463.953 3284.14 463.953C3286.22 463.953 3288.1 464.24 3289.77 464.812C3291.43 465.359 3292.85 466.245 3294.02 467.469C3295.22 468.693 3296.13 470.281 3296.76 472.234C3297.38 474.161 3297.7 476.518 3297.7 479.305V507H3290.43V479.227C3290.43 477.013 3290.1 475.242 3289.45 473.914C3288.8 472.56 3287.85 471.583 3286.6 470.984C3285.35 470.359 3283.82 470.047 3281.99 470.047C3280.2 470.047 3278.55 470.424 3277.07 471.18C3275.61 471.935 3274.35 472.977 3273.28 474.305C3272.24 475.633 3271.42 477.156 3270.82 478.875C3270.25 480.568 3269.96 482.365 3269.96 484.266ZM3335.31 498.797V447H3342.58V507H3335.94L3335.31 498.797ZM3306.88 486.336V485.516C3306.88 482.286 3307.27 479.357 3308.05 476.727C3308.85 474.07 3309.99 471.792 3311.45 469.891C3312.93 467.99 3314.69 466.531 3316.72 465.516C3318.78 464.474 3321.07 463.953 3323.59 463.953C3326.25 463.953 3328.57 464.422 3330.55 465.359C3332.55 466.271 3334.24 467.612 3335.62 469.383C3337.03 471.128 3338.14 473.237 3338.95 475.711C3339.75 478.185 3340.31 480.984 3340.62 484.109V487.703C3340.34 490.802 3339.78 493.589 3338.95 496.062C3338.14 498.536 3337.03 500.646 3335.62 502.391C3334.24 504.135 3332.55 505.477 3330.55 506.414C3328.54 507.326 3326.2 507.781 3323.52 507.781C3321.04 507.781 3318.78 507.247 3316.72 506.18C3314.69 505.112 3312.93 503.615 3311.45 501.688C3309.99 499.76 3308.85 497.495 3308.05 494.891C3307.27 492.26 3306.88 489.409 3306.88 486.336ZM3314.14 485.516V486.336C3314.14 488.445 3314.35 490.424 3314.77 492.273C3315.21 494.122 3315.89 495.75 3316.8 497.156C3317.71 498.562 3318.87 499.669 3320.27 500.477C3321.68 501.258 3323.36 501.648 3325.31 501.648C3327.71 501.648 3329.67 501.141 3331.21 500.125C3332.77 499.109 3334.02 497.768 3334.96 496.102C3335.9 494.435 3336.63 492.625 3337.15 490.672V481.258C3336.84 479.826 3336.38 478.445 3335.78 477.117C3335.21 475.763 3334.45 474.565 3333.52 473.523C3332.6 472.456 3331.47 471.609 3330.12 470.984C3328.79 470.359 3327.21 470.047 3325.39 470.047C3323.41 470.047 3321.71 470.464 3320.27 471.297C3318.87 472.104 3317.71 473.224 3316.8 474.656C3315.89 476.062 3315.21 477.703 3314.77 479.578C3314.35 481.427 3314.14 483.406 3314.14 485.516ZM2534.8 601.781C2531.86 601.781 2529.19 601.286 2526.8 600.297C2524.43 599.281 2522.38 597.862 2520.66 596.039C2518.97 594.216 2517.67 592.055 2516.76 589.555C2515.85 587.055 2515.39 584.32 2515.39 581.352V579.711C2515.39 576.273 2515.9 573.214 2516.91 570.531C2517.93 567.823 2519.31 565.531 2521.05 563.656C2522.8 561.781 2524.78 560.362 2526.99 559.398C2529.21 558.435 2531.5 557.953 2533.87 557.953C2536.89 557.953 2539.49 558.474 2541.68 559.516C2543.89 560.557 2545.7 562.016 2547.11 563.891C2548.52 565.74 2549.56 567.927 2550.23 570.453C2550.91 572.953 2551.25 575.688 2551.25 578.656V581.898H2519.69V576H2544.02V575.453C2543.92 573.578 2543.53 571.755 2542.85 569.984C2542.2 568.214 2541.16 566.755 2539.73 565.609C2538.29 564.464 2536.34 563.891 2533.87 563.891C2532.23 563.891 2530.72 564.242 2529.34 564.945C2527.96 565.622 2526.77 566.638 2525.78 567.992C2524.79 569.346 2524.02 571 2523.48 572.953C2522.93 574.906 2522.66 577.159 2522.66 579.711V581.352C2522.66 583.357 2522.93 585.245 2523.48 587.016C2524.05 588.76 2524.87 590.297 2525.94 591.625C2527.03 592.953 2528.35 593.995 2529.88 594.75C2531.45 595.505 2533.22 595.883 2535.2 595.883C2537.75 595.883 2539.91 595.362 2541.68 594.32C2543.45 593.279 2545 591.885 2546.33 590.141L2550.7 593.617C2549.79 594.997 2548.63 596.312 2547.23 597.562C2545.82 598.812 2544.09 599.828 2542.03 600.609C2540 601.391 2537.59 601.781 2534.8 601.781ZM2566.91 567.758V601H2559.69V558.734H2566.52L2566.91 567.758ZM2565.2 578.266L2562.19 578.148C2562.21 575.258 2562.64 572.589 2563.48 570.141C2564.31 567.667 2565.48 565.518 2566.99 563.695C2568.5 561.872 2570.3 560.466 2572.38 559.477C2574.49 558.461 2576.82 557.953 2579.38 557.953C2581.46 557.953 2583.33 558.24 2585 558.812C2586.67 559.359 2588.09 560.245 2589.26 561.469C2590.46 562.693 2591.37 564.281 2591.99 566.234C2592.62 568.161 2592.93 570.518 2592.93 573.305V601H2585.66V573.227C2585.66 571.013 2585.34 569.242 2584.69 567.914C2584.04 566.56 2583.09 565.583 2581.84 564.984C2580.59 564.359 2579.05 564.047 2577.23 564.047C2575.43 564.047 2573.79 564.424 2572.3 565.18C2570.85 565.935 2569.58 566.977 2568.52 568.305C2567.47 569.633 2566.65 571.156 2566.05 572.875C2565.48 574.568 2565.2 576.365 2565.2 578.266ZM2631.29 558.734H2637.85V600.102C2637.85 603.826 2637.1 607.003 2635.59 609.633C2634.08 612.263 2631.97 614.255 2629.26 615.609C2626.58 616.99 2623.48 617.68 2619.96 617.68C2618.5 617.68 2616.78 617.445 2614.8 616.977C2612.85 616.534 2610.92 615.766 2609.02 614.672C2607.15 613.604 2605.57 612.159 2604.3 610.336L2608.09 606.039C2609.86 608.174 2611.71 609.659 2613.63 610.492C2615.59 611.326 2617.51 611.742 2619.41 611.742C2621.71 611.742 2623.68 611.312 2625.35 610.453C2627.02 609.594 2628.31 608.318 2629.22 606.625C2630.16 604.958 2630.62 602.901 2630.62 600.453V568.031L2631.29 558.734ZM2602.19 580.336V579.516C2602.19 576.286 2602.57 573.357 2603.32 570.727C2604.1 568.07 2605.21 565.792 2606.64 563.891C2608.1 561.99 2609.86 560.531 2611.91 559.516C2613.97 558.474 2616.29 557.953 2618.87 557.953C2621.52 557.953 2623.84 558.422 2625.82 559.359C2627.83 560.271 2629.52 561.612 2630.9 563.383C2632.3 565.128 2633.41 567.237 2634.22 569.711C2635.03 572.185 2635.59 574.984 2635.9 578.109V581.703C2635.61 584.802 2635.05 587.589 2634.22 590.062C2633.41 592.536 2632.3 594.646 2630.9 596.391C2629.52 598.135 2627.83 599.477 2625.82 600.414C2623.82 601.326 2621.47 601.781 2618.79 601.781C2616.26 601.781 2613.97 601.247 2611.91 600.18C2609.88 599.112 2608.14 597.615 2606.68 595.688C2605.22 593.76 2604.1 591.495 2603.32 588.891C2602.57 586.26 2602.19 583.409 2602.19 580.336ZM2609.41 579.516V580.336C2609.41 582.445 2609.62 584.424 2610.04 586.273C2610.48 588.122 2611.15 589.75 2612.03 591.156C2612.94 592.562 2614.1 593.669 2615.51 594.477C2616.91 595.258 2618.59 595.648 2620.55 595.648C2622.94 595.648 2624.92 595.141 2626.48 594.125C2628.05 593.109 2629.28 591.768 2630.2 590.102C2631.13 588.435 2631.86 586.625 2632.38 584.672V575.258C2632.1 573.826 2631.65 572.445 2631.05 571.117C2630.48 569.763 2629.73 568.565 2628.79 567.523C2627.88 566.456 2626.74 565.609 2625.39 564.984C2624.04 564.359 2622.45 564.047 2620.62 564.047C2618.65 564.047 2616.94 564.464 2615.51 565.297C2614.1 566.104 2612.94 567.224 2612.03 568.656C2611.15 570.062 2610.48 571.703 2610.04 573.578C2609.62 575.427 2609.41 577.406 2609.41 579.516ZM2673.75 593.773V572.016C2673.75 570.349 2673.41 568.904 2672.73 567.68C2672.08 566.43 2671.09 565.466 2669.77 564.789C2668.44 564.112 2666.8 563.773 2664.84 563.773C2663.02 563.773 2661.42 564.086 2660.04 564.711C2658.68 565.336 2657.62 566.156 2656.84 567.172C2656.08 568.188 2655.7 569.281 2655.7 570.453H2648.48C2648.48 568.943 2648.87 567.445 2649.65 565.961C2650.43 564.477 2651.55 563.135 2653.01 561.938C2654.49 560.714 2656.26 559.75 2658.32 559.047C2660.4 558.318 2662.72 557.953 2665.27 557.953C2668.35 557.953 2671.05 558.474 2673.4 559.516C2675.77 560.557 2677.62 562.133 2678.95 564.242C2680.3 566.326 2680.98 568.943 2680.98 572.094V591.781C2680.98 593.188 2681.09 594.685 2681.33 596.273C2681.59 597.862 2681.97 599.229 2682.46 600.375V601H2674.92C2674.56 600.167 2674.27 599.06 2674.06 597.68C2673.85 596.273 2673.75 594.971 2673.75 593.773ZM2675 575.375L2675.08 580.453H2667.77C2665.72 580.453 2663.88 580.622 2662.27 580.961C2660.65 581.273 2659.3 581.755 2658.2 582.406C2657.11 583.057 2656.28 583.878 2655.7 584.867C2655.13 585.831 2654.84 586.964 2654.84 588.266C2654.84 589.594 2655.14 590.805 2655.74 591.898C2656.34 592.992 2657.24 593.865 2658.44 594.516C2659.66 595.141 2661.16 595.453 2662.93 595.453C2665.14 595.453 2667.1 594.984 2668.79 594.047C2670.48 593.109 2671.82 591.964 2672.81 590.609C2673.83 589.255 2674.38 587.94 2674.45 586.664L2677.54 590.141C2677.36 591.234 2676.86 592.445 2676.05 593.773C2675.25 595.102 2674.17 596.378 2672.81 597.602C2671.48 598.799 2669.9 599.802 2668.05 600.609C2666.22 601.391 2664.17 601.781 2661.88 601.781C2659.01 601.781 2656.5 601.221 2654.34 600.102C2652.2 598.982 2650.53 597.484 2649.34 595.609C2648.16 593.708 2647.58 591.586 2647.58 589.242C2647.58 586.977 2648.02 584.984 2648.91 583.266C2649.79 581.521 2651.07 580.076 2652.73 578.93C2654.4 577.758 2656.41 576.872 2658.75 576.273C2661.09 575.674 2663.71 575.375 2666.6 575.375H2675ZM2719.73 558.734H2726.29V600.102C2726.29 603.826 2725.53 607.003 2724.02 609.633C2722.51 612.263 2720.4 614.255 2717.7 615.609C2715.01 616.99 2711.91 617.68 2708.4 617.68C2706.94 617.68 2705.22 617.445 2703.24 616.977C2701.29 616.534 2699.36 615.766 2697.46 614.672C2695.59 613.604 2694.01 612.159 2692.73 610.336L2696.52 606.039C2698.29 608.174 2700.14 609.659 2702.07 610.492C2704.02 611.326 2705.95 611.742 2707.85 611.742C2710.14 611.742 2712.12 611.312 2713.79 610.453C2715.46 609.594 2716.74 608.318 2717.66 606.625C2718.59 604.958 2719.06 602.901 2719.06 600.453V568.031L2719.73 558.734ZM2690.62 580.336V579.516C2690.62 576.286 2691 573.357 2691.76 570.727C2692.54 568.07 2693.65 565.792 2695.08 563.891C2696.54 561.99 2698.29 560.531 2700.35 559.516C2702.41 558.474 2704.73 557.953 2707.3 557.953C2709.96 557.953 2712.28 558.422 2714.26 559.359C2716.26 560.271 2717.96 561.612 2719.34 563.383C2720.74 565.128 2721.85 567.237 2722.66 569.711C2723.46 572.185 2724.02 574.984 2724.34 578.109V581.703C2724.05 584.802 2723.49 587.589 2722.66 590.062C2721.85 592.536 2720.74 594.646 2719.34 596.391C2717.96 598.135 2716.26 599.477 2714.26 600.414C2712.25 601.326 2709.91 601.781 2707.23 601.781C2704.7 601.781 2702.41 601.247 2700.35 600.18C2698.32 599.112 2696.58 597.615 2695.12 595.688C2693.66 593.76 2692.54 591.495 2691.76 588.891C2691 586.26 2690.62 583.409 2690.62 580.336ZM2697.85 579.516V580.336C2697.85 582.445 2698.06 584.424 2698.48 586.273C2698.92 588.122 2699.58 589.75 2700.47 591.156C2701.38 592.562 2702.54 593.669 2703.95 594.477C2705.35 595.258 2707.03 595.648 2708.98 595.648C2711.38 595.648 2713.36 595.141 2714.92 594.125C2716.48 593.109 2717.72 591.768 2718.63 590.102C2719.57 588.435 2720.3 586.625 2720.82 584.672V575.258C2720.53 573.826 2720.09 572.445 2719.49 571.117C2718.92 569.763 2718.16 568.565 2717.23 567.523C2716.32 566.456 2715.18 565.609 2713.83 564.984C2712.47 564.359 2710.89 564.047 2709.06 564.047C2707.08 564.047 2705.38 564.464 2703.95 565.297C2702.54 566.104 2701.38 567.224 2700.47 568.656C2699.58 570.062 2698.92 571.703 2698.48 573.578C2698.06 575.427 2697.85 577.406 2697.85 579.516ZM2745.12 558.734V601H2737.85V558.734H2745.12ZM2737.3 547.523C2737.3 546.352 2737.66 545.362 2738.36 544.555C2739.09 543.747 2740.16 543.344 2741.56 543.344C2742.94 543.344 2744 543.747 2744.73 544.555C2745.48 545.362 2745.86 546.352 2745.86 547.523C2745.86 548.643 2745.48 549.607 2744.73 550.414C2744 551.195 2742.94 551.586 2741.56 551.586C2740.16 551.586 2739.09 551.195 2738.36 550.414C2737.66 549.607 2737.3 548.643 2737.3 547.523ZM2763.95 567.758V601H2756.72V558.734H2763.55L2763.95 567.758ZM2762.23 578.266L2759.22 578.148C2759.24 575.258 2759.67 572.589 2760.51 570.141C2761.34 567.667 2762.51 565.518 2764.02 563.695C2765.53 561.872 2767.33 560.466 2769.41 559.477C2771.52 558.461 2773.85 557.953 2776.41 557.953C2778.49 557.953 2780.36 558.24 2782.03 558.812C2783.7 559.359 2785.12 560.245 2786.29 561.469C2787.49 562.693 2788.4 564.281 2789.02 566.234C2789.65 568.161 2789.96 570.518 2789.96 573.305V601H2782.7V573.227C2782.7 571.013 2782.37 569.242 2781.72 567.914C2781.07 566.56 2780.12 565.583 2778.87 564.984C2777.62 564.359 2776.08 564.047 2774.26 564.047C2772.46 564.047 2770.82 564.424 2769.34 565.18C2767.88 565.935 2766.61 566.977 2765.55 568.305C2764.51 569.633 2763.68 571.156 2763.09 572.875C2762.51 574.568 2762.23 576.365 2762.23 578.266ZM2828.32 558.734H2834.88V600.102C2834.88 603.826 2834.13 607.003 2832.62 609.633C2831.11 612.263 2829 614.255 2826.29 615.609C2823.61 616.99 2820.51 617.68 2816.99 617.68C2815.53 617.68 2813.82 617.445 2811.84 616.977C2809.88 616.534 2807.96 615.766 2806.05 614.672C2804.18 613.604 2802.6 612.159 2801.33 610.336L2805.12 606.039C2806.89 608.174 2808.74 609.659 2810.66 610.492C2812.62 611.326 2814.54 611.742 2816.45 611.742C2818.74 611.742 2820.72 611.312 2822.38 610.453C2824.05 609.594 2825.34 608.318 2826.25 606.625C2827.19 604.958 2827.66 602.901 2827.66 600.453V568.031L2828.32 558.734ZM2799.22 580.336V579.516C2799.22 576.286 2799.6 573.357 2800.35 570.727C2801.13 568.07 2802.24 565.792 2803.67 563.891C2805.13 561.99 2806.89 560.531 2808.95 559.516C2811 558.474 2813.32 557.953 2815.9 557.953C2818.55 557.953 2820.87 558.422 2822.85 559.359C2824.86 560.271 2826.55 561.612 2827.93 563.383C2829.34 565.128 2830.44 567.237 2831.25 569.711C2832.06 572.185 2832.62 574.984 2832.93 578.109V581.703C2832.64 584.802 2832.08 587.589 2831.25 590.062C2830.44 592.536 2829.34 594.646 2827.93 596.391C2826.55 598.135 2824.86 599.477 2822.85 600.414C2820.85 601.326 2818.5 601.781 2815.82 601.781C2813.29 601.781 2811 601.247 2808.95 600.18C2806.91 599.112 2805.17 597.615 2803.71 595.688C2802.25 593.76 2801.13 591.495 2800.35 588.891C2799.6 586.26 2799.22 583.409 2799.22 580.336ZM2806.45 579.516V580.336C2806.45 582.445 2806.65 584.424 2807.07 586.273C2807.51 588.122 2808.18 589.75 2809.06 591.156C2809.97 592.562 2811.13 593.669 2812.54 594.477C2813.95 595.258 2815.62 595.648 2817.58 595.648C2819.97 595.648 2821.95 595.141 2823.52 594.125C2825.08 593.109 2826.32 591.768 2827.23 590.102C2828.16 588.435 2828.89 586.625 2829.41 584.672V575.258C2829.13 573.826 2828.68 572.445 2828.09 571.117C2827.51 569.763 2826.76 568.565 2825.82 567.523C2824.91 566.456 2823.78 565.609 2822.42 564.984C2821.07 564.359 2819.48 564.047 2817.66 564.047C2815.68 564.047 2813.97 564.464 2812.54 565.297C2811.13 566.104 2809.97 567.224 2809.06 568.656C2808.18 570.062 2807.51 571.703 2807.07 573.578C2806.65 575.427 2806.45 577.406 2806.45 579.516ZM2892.34 592.797V541H2899.61V601H2892.97L2892.34 592.797ZM2863.91 580.336V579.516C2863.91 576.286 2864.3 573.357 2865.08 570.727C2865.89 568.07 2867.02 565.792 2868.48 563.891C2869.96 561.99 2871.72 560.531 2873.75 559.516C2875.81 558.474 2878.1 557.953 2880.62 557.953C2883.28 557.953 2885.6 558.422 2887.58 559.359C2889.58 560.271 2891.28 561.612 2892.66 563.383C2894.06 565.128 2895.17 567.237 2895.98 569.711C2896.78 572.185 2897.34 574.984 2897.66 578.109V581.703C2897.37 584.802 2896.81 587.589 2895.98 590.062C2895.17 592.536 2894.06 594.646 2892.66 596.391C2891.28 598.135 2889.58 599.477 2887.58 600.414C2885.57 601.326 2883.23 601.781 2880.55 601.781C2878.07 601.781 2875.81 601.247 2873.75 600.18C2871.72 599.112 2869.96 597.615 2868.48 595.688C2867.02 593.76 2865.89 591.495 2865.08 588.891C2864.3 586.26 2863.91 583.409 2863.91 580.336ZM2871.17 579.516V580.336C2871.17 582.445 2871.38 584.424 2871.8 586.273C2872.24 588.122 2872.92 589.75 2873.83 591.156C2874.74 592.562 2875.9 593.669 2877.3 594.477C2878.71 595.258 2880.39 595.648 2882.34 595.648C2884.74 595.648 2886.71 595.141 2888.24 594.125C2889.8 593.109 2891.05 591.768 2891.99 590.102C2892.93 588.435 2893.66 586.625 2894.18 584.672V575.258C2893.87 573.826 2893.41 572.445 2892.81 571.117C2892.24 569.763 2891.48 568.565 2890.55 567.523C2889.64 566.456 2888.5 565.609 2887.15 564.984C2885.82 564.359 2884.24 564.047 2882.42 564.047C2880.44 564.047 2878.74 564.464 2877.3 565.297C2875.9 566.104 2874.74 567.224 2873.83 568.656C2872.92 570.062 2872.24 571.703 2871.8 573.578C2871.38 575.427 2871.17 577.406 2871.17 579.516ZM2928.4 601.781C2925.46 601.781 2922.79 601.286 2920.39 600.297C2918.02 599.281 2915.98 597.862 2914.26 596.039C2912.57 594.216 2911.26 592.055 2910.35 589.555C2909.44 587.055 2908.98 584.32 2908.98 581.352V579.711C2908.98 576.273 2909.49 573.214 2910.51 570.531C2911.52 567.823 2912.9 565.531 2914.65 563.656C2916.39 561.781 2918.37 560.362 2920.59 559.398C2922.8 558.435 2925.09 557.953 2927.46 557.953C2930.48 557.953 2933.09 558.474 2935.27 559.516C2937.49 560.557 2939.3 562.016 2940.7 563.891C2942.11 565.74 2943.15 567.927 2943.83 570.453C2944.51 572.953 2944.84 575.688 2944.84 578.656V581.898H2913.28V576H2937.62V575.453C2937.51 573.578 2937.12 571.755 2936.45 569.984C2935.79 568.214 2934.75 566.755 2933.32 565.609C2931.89 564.464 2929.93 563.891 2927.46 563.891C2925.82 563.891 2924.31 564.242 2922.93 564.945C2921.55 565.622 2920.36 566.638 2919.38 567.992C2918.39 569.346 2917.62 571 2917.07 572.953C2916.52 574.906 2916.25 577.159 2916.25 579.711V581.352C2916.25 583.357 2916.52 585.245 2917.07 587.016C2917.64 588.76 2918.46 590.297 2919.53 591.625C2920.62 592.953 2921.94 593.995 2923.48 594.75C2925.04 595.505 2926.81 595.883 2928.79 595.883C2931.34 595.883 2933.5 595.362 2935.27 594.32C2937.04 593.279 2938.59 591.885 2939.92 590.141L2944.3 593.617C2943.39 594.997 2942.23 596.312 2940.82 597.562C2939.41 598.812 2937.68 599.828 2935.62 600.609C2933.59 601.391 2931.18 601.781 2928.4 601.781ZM2977.89 589.789C2977.89 588.747 2977.66 587.784 2977.19 586.898C2976.74 585.987 2975.82 585.167 2974.41 584.438C2973.03 583.682 2970.95 583.031 2968.16 582.484C2965.82 581.99 2963.7 581.404 2961.8 580.727C2959.92 580.049 2958.32 579.229 2956.99 578.266C2955.69 577.302 2954.69 576.169 2953.98 574.867C2953.28 573.565 2952.93 572.042 2952.93 570.297C2952.93 568.63 2953.29 567.055 2954.02 565.57C2954.78 564.086 2955.83 562.771 2957.19 561.625C2958.57 560.479 2960.22 559.581 2962.15 558.93C2964.08 558.279 2966.22 557.953 2968.59 557.953C2971.98 557.953 2974.87 558.552 2977.27 559.75C2979.66 560.948 2981.5 562.549 2982.77 564.555C2984.05 566.534 2984.69 568.734 2984.69 571.156H2977.46C2977.46 569.984 2977.11 568.852 2976.41 567.758C2975.73 566.638 2974.73 565.714 2973.4 564.984C2972.1 564.255 2970.49 563.891 2968.59 563.891C2966.59 563.891 2964.96 564.203 2963.71 564.828C2962.49 565.427 2961.59 566.195 2961.02 567.133C2960.47 568.07 2960.2 569.06 2960.2 570.102C2960.2 570.883 2960.33 571.586 2960.59 572.211C2960.87 572.81 2961.37 573.37 2962.07 573.891C2962.77 574.385 2963.76 574.854 2965.04 575.297C2966.32 575.74 2967.94 576.182 2969.92 576.625C2973.39 577.406 2976.24 578.344 2978.48 579.438C2980.72 580.531 2982.38 581.872 2983.48 583.461C2984.57 585.049 2985.12 586.977 2985.12 589.242C2985.12 591.091 2984.73 592.784 2983.95 594.32C2983.19 595.857 2982.08 597.185 2980.62 598.305C2979.19 599.398 2977.47 600.258 2975.47 600.883C2973.49 601.482 2971.26 601.781 2968.79 601.781C2965.07 601.781 2961.91 601.117 2959.34 599.789C2956.76 598.461 2954.8 596.742 2953.48 594.633C2952.15 592.523 2951.48 590.297 2951.48 587.953H2958.75C2958.85 589.932 2959.43 591.508 2960.47 592.68C2961.51 593.826 2962.79 594.646 2964.3 595.141C2965.81 595.609 2967.3 595.844 2968.79 595.844C2970.77 595.844 2972.42 595.583 2973.75 595.062C2975.1 594.542 2976.13 593.826 2976.84 592.914C2977.54 592.003 2977.89 590.961 2977.89 589.789ZM3002.46 558.734V601H2995.2V558.734H3002.46ZM2994.65 547.523C2994.65 546.352 2995 545.362 2995.7 544.555C2996.43 543.747 2997.5 543.344 2998.91 543.344C3000.29 543.344 3001.34 543.747 3002.07 544.555C3002.83 545.362 3003.2 546.352 3003.2 547.523C3003.2 548.643 3002.83 549.607 3002.07 550.414C3001.34 551.195 3000.29 551.586 2998.91 551.586C2997.5 551.586 2996.43 551.195 2995.7 550.414C2995 549.607 2994.65 548.643 2994.65 547.523ZM3041.45 558.734H3048.01V600.102C3048.01 603.826 3047.25 607.003 3045.74 609.633C3044.23 612.263 3042.12 614.255 3039.41 615.609C3036.73 616.99 3033.63 617.68 3030.12 617.68C3028.66 617.68 3026.94 617.445 3024.96 616.977C3023.01 616.534 3021.08 615.766 3019.18 614.672C3017.3 613.604 3015.73 612.159 3014.45 610.336L3018.24 606.039C3020.01 608.174 3021.86 609.659 3023.79 610.492C3025.74 611.326 3027.67 611.742 3029.57 611.742C3031.86 611.742 3033.84 611.312 3035.51 610.453C3037.17 609.594 3038.46 608.318 3039.38 606.625C3040.31 604.958 3040.78 602.901 3040.78 600.453V568.031L3041.45 558.734ZM3012.34 580.336V579.516C3012.34 576.286 3012.72 573.357 3013.48 570.727C3014.26 568.07 3015.36 565.792 3016.8 563.891C3018.26 561.99 3020.01 560.531 3022.07 559.516C3024.13 558.474 3026.45 557.953 3029.02 557.953C3031.68 557.953 3034 558.422 3035.98 559.359C3037.98 560.271 3039.67 561.612 3041.05 563.383C3042.46 565.128 3043.57 567.237 3044.38 569.711C3045.18 572.185 3045.74 574.984 3046.05 578.109V581.703C3045.77 584.802 3045.21 587.589 3044.38 590.062C3043.57 592.536 3042.46 594.646 3041.05 596.391C3039.67 598.135 3037.98 599.477 3035.98 600.414C3033.97 601.326 3031.63 601.781 3028.95 601.781C3026.42 601.781 3024.13 601.247 3022.07 600.18C3020.04 599.112 3018.29 597.615 3016.84 595.688C3015.38 593.76 3014.26 591.495 3013.48 588.891C3012.72 586.26 3012.34 583.409 3012.34 580.336ZM3019.57 579.516V580.336C3019.57 582.445 3019.78 584.424 3020.2 586.273C3020.64 588.122 3021.3 589.75 3022.19 591.156C3023.1 592.562 3024.26 593.669 3025.66 594.477C3027.07 595.258 3028.75 595.648 3030.7 595.648C3033.1 595.648 3035.08 595.141 3036.64 594.125C3038.2 593.109 3039.44 591.768 3040.35 590.102C3041.29 588.435 3042.02 586.625 3042.54 584.672V575.258C3042.25 573.826 3041.81 572.445 3041.21 571.117C3040.64 569.763 3039.88 568.565 3038.95 567.523C3038.03 566.456 3036.9 565.609 3035.55 564.984C3034.19 564.359 3032.6 564.047 3030.78 564.047C3028.8 564.047 3027.1 564.464 3025.66 565.297C3024.26 566.104 3023.1 567.224 3022.19 568.656C3021.3 570.062 3020.64 571.703 3020.2 573.578C3019.78 575.427 3019.57 577.406 3019.57 579.516ZM3066.21 567.758V601H3058.98V558.734H3065.82L3066.21 567.758ZM3064.49 578.266L3061.48 578.148C3061.51 575.258 3061.94 572.589 3062.77 570.141C3063.61 567.667 3064.78 565.518 3066.29 563.695C3067.8 561.872 3069.6 560.466 3071.68 559.477C3073.79 558.461 3076.12 557.953 3078.67 557.953C3080.76 557.953 3082.63 558.24 3084.3 558.812C3085.96 559.359 3087.38 560.245 3088.55 561.469C3089.75 562.693 3090.66 564.281 3091.29 566.234C3091.91 568.161 3092.23 570.518 3092.23 573.305V601H3084.96V573.227C3084.96 571.013 3084.64 569.242 3083.98 567.914C3083.33 566.56 3082.38 565.583 3081.13 564.984C3079.88 564.359 3078.35 564.047 3076.52 564.047C3074.73 564.047 3073.09 564.424 3071.6 565.18C3070.14 565.935 3068.88 566.977 3067.81 568.305C3066.77 569.633 3065.95 571.156 3065.35 572.875C3064.78 574.568 3064.49 576.365 3064.49 578.266ZM3127.81 589.789C3127.81 588.747 3127.58 587.784 3127.11 586.898C3126.67 585.987 3125.74 585.167 3124.34 584.438C3122.96 583.682 3120.87 583.031 3118.09 582.484C3115.74 581.99 3113.62 581.404 3111.72 580.727C3109.84 580.049 3108.24 579.229 3106.91 578.266C3105.61 577.302 3104.61 576.169 3103.91 574.867C3103.2 573.565 3102.85 572.042 3102.85 570.297C3102.85 568.63 3103.22 567.055 3103.95 565.57C3104.7 564.086 3105.76 562.771 3107.11 561.625C3108.49 560.479 3110.14 559.581 3112.07 558.93C3114 558.279 3116.15 557.953 3118.52 557.953C3121.9 557.953 3124.79 558.552 3127.19 559.75C3129.58 560.948 3131.42 562.549 3132.7 564.555C3133.97 566.534 3134.61 568.734 3134.61 571.156H3127.38C3127.38 569.984 3127.03 568.852 3126.33 567.758C3125.65 566.638 3124.65 565.714 3123.32 564.984C3122.02 564.255 3120.42 563.891 3118.52 563.891C3116.51 563.891 3114.88 564.203 3113.63 564.828C3112.41 565.427 3111.51 566.195 3110.94 567.133C3110.39 568.07 3110.12 569.06 3110.12 570.102C3110.12 570.883 3110.25 571.586 3110.51 572.211C3110.79 572.81 3111.29 573.37 3111.99 573.891C3112.7 574.385 3113.68 574.854 3114.96 575.297C3116.24 575.74 3117.86 576.182 3119.84 576.625C3123.31 577.406 3126.16 578.344 3128.4 579.438C3130.64 580.531 3132.3 581.872 3133.4 583.461C3134.49 585.049 3135.04 586.977 3135.04 589.242C3135.04 591.091 3134.65 592.784 3133.87 594.32C3133.11 595.857 3132.01 597.185 3130.55 598.305C3129.11 599.398 3127.4 600.258 3125.39 600.883C3123.41 601.482 3121.18 601.781 3118.71 601.781C3114.99 601.781 3111.84 601.117 3109.26 599.789C3106.68 598.461 3104.73 596.742 3103.4 594.633C3102.07 592.523 3101.41 590.297 3101.41 587.953H3108.67C3108.78 589.932 3109.35 591.508 3110.39 592.68C3111.43 593.826 3112.71 594.646 3114.22 595.141C3115.73 595.609 3117.23 595.844 3118.71 595.844C3120.69 595.844 3122.34 595.583 3123.67 595.062C3125.03 594.542 3126.05 593.826 3126.76 592.914C3127.46 592.003 3127.81 590.961 3127.81 589.789ZM3175.16 601H3167.93V554.281C3167.93 551.234 3168.48 548.669 3169.57 546.586C3170.69 544.477 3172.29 542.888 3174.38 541.82C3176.46 540.727 3178.93 540.18 3181.8 540.18C3182.63 540.18 3183.46 540.232 3184.3 540.336C3185.16 540.44 3185.99 540.596 3186.8 540.805L3186.41 546.703C3185.86 546.573 3185.23 546.482 3184.53 546.43C3183.85 546.378 3183.18 546.352 3182.5 546.352C3180.96 546.352 3179.64 546.664 3178.52 547.289C3177.42 547.888 3176.59 548.773 3176.02 549.945C3175.44 551.117 3175.16 552.562 3175.16 554.281V601ZM3184.14 558.734V564.281H3161.25V558.734H3184.14ZM3190.27 580.336V579.438C3190.27 576.391 3190.72 573.565 3191.6 570.961C3192.49 568.331 3193.76 566.052 3195.43 564.125C3197.1 562.172 3199.11 560.661 3201.48 559.594C3203.85 558.5 3206.51 557.953 3209.45 557.953C3212.42 557.953 3215.09 558.5 3217.46 559.594C3219.86 560.661 3221.89 562.172 3223.55 564.125C3225.25 566.052 3226.54 568.331 3227.42 570.961C3228.31 573.565 3228.75 576.391 3228.75 579.438V580.336C3228.75 583.383 3228.31 586.208 3227.42 588.812C3226.54 591.417 3225.25 593.695 3223.55 595.648C3221.89 597.576 3219.87 599.086 3217.5 600.18C3215.16 601.247 3212.5 601.781 3209.53 601.781C3206.56 601.781 3203.89 601.247 3201.52 600.18C3199.15 599.086 3197.12 597.576 3195.43 595.648C3193.76 593.695 3192.49 591.417 3191.6 588.812C3190.72 586.208 3190.27 583.383 3190.27 580.336ZM3197.5 579.438V580.336C3197.5 582.445 3197.75 584.438 3198.24 586.312C3198.74 588.161 3199.48 589.802 3200.47 591.234C3201.48 592.667 3202.75 593.799 3204.26 594.633C3205.77 595.44 3207.53 595.844 3209.53 595.844C3211.51 595.844 3213.24 595.44 3214.73 594.633C3216.24 593.799 3217.49 592.667 3218.48 591.234C3219.47 589.802 3220.21 588.161 3220.7 586.312C3221.22 584.438 3221.48 582.445 3221.48 580.336V579.438C3221.48 577.354 3221.22 575.388 3220.7 573.539C3220.21 571.664 3219.45 570.01 3218.44 568.578C3217.45 567.12 3216.2 565.974 3214.69 565.141C3213.2 564.307 3211.46 563.891 3209.45 563.891C3207.47 563.891 3205.73 564.307 3204.22 565.141C3202.73 565.974 3201.48 567.12 3200.47 568.578C3199.48 570.01 3198.74 571.664 3198.24 573.539C3197.75 575.388 3197.5 577.354 3197.5 579.438ZM3254.73 595.844C3256.45 595.844 3258.03 595.492 3259.49 594.789C3260.95 594.086 3262.15 593.122 3263.09 591.898C3264.02 590.648 3264.56 589.229 3264.69 587.641H3271.56C3271.43 590.141 3270.59 592.471 3269.02 594.633C3267.49 596.768 3265.47 598.5 3262.97 599.828C3260.47 601.13 3257.72 601.781 3254.73 601.781C3251.55 601.781 3248.78 601.221 3246.41 600.102C3244.06 598.982 3242.11 597.445 3240.55 595.492C3239.01 593.539 3237.85 591.299 3237.07 588.773C3236.32 586.221 3235.94 583.526 3235.94 580.688V579.047C3235.94 576.208 3236.32 573.526 3237.07 571C3237.85 568.448 3239.01 566.195 3240.55 564.242C3242.11 562.289 3244.06 560.753 3246.41 559.633C3248.78 558.513 3251.55 557.953 3254.73 557.953C3258.03 557.953 3260.92 558.63 3263.4 559.984C3265.87 561.312 3267.81 563.135 3269.22 565.453C3270.65 567.745 3271.43 570.349 3271.56 573.266H3264.69C3264.56 571.521 3264.06 569.945 3263.2 568.539C3262.37 567.133 3261.22 566.013 3259.77 565.18C3258.33 564.32 3256.65 563.891 3254.73 563.891C3252.51 563.891 3250.65 564.333 3249.14 565.219C3247.66 566.078 3246.47 567.25 3245.59 568.734C3244.73 570.193 3244.1 571.82 3243.71 573.617C3243.35 575.388 3243.16 577.198 3243.16 579.047V580.688C3243.16 582.536 3243.35 584.359 3243.71 586.156C3244.08 587.953 3244.69 589.581 3245.55 591.039C3246.43 592.497 3247.62 593.669 3249.1 594.555C3250.61 595.414 3252.49 595.844 3254.73 595.844ZM3305.55 591.234V558.734H3312.81V601H3305.9L3305.55 591.234ZM3306.91 582.328L3309.92 582.25C3309.92 585.062 3309.62 587.667 3309.02 590.062C3308.45 592.432 3307.51 594.49 3306.21 596.234C3304.91 597.979 3303.2 599.346 3301.09 600.336C3298.98 601.299 3296.42 601.781 3293.4 601.781C3291.34 601.781 3289.45 601.482 3287.73 600.883C3286.04 600.284 3284.58 599.359 3283.36 598.109C3282.14 596.859 3281.18 595.232 3280.51 593.227C3279.86 591.221 3279.53 588.812 3279.53 586V558.734H3286.76V586.078C3286.76 587.979 3286.97 589.555 3287.38 590.805C3287.83 592.029 3288.41 593.005 3289.14 593.734C3289.9 594.438 3290.73 594.932 3291.64 595.219C3292.58 595.505 3293.54 595.648 3294.53 595.648C3297.6 595.648 3300.04 595.062 3301.84 593.891C3303.63 592.693 3304.92 591.091 3305.7 589.086C3306.51 587.055 3306.91 584.802 3306.91 582.328ZM3348.44 589.789C3348.44 588.747 3348.2 587.784 3347.73 586.898C3347.29 585.987 3346.37 585.167 3344.96 584.438C3343.58 583.682 3341.5 583.031 3338.71 582.484C3336.37 581.99 3334.24 581.404 3332.34 580.727C3330.47 580.049 3328.87 579.229 3327.54 578.266C3326.24 577.302 3325.23 576.169 3324.53 574.867C3323.83 573.565 3323.48 572.042 3323.48 570.297C3323.48 568.63 3323.84 567.055 3324.57 565.57C3325.33 564.086 3326.38 562.771 3327.73 561.625C3329.11 560.479 3330.77 559.581 3332.7 558.93C3334.62 558.279 3336.77 557.953 3339.14 557.953C3342.53 557.953 3345.42 558.552 3347.81 559.75C3350.21 560.948 3352.04 562.549 3353.32 564.555C3354.6 566.534 3355.23 568.734 3355.23 571.156H3348.01C3348.01 569.984 3347.66 568.852 3346.95 567.758C3346.28 566.638 3345.27 565.714 3343.95 564.984C3342.64 564.255 3341.04 563.891 3339.14 563.891C3337.14 563.891 3335.51 564.203 3334.26 564.828C3333.03 565.427 3332.14 566.195 3331.56 567.133C3331.02 568.07 3330.74 569.06 3330.74 570.102C3330.74 570.883 3330.87 571.586 3331.13 572.211C3331.42 572.81 3331.91 573.37 3332.62 573.891C3333.32 574.385 3334.31 574.854 3335.59 575.297C3336.86 575.74 3338.49 576.182 3340.47 576.625C3343.93 577.406 3346.78 578.344 3349.02 579.438C3351.26 580.531 3352.93 581.872 3354.02 583.461C3355.12 585.049 3355.66 586.977 3355.66 589.242C3355.66 591.091 3355.27 592.784 3354.49 594.32C3353.74 595.857 3352.63 597.185 3351.17 598.305C3349.74 599.398 3348.02 600.258 3346.02 600.883C3344.04 601.482 3341.81 601.781 3339.34 601.781C3335.61 601.781 3332.46 601.117 3329.88 599.789C3327.3 598.461 3325.35 596.742 3324.02 594.633C3322.7 592.523 3322.03 590.297 3322.03 587.953H3329.3C3329.4 589.932 3329.97 591.508 3331.02 592.68C3332.06 593.826 3333.33 594.646 3334.84 595.141C3336.35 595.609 3337.85 595.844 3339.34 595.844C3341.32 595.844 3342.97 595.583 3344.3 595.062C3345.65 594.542 3346.68 593.826 3347.38 592.914C3348.09 592.003 3348.44 590.961 3348.44 589.789ZM3373.01 558.734V601H3365.74V558.734H3373.01ZM3365.2 547.523C3365.2 546.352 3365.55 545.362 3366.25 544.555C3366.98 543.747 3368.05 543.344 3369.45 543.344C3370.83 543.344 3371.89 543.747 3372.62 544.555C3373.37 545.362 3373.75 546.352 3373.75 547.523C3373.75 548.643 3373.37 549.607 3372.62 550.414C3371.89 551.195 3370.83 551.586 3369.45 551.586C3368.05 551.586 3366.98 551.195 3366.25 550.414C3365.55 549.607 3365.2 548.643 3365.2 547.523ZM3391.84 567.758V601H3384.61V558.734H3391.45L3391.84 567.758ZM3390.12 578.266L3387.11 578.148C3387.14 575.258 3387.57 572.589 3388.4 570.141C3389.23 567.667 3390.4 565.518 3391.91 563.695C3393.42 561.872 3395.22 560.466 3397.3 559.477C3399.41 558.461 3401.74 557.953 3404.3 557.953C3406.38 557.953 3408.26 558.24 3409.92 558.812C3411.59 559.359 3413.01 560.245 3414.18 561.469C3415.38 562.693 3416.29 564.281 3416.91 566.234C3417.54 568.161 3417.85 570.518 3417.85 573.305V601H3410.59V573.227C3410.59 571.013 3410.26 569.242 3409.61 567.914C3408.96 566.56 3408.01 565.583 3406.76 564.984C3405.51 564.359 3403.97 564.047 3402.15 564.047C3400.35 564.047 3398.71 564.424 3397.23 565.18C3395.77 565.935 3394.51 566.977 3393.44 568.305C3392.4 569.633 3391.58 571.156 3390.98 572.875C3390.4 574.568 3390.12 576.365 3390.12 578.266ZM3456.21 558.734H3462.77V600.102C3462.77 603.826 3462.02 607.003 3460.51 609.633C3459 612.263 3456.89 614.255 3454.18 615.609C3451.5 616.99 3448.4 617.68 3444.88 617.68C3443.42 617.68 3441.71 617.445 3439.73 616.977C3437.77 616.534 3435.85 615.766 3433.95 614.672C3432.07 613.604 3430.49 612.159 3429.22 610.336L3433.01 606.039C3434.78 608.174 3436.63 609.659 3438.55 610.492C3440.51 611.326 3442.43 611.742 3444.34 611.742C3446.63 611.742 3448.61 611.312 3450.27 610.453C3451.94 609.594 3453.23 608.318 3454.14 606.625C3455.08 604.958 3455.55 602.901 3455.55 600.453V568.031L3456.21 558.734ZM3427.11 580.336V579.516C3427.11 576.286 3427.49 573.357 3428.24 570.727C3429.02 568.07 3430.13 565.792 3431.56 563.891C3433.02 561.99 3434.78 560.531 3436.84 559.516C3438.89 558.474 3441.21 557.953 3443.79 557.953C3446.45 557.953 3448.76 558.422 3450.74 559.359C3452.75 560.271 3454.44 561.612 3455.82 563.383C3457.23 565.128 3458.33 567.237 3459.14 569.711C3459.95 572.185 3460.51 574.984 3460.82 578.109V581.703C3460.53 584.802 3459.97 587.589 3459.14 590.062C3458.33 592.536 3457.23 594.646 3455.82 596.391C3454.44 598.135 3452.75 599.477 3450.74 600.414C3448.74 601.326 3446.39 601.781 3443.71 601.781C3441.18 601.781 3438.89 601.247 3436.84 600.18C3434.8 599.112 3433.06 597.615 3431.6 595.688C3430.14 593.76 3429.02 591.495 3428.24 588.891C3427.49 586.26 3427.11 583.409 3427.11 580.336ZM3434.34 579.516V580.336C3434.34 582.445 3434.54 584.424 3434.96 586.273C3435.4 588.122 3436.07 589.75 3436.95 591.156C3437.86 592.562 3439.02 593.669 3440.43 594.477C3441.84 595.258 3443.52 595.648 3445.47 595.648C3447.86 595.648 3449.84 595.141 3451.41 594.125C3452.97 593.109 3454.21 591.768 3455.12 590.102C3456.05 588.435 3456.78 586.625 3457.3 584.672V575.258C3457.02 573.826 3456.58 572.445 3455.98 571.117C3455.4 569.763 3454.65 568.565 3453.71 567.523C3452.8 566.456 3451.67 565.609 3450.31 564.984C3448.96 564.359 3447.37 564.047 3445.55 564.047C3443.57 564.047 3441.86 564.464 3440.43 565.297C3439.02 566.104 3437.86 567.224 3436.95 568.656C3436.07 570.062 3435.4 571.703 3434.96 573.578C3434.54 575.427 3434.34 577.406 3434.34 579.516ZM2510.9 674.336V673.438C2510.9 670.391 2511.34 667.565 2512.23 664.961C2513.11 662.331 2514.39 660.052 2516.05 658.125C2517.72 656.172 2519.74 654.661 2522.11 653.594C2524.48 652.5 2527.14 651.953 2530.08 651.953C2533.05 651.953 2535.72 652.5 2538.09 653.594C2540.48 654.661 2542.51 656.172 2544.18 658.125C2545.87 660.052 2547.16 662.331 2548.05 664.961C2548.93 667.565 2549.38 670.391 2549.38 673.438V674.336C2549.38 677.383 2548.93 680.208 2548.05 682.812C2547.16 685.417 2545.87 687.695 2544.18 689.648C2542.51 691.576 2540.49 693.086 2538.12 694.18C2535.78 695.247 2533.12 695.781 2530.16 695.781C2527.19 695.781 2524.52 695.247 2522.15 694.18C2519.78 693.086 2517.75 691.576 2516.05 689.648C2514.39 687.695 2513.11 685.417 2512.23 682.812C2511.34 680.208 2510.9 677.383 2510.9 674.336ZM2518.12 673.438V674.336C2518.12 676.445 2518.37 678.438 2518.87 680.312C2519.36 682.161 2520.1 683.802 2521.09 685.234C2522.11 686.667 2523.37 687.799 2524.88 688.633C2526.39 689.44 2528.15 689.844 2530.16 689.844C2532.14 689.844 2533.87 689.44 2535.35 688.633C2536.86 687.799 2538.11 686.667 2539.1 685.234C2540.09 683.802 2540.83 682.161 2541.33 680.312C2541.85 678.438 2542.11 676.445 2542.11 674.336V673.438C2542.11 671.354 2541.85 669.388 2541.33 667.539C2540.83 665.664 2540.08 664.01 2539.06 662.578C2538.07 661.12 2536.82 659.974 2535.31 659.141C2533.83 658.307 2532.08 657.891 2530.08 657.891C2528.1 657.891 2526.35 658.307 2524.84 659.141C2523.36 659.974 2522.11 661.12 2521.09 662.578C2520.1 664.01 2519.36 665.664 2518.87 667.539C2518.37 669.388 2518.12 671.354 2518.12 673.438ZM2565.66 661.758V695H2558.44V652.734H2565.27L2565.66 661.758ZM2563.95 672.266L2560.94 672.148C2560.96 669.258 2561.39 666.589 2562.23 664.141C2563.06 661.667 2564.23 659.518 2565.74 657.695C2567.25 655.872 2569.05 654.466 2571.13 653.477C2573.24 652.461 2575.57 651.953 2578.12 651.953C2580.21 651.953 2582.08 652.24 2583.75 652.812C2585.42 653.359 2586.84 654.245 2588.01 655.469C2589.21 656.693 2590.12 658.281 2590.74 660.234C2591.37 662.161 2591.68 664.518 2591.68 667.305V695H2584.41V667.227C2584.41 665.013 2584.09 663.242 2583.44 661.914C2582.79 660.56 2581.84 659.583 2580.59 658.984C2579.34 658.359 2577.8 658.047 2575.98 658.047C2574.18 658.047 2572.54 658.424 2571.05 659.18C2569.6 659.935 2568.33 660.977 2567.27 662.305C2566.22 663.633 2565.4 665.156 2564.8 666.875C2564.23 668.568 2563.95 670.365 2563.95 672.266ZM2656.13 638.125H2663.63V676.602C2663.63 680.872 2662.68 684.427 2660.78 687.266C2658.88 690.104 2656.35 692.24 2653.2 693.672C2650.08 695.078 2646.68 695.781 2643.01 695.781C2639.15 695.781 2635.66 695.078 2632.54 693.672C2629.44 692.24 2626.98 690.104 2625.16 687.266C2623.36 684.427 2622.46 680.872 2622.46 676.602V638.125H2629.92V676.602C2629.92 679.57 2630.47 682.018 2631.56 683.945C2632.66 685.872 2634.18 687.305 2636.13 688.242C2638.11 689.18 2640.4 689.648 2643.01 689.648C2645.64 689.648 2647.93 689.18 2649.88 688.242C2651.86 687.305 2653.4 685.872 2654.49 683.945C2655.59 682.018 2656.13 679.57 2656.13 676.602V638.125ZM2683.55 638.125V695H2676.02V638.125H2683.55ZM2702.73 686.406V692.227C2702.73 694.596 2702.14 697.096 2700.94 699.727C2699.74 702.383 2698.06 704.596 2695.9 706.367L2691.8 703.516C2692.63 702.37 2693.33 701.198 2693.91 700C2694.48 698.828 2694.91 697.604 2695.2 696.328C2695.51 695.078 2695.66 693.75 2695.66 692.344V686.406H2702.73ZM2765.43 638.125H2772.93V676.602C2772.93 680.872 2771.98 684.427 2770.08 687.266C2768.18 690.104 2765.65 692.24 2762.5 693.672C2759.38 695.078 2755.98 695.781 2752.3 695.781C2748.45 695.781 2744.96 695.078 2741.84 693.672C2738.74 692.24 2736.28 690.104 2734.45 687.266C2732.66 684.427 2731.76 680.872 2731.76 676.602V638.125H2739.22V676.602C2739.22 679.57 2739.77 682.018 2740.86 683.945C2741.95 685.872 2743.48 687.305 2745.43 688.242C2747.41 689.18 2749.7 689.648 2752.3 689.648C2754.93 689.648 2757.23 689.18 2759.18 688.242C2761.16 687.305 2762.7 685.872 2763.79 683.945C2764.88 682.018 2765.43 679.57 2765.43 676.602V638.125ZM2789.65 638.125L2803.32 659.922L2816.99 638.125H2825.78L2807.81 666.289L2826.21 695H2817.34L2803.32 672.773L2789.3 695H2780.43L2798.83 666.289L2780.86 638.125H2789.65ZM2840.39 686.406V692.227C2840.39 694.596 2839.79 697.096 2838.59 699.727C2837.4 702.383 2835.72 704.596 2833.55 706.367L2829.45 703.516C2830.29 702.37 2830.99 701.198 2831.56 700C2832.14 698.828 2832.57 697.604 2832.85 696.328C2833.16 695.078 2833.32 693.75 2833.32 692.344V686.406H2840.39ZM2894.38 687.773V666.016C2894.38 664.349 2894.04 662.904 2893.36 661.68C2892.71 660.43 2891.72 659.466 2890.39 658.789C2889.06 658.112 2887.42 657.773 2885.47 657.773C2883.65 657.773 2882.04 658.086 2880.66 658.711C2879.31 659.336 2878.24 660.156 2877.46 661.172C2876.71 662.188 2876.33 663.281 2876.33 664.453H2869.1C2869.1 662.943 2869.49 661.445 2870.27 659.961C2871.05 658.477 2872.17 657.135 2873.63 655.938C2875.12 654.714 2876.89 653.75 2878.95 653.047C2881.03 652.318 2883.35 651.953 2885.9 651.953C2888.97 651.953 2891.68 652.474 2894.02 653.516C2896.39 654.557 2898.24 656.133 2899.57 658.242C2900.92 660.326 2901.6 662.943 2901.6 666.094V685.781C2901.6 687.188 2901.72 688.685 2901.95 690.273C2902.21 691.862 2902.59 693.229 2903.09 694.375V695H2895.55C2895.18 694.167 2894.9 693.06 2894.69 691.68C2894.48 690.273 2894.38 688.971 2894.38 687.773ZM2895.62 669.375L2895.7 674.453H2888.4C2886.34 674.453 2884.51 674.622 2882.89 674.961C2881.28 675.273 2879.92 675.755 2878.83 676.406C2877.73 677.057 2876.9 677.878 2876.33 678.867C2875.76 679.831 2875.47 680.964 2875.47 682.266C2875.47 683.594 2875.77 684.805 2876.37 685.898C2876.97 686.992 2877.86 687.865 2879.06 688.516C2880.29 689.141 2881.78 689.453 2883.55 689.453C2885.77 689.453 2887.72 688.984 2889.41 688.047C2891.11 687.109 2892.45 685.964 2893.44 684.609C2894.45 683.255 2895 681.94 2895.08 680.664L2898.16 684.141C2897.98 685.234 2897.49 686.445 2896.68 687.773C2895.87 689.102 2894.79 690.378 2893.44 691.602C2892.11 692.799 2890.52 693.802 2888.67 694.609C2886.85 695.391 2884.79 695.781 2882.5 695.781C2879.64 695.781 2877.12 695.221 2874.96 694.102C2872.83 692.982 2871.16 691.484 2869.96 689.609C2868.79 687.708 2868.2 685.586 2868.2 683.242C2868.2 680.977 2868.65 678.984 2869.53 677.266C2870.42 675.521 2871.69 674.076 2873.36 672.93C2875.03 671.758 2877.03 670.872 2879.38 670.273C2881.72 669.674 2884.34 669.375 2887.23 669.375H2895.62ZM2920.2 661.758V695H2912.97V652.734H2919.8L2920.2 661.758ZM2918.48 672.266L2915.47 672.148C2915.49 669.258 2915.92 666.589 2916.76 664.141C2917.59 661.667 2918.76 659.518 2920.27 657.695C2921.78 655.872 2923.58 654.466 2925.66 653.477C2927.77 652.461 2930.1 651.953 2932.66 651.953C2934.74 651.953 2936.61 652.24 2938.28 652.812C2939.95 653.359 2941.37 654.245 2942.54 655.469C2943.74 656.693 2944.65 658.281 2945.27 660.234C2945.9 662.161 2946.21 664.518 2946.21 667.305V695H2938.95V667.227C2938.95 665.013 2938.62 663.242 2937.97 661.914C2937.32 660.56 2936.37 659.583 2935.12 658.984C2933.87 658.359 2932.33 658.047 2930.51 658.047C2928.71 658.047 2927.07 658.424 2925.59 659.18C2924.13 659.935 2922.86 660.977 2921.8 662.305C2920.76 663.633 2919.93 665.156 2919.34 666.875C2918.76 668.568 2918.48 670.365 2918.48 672.266ZM2983.83 686.797V635H2991.09V695H2984.45L2983.83 686.797ZM2955.39 674.336V673.516C2955.39 670.286 2955.78 667.357 2956.56 664.727C2957.37 662.07 2958.5 659.792 2959.96 657.891C2961.45 655.99 2963.2 654.531 2965.23 653.516C2967.29 652.474 2969.58 651.953 2972.11 651.953C2974.77 651.953 2977.08 652.422 2979.06 653.359C2981.07 654.271 2982.76 655.612 2984.14 657.383C2985.55 659.128 2986.65 661.237 2987.46 663.711C2988.27 666.185 2988.83 668.984 2989.14 672.109V675.703C2988.85 678.802 2988.29 681.589 2987.46 684.062C2986.65 686.536 2985.55 688.646 2984.14 690.391C2982.76 692.135 2981.07 693.477 2979.06 694.414C2977.06 695.326 2974.71 695.781 2972.03 695.781C2969.56 695.781 2967.29 695.247 2965.23 694.18C2963.2 693.112 2961.45 691.615 2959.96 689.688C2958.5 687.76 2957.37 685.495 2956.56 682.891C2955.78 680.26 2955.39 677.409 2955.39 674.336ZM2962.66 673.516V674.336C2962.66 676.445 2962.86 678.424 2963.28 680.273C2963.72 682.122 2964.4 683.75 2965.31 685.156C2966.22 686.562 2967.38 687.669 2968.79 688.477C2970.2 689.258 2971.88 689.648 2973.83 689.648C2976.22 689.648 2978.19 689.141 2979.73 688.125C2981.29 687.109 2982.54 685.768 2983.48 684.102C2984.41 682.435 2985.14 680.625 2985.66 678.672V669.258C2985.35 667.826 2984.9 666.445 2984.3 665.117C2983.72 663.763 2982.97 662.565 2982.03 661.523C2981.12 660.456 2979.99 659.609 2978.63 658.984C2977.3 658.359 2975.73 658.047 2973.91 658.047C2971.93 658.047 2970.22 658.464 2968.79 659.297C2967.38 660.104 2966.22 661.224 2965.31 662.656C2964.4 664.062 2963.72 665.703 2963.28 667.578C2962.86 669.427 2962.66 671.406 2962.66 673.516ZM3047.11 687.773V666.016C3047.11 664.349 3046.77 662.904 3046.09 661.68C3045.44 660.43 3044.45 659.466 3043.12 658.789C3041.8 658.112 3040.16 657.773 3038.2 657.773C3036.38 657.773 3034.78 658.086 3033.4 658.711C3032.04 659.336 3030.98 660.156 3030.2 661.172C3029.44 662.188 3029.06 663.281 3029.06 664.453H3021.84C3021.84 662.943 3022.23 661.445 3023.01 659.961C3023.79 658.477 3024.91 657.135 3026.37 655.938C3027.85 654.714 3029.62 653.75 3031.68 653.047C3033.76 652.318 3036.08 651.953 3038.63 651.953C3041.71 651.953 3044.41 652.474 3046.76 653.516C3049.13 654.557 3050.98 656.133 3052.3 658.242C3053.66 660.326 3054.34 662.943 3054.34 666.094V685.781C3054.34 687.188 3054.45 688.685 3054.69 690.273C3054.95 691.862 3055.33 693.229 3055.82 694.375V695H3048.28C3047.92 694.167 3047.63 693.06 3047.42 691.68C3047.21 690.273 3047.11 688.971 3047.11 687.773ZM3048.36 669.375L3048.44 674.453H3041.13C3039.08 674.453 3037.24 674.622 3035.62 674.961C3034.01 675.273 3032.66 675.755 3031.56 676.406C3030.47 677.057 3029.64 677.878 3029.06 678.867C3028.49 679.831 3028.2 680.964 3028.2 682.266C3028.2 683.594 3028.5 684.805 3029.1 685.898C3029.7 686.992 3030.6 687.865 3031.8 688.516C3033.02 689.141 3034.52 689.453 3036.29 689.453C3038.5 689.453 3040.46 688.984 3042.15 688.047C3043.84 687.109 3045.18 685.964 3046.17 684.609C3047.19 683.255 3047.73 681.94 3047.81 680.664L3050.9 684.141C3050.72 685.234 3050.22 686.445 3049.41 687.773C3048.61 689.102 3047.53 690.378 3046.17 691.602C3044.84 692.799 3043.26 693.802 3041.41 694.609C3039.58 695.391 3037.53 695.781 3035.23 695.781C3032.37 695.781 3029.86 695.221 3027.7 694.102C3025.56 692.982 3023.89 691.484 3022.7 689.609C3021.52 687.708 3020.94 685.586 3020.94 683.242C3020.94 680.977 3021.38 678.984 3022.27 677.266C3023.15 675.521 3024.43 674.076 3026.09 672.93C3027.76 671.758 3029.77 670.872 3032.11 670.273C3034.45 669.674 3037.07 669.375 3039.96 669.375H3048.36ZM3082.62 689.844C3084.34 689.844 3085.92 689.492 3087.38 688.789C3088.84 688.086 3090.04 687.122 3090.98 685.898C3091.91 684.648 3092.45 683.229 3092.58 681.641H3099.45C3099.32 684.141 3098.48 686.471 3096.91 688.633C3095.38 690.768 3093.36 692.5 3090.86 693.828C3088.36 695.13 3085.61 695.781 3082.62 695.781C3079.44 695.781 3076.67 695.221 3074.3 694.102C3071.95 692.982 3070 691.445 3068.44 689.492C3066.9 687.539 3065.74 685.299 3064.96 682.773C3064.21 680.221 3063.83 677.526 3063.83 674.688V673.047C3063.83 670.208 3064.21 667.526 3064.96 665C3065.74 662.448 3066.9 660.195 3068.44 658.242C3070 656.289 3071.95 654.753 3074.3 653.633C3076.67 652.513 3079.44 651.953 3082.62 651.953C3085.92 651.953 3088.82 652.63 3091.29 653.984C3093.76 655.312 3095.7 657.135 3097.11 659.453C3098.54 661.745 3099.32 664.349 3099.45 667.266H3092.58C3092.45 665.521 3091.95 663.945 3091.09 662.539C3090.26 661.133 3089.11 660.013 3087.66 659.18C3086.22 658.32 3084.54 657.891 3082.62 657.891C3080.4 657.891 3078.54 658.333 3077.03 659.219C3075.55 660.078 3074.36 661.25 3073.48 662.734C3072.62 664.193 3071.99 665.82 3071.6 667.617C3071.24 669.388 3071.05 671.198 3071.05 673.047V674.688C3071.05 676.536 3071.24 678.359 3071.6 680.156C3071.97 681.953 3072.58 683.581 3073.44 685.039C3074.32 686.497 3075.51 687.669 3076.99 688.555C3078.5 689.414 3080.38 689.844 3082.62 689.844ZM3124.49 689.844C3126.21 689.844 3127.8 689.492 3129.26 688.789C3130.72 688.086 3131.91 687.122 3132.85 685.898C3133.79 684.648 3134.32 683.229 3134.45 681.641H3141.33C3141.2 684.141 3140.35 686.471 3138.79 688.633C3137.25 690.768 3135.23 692.5 3132.73 693.828C3130.23 695.13 3127.49 695.781 3124.49 695.781C3121.32 695.781 3118.54 695.221 3116.17 694.102C3113.83 692.982 3111.88 691.445 3110.31 689.492C3108.78 687.539 3107.62 685.299 3106.84 682.773C3106.08 680.221 3105.7 677.526 3105.7 674.688V673.047C3105.7 670.208 3106.08 667.526 3106.84 665C3107.62 662.448 3108.78 660.195 3110.31 658.242C3111.88 656.289 3113.83 654.753 3116.17 653.633C3118.54 652.513 3121.32 651.953 3124.49 651.953C3127.8 651.953 3130.69 652.63 3133.16 653.984C3135.64 655.312 3137.58 657.135 3138.98 659.453C3140.42 661.745 3141.2 664.349 3141.33 667.266H3134.45C3134.32 665.521 3133.83 663.945 3132.97 662.539C3132.14 661.133 3130.99 660.013 3129.53 659.18C3128.1 658.32 3126.42 657.891 3124.49 657.891C3122.28 657.891 3120.42 658.333 3118.91 659.219C3117.42 660.078 3116.24 661.25 3115.35 662.734C3114.49 664.193 3113.87 665.82 3113.48 667.617C3113.11 669.388 3112.93 671.198 3112.93 673.047V674.688C3112.93 676.536 3113.11 678.359 3113.48 680.156C3113.84 681.953 3114.45 683.581 3115.31 685.039C3116.2 686.497 3117.38 687.669 3118.87 688.555C3120.38 689.414 3122.25 689.844 3124.49 689.844ZM3166.99 695.781C3164.05 695.781 3161.38 695.286 3158.98 694.297C3156.61 693.281 3154.57 691.862 3152.85 690.039C3151.16 688.216 3149.86 686.055 3148.95 683.555C3148.03 681.055 3147.58 678.32 3147.58 675.352V673.711C3147.58 670.273 3148.09 667.214 3149.1 664.531C3150.12 661.823 3151.5 659.531 3153.24 657.656C3154.99 655.781 3156.97 654.362 3159.18 653.398C3161.39 652.435 3163.68 651.953 3166.05 651.953C3169.08 651.953 3171.68 652.474 3173.87 653.516C3176.08 654.557 3177.89 656.016 3179.3 657.891C3180.7 659.74 3181.74 661.927 3182.42 664.453C3183.1 666.953 3183.44 669.688 3183.44 672.656V675.898H3151.88V670H3176.21V669.453C3176.11 667.578 3175.72 665.755 3175.04 663.984C3174.39 662.214 3173.35 660.755 3171.91 659.609C3170.48 658.464 3168.53 657.891 3166.05 657.891C3164.41 657.891 3162.9 658.242 3161.52 658.945C3160.14 659.622 3158.96 660.638 3157.97 661.992C3156.98 663.346 3156.21 665 3155.66 666.953C3155.12 668.906 3154.84 671.159 3154.84 673.711V675.352C3154.84 677.357 3155.12 679.245 3155.66 681.016C3156.24 682.76 3157.06 684.297 3158.12 685.625C3159.22 686.953 3160.53 687.995 3162.07 688.75C3163.63 689.505 3165.4 689.883 3167.38 689.883C3169.93 689.883 3172.1 689.362 3173.87 688.32C3175.64 687.279 3177.19 685.885 3178.52 684.141L3182.89 687.617C3181.98 688.997 3180.82 690.312 3179.41 691.562C3178.01 692.812 3176.28 693.828 3174.22 694.609C3172.19 695.391 3169.78 695.781 3166.99 695.781ZM3216.48 683.789C3216.48 682.747 3216.25 681.784 3215.78 680.898C3215.34 679.987 3214.41 679.167 3213.01 678.438C3211.63 677.682 3209.54 677.031 3206.76 676.484C3204.41 675.99 3202.29 675.404 3200.39 674.727C3198.52 674.049 3196.91 673.229 3195.59 672.266C3194.28 671.302 3193.28 670.169 3192.58 668.867C3191.88 667.565 3191.52 666.042 3191.52 664.297C3191.52 662.63 3191.89 661.055 3192.62 659.57C3193.37 658.086 3194.43 656.771 3195.78 655.625C3197.16 654.479 3198.82 653.581 3200.74 652.93C3202.67 652.279 3204.82 651.953 3207.19 651.953C3210.57 651.953 3213.46 652.552 3215.86 653.75C3218.26 654.948 3220.09 656.549 3221.37 658.555C3222.64 660.534 3223.28 662.734 3223.28 665.156H3216.05C3216.05 663.984 3215.7 662.852 3215 661.758C3214.32 660.638 3213.32 659.714 3211.99 658.984C3210.69 658.255 3209.09 657.891 3207.19 657.891C3205.18 657.891 3203.55 658.203 3202.3 658.828C3201.08 659.427 3200.18 660.195 3199.61 661.133C3199.06 662.07 3198.79 663.06 3198.79 664.102C3198.79 664.883 3198.92 665.586 3199.18 666.211C3199.47 666.81 3199.96 667.37 3200.66 667.891C3201.37 668.385 3202.36 668.854 3203.63 669.297C3204.91 669.74 3206.54 670.182 3208.52 670.625C3211.98 671.406 3214.83 672.344 3217.07 673.438C3219.31 674.531 3220.98 675.872 3222.07 677.461C3223.16 679.049 3223.71 680.977 3223.71 683.242C3223.71 685.091 3223.32 686.784 3222.54 688.32C3221.78 689.857 3220.68 691.185 3219.22 692.305C3217.79 693.398 3216.07 694.258 3214.06 694.883C3212.08 695.482 3209.86 695.781 3207.38 695.781C3203.66 695.781 3200.51 695.117 3197.93 693.789C3195.35 692.461 3193.4 690.742 3192.07 688.633C3190.74 686.523 3190.08 684.297 3190.08 681.953H3197.34C3197.45 683.932 3198.02 685.508 3199.06 686.68C3200.1 687.826 3201.38 688.646 3202.89 689.141C3204.4 689.609 3205.9 689.844 3207.38 689.844C3209.36 689.844 3211.02 689.583 3212.34 689.062C3213.7 688.542 3214.73 687.826 3215.43 686.914C3216.13 686.003 3216.48 684.961 3216.48 683.789ZM3257.81 683.789C3257.81 682.747 3257.58 681.784 3257.11 680.898C3256.67 679.987 3255.74 679.167 3254.34 678.438C3252.96 677.682 3250.87 677.031 3248.09 676.484C3245.74 675.99 3243.62 675.404 3241.72 674.727C3239.84 674.049 3238.24 673.229 3236.91 672.266C3235.61 671.302 3234.61 670.169 3233.91 668.867C3233.2 667.565 3232.85 666.042 3232.85 664.297C3232.85 662.63 3233.22 661.055 3233.95 659.57C3234.7 658.086 3235.76 656.771 3237.11 655.625C3238.49 654.479 3240.14 653.581 3242.07 652.93C3244 652.279 3246.15 651.953 3248.52 651.953C3251.9 651.953 3254.79 652.552 3257.19 653.75C3259.58 654.948 3261.42 656.549 3262.7 658.555C3263.97 660.534 3264.61 662.734 3264.61 665.156H3257.38C3257.38 663.984 3257.03 662.852 3256.33 661.758C3255.65 660.638 3254.65 659.714 3253.32 658.984C3252.02 658.255 3250.42 657.891 3248.52 657.891C3246.51 657.891 3244.88 658.203 3243.63 658.828C3242.41 659.427 3241.51 660.195 3240.94 661.133C3240.39 662.07 3240.12 663.06 3240.12 664.102C3240.12 664.883 3240.25 665.586 3240.51 666.211C3240.79 666.81 3241.29 667.37 3241.99 667.891C3242.7 668.385 3243.68 668.854 3244.96 669.297C3246.24 669.74 3247.86 670.182 3249.84 670.625C3253.31 671.406 3256.16 672.344 3258.4 673.438C3260.64 674.531 3262.3 675.872 3263.4 677.461C3264.49 679.049 3265.04 680.977 3265.04 683.242C3265.04 685.091 3264.65 686.784 3263.87 688.32C3263.11 689.857 3262.01 691.185 3260.55 692.305C3259.11 693.398 3257.4 694.258 3255.39 694.883C3253.41 695.482 3251.18 695.781 3248.71 695.781C3244.99 695.781 3241.84 695.117 3239.26 693.789C3236.68 692.461 3234.73 690.742 3233.4 688.633C3232.07 686.523 3231.41 684.297 3231.41 681.953H3238.67C3238.78 683.932 3239.35 685.508 3240.39 686.68C3241.43 687.826 3242.71 688.646 3244.22 689.141C3245.73 689.609 3247.23 689.844 3248.71 689.844C3250.69 689.844 3252.34 689.583 3253.67 689.062C3255.03 688.542 3256.05 687.826 3256.76 686.914C3257.46 686.003 3257.81 684.961 3257.81 683.789ZM3282.38 652.734V695H3275.12V652.734H3282.38ZM3274.57 641.523C3274.57 640.352 3274.92 639.362 3275.62 638.555C3276.35 637.747 3277.42 637.344 3278.83 637.344C3280.21 637.344 3281.26 637.747 3281.99 638.555C3282.75 639.362 3283.12 640.352 3283.12 641.523C3283.12 642.643 3282.75 643.607 3281.99 644.414C3281.26 645.195 3280.21 645.586 3278.83 645.586C3277.42 645.586 3276.35 645.195 3275.62 644.414C3274.92 643.607 3274.57 642.643 3274.57 641.523ZM3293.95 635H3301.21V686.797L3300.59 695H3293.95V635ZM3329.77 673.516V674.336C3329.77 677.409 3329.4 680.26 3328.67 682.891C3327.94 685.495 3326.88 687.76 3325.47 689.688C3324.06 691.615 3322.34 693.112 3320.31 694.18C3318.28 695.247 3315.95 695.781 3313.32 695.781C3310.64 695.781 3308.28 695.326 3306.25 694.414C3304.24 693.477 3302.55 692.135 3301.17 690.391C3299.79 688.646 3298.68 686.536 3297.85 684.062C3297.04 681.589 3296.48 678.802 3296.17 675.703V672.109C3296.48 668.984 3297.04 666.185 3297.85 663.711C3298.68 661.237 3299.79 659.128 3301.17 657.383C3302.55 655.612 3304.24 654.271 3306.25 653.359C3308.26 652.422 3310.59 651.953 3313.24 651.953C3315.9 651.953 3318.26 652.474 3320.31 653.516C3322.37 654.531 3324.09 655.99 3325.47 657.891C3326.88 659.792 3327.94 662.07 3328.67 664.727C3329.4 667.357 3329.77 670.286 3329.77 673.516ZM3322.5 674.336V673.516C3322.5 671.406 3322.3 669.427 3321.91 667.578C3321.52 665.703 3320.9 664.062 3320.04 662.656C3319.18 661.224 3318.05 660.104 3316.64 659.297C3315.23 658.464 3313.5 658.047 3311.45 658.047C3309.62 658.047 3308.03 658.359 3306.68 658.984C3305.35 659.609 3304.22 660.456 3303.28 661.523C3302.34 662.565 3301.58 663.763 3300.98 665.117C3300.4 666.445 3299.97 667.826 3299.69 669.258V678.672C3300.1 680.495 3300.78 682.253 3301.72 683.945C3302.68 685.612 3303.96 686.979 3305.55 688.047C3307.16 689.115 3309.15 689.648 3311.52 689.648C3313.48 689.648 3315.14 689.258 3316.52 688.477C3317.93 687.669 3319.06 686.562 3319.92 685.156C3320.81 683.75 3321.46 682.122 3321.88 680.273C3322.29 678.424 3322.5 676.445 3322.5 674.336ZM3346.76 652.734V695H3339.49V652.734H3346.76ZM3338.95 641.523C3338.95 640.352 3339.3 639.362 3340 638.555C3340.73 637.747 3341.8 637.344 3343.2 637.344C3344.58 637.344 3345.64 637.747 3346.37 638.555C3347.12 639.362 3347.5 640.352 3347.5 641.523C3347.5 642.643 3347.12 643.607 3346.37 644.414C3345.64 645.195 3344.58 645.586 3343.2 645.586C3341.8 645.586 3340.73 645.195 3340 644.414C3339.3 643.607 3338.95 642.643 3338.95 641.523ZM3366.21 635V695H3358.95V635H3366.21ZM3385.66 652.734V695H3378.4V652.734H3385.66ZM3377.85 641.523C3377.85 640.352 3378.2 639.362 3378.91 638.555C3379.64 637.747 3380.7 637.344 3382.11 637.344C3383.49 637.344 3384.54 637.747 3385.27 638.555C3386.03 639.362 3386.41 640.352 3386.41 641.523C3386.41 642.643 3386.03 643.607 3385.27 644.414C3384.54 645.195 3383.49 645.586 3382.11 645.586C3380.7 645.586 3379.64 645.195 3378.91 644.414C3378.2 643.607 3377.85 642.643 3377.85 641.523ZM3414.96 652.734V658.281H3392.11V652.734H3414.96ZM3399.84 642.461H3407.07V684.531C3407.07 685.964 3407.29 687.044 3407.73 687.773C3408.18 688.503 3408.75 688.984 3409.45 689.219C3410.16 689.453 3410.91 689.57 3411.72 689.57C3412.32 689.57 3412.94 689.518 3413.59 689.414C3414.27 689.284 3414.78 689.18 3415.12 689.102L3415.16 695C3414.58 695.182 3413.83 695.352 3412.89 695.508C3411.98 695.69 3410.87 695.781 3409.57 695.781C3407.8 695.781 3406.17 695.43 3404.69 694.727C3403.2 694.023 3402.02 692.852 3401.13 691.211C3400.27 689.544 3399.84 687.305 3399.84 684.492V642.461ZM3435.31 690.625L3447.07 652.734H3454.8L3437.85 701.523C3437.46 702.565 3436.94 703.685 3436.29 704.883C3435.66 706.107 3434.86 707.266 3433.87 708.359C3432.88 709.453 3431.68 710.339 3430.27 711.016C3428.89 711.719 3427.24 712.07 3425.31 712.07C3424.74 712.07 3424.01 711.992 3423.12 711.836C3422.24 711.68 3421.61 711.549 3421.25 711.445L3421.21 705.586C3421.42 705.612 3421.74 705.638 3422.19 705.664C3422.66 705.716 3422.98 705.742 3423.16 705.742C3424.8 705.742 3426.2 705.521 3427.34 705.078C3428.49 704.661 3429.45 703.945 3430.23 702.93C3431.04 701.94 3431.73 700.573 3432.3 698.828L3435.31 690.625ZM3426.68 652.734L3437.66 685.547L3439.53 693.164L3434.34 695.82L3418.79 652.734H3426.68ZM3457.23 691.172C3457.23 689.948 3457.6 688.919 3458.36 688.086C3459.14 687.227 3460.26 686.797 3461.72 686.797C3463.18 686.797 3464.28 687.227 3465.04 688.086C3465.82 688.919 3466.21 689.948 3466.21 691.172C3466.21 692.37 3465.82 693.385 3465.04 694.219C3464.28 695.052 3463.18 695.469 3461.72 695.469C3460.26 695.469 3459.14 695.052 3458.36 694.219C3457.6 693.385 3457.23 692.37 3457.23 691.172Z" fill="black"/>
</svg>
