<svg width="3781" height="890" viewBox="0 0 3781 890" fill="none" xmlns="http://www.w3.org/2000/svg">
<path d="M215.5 322.225L143.5 285.25V267.85L215.5 230.875V253.225L169.15 276.1V277L215.5 299.875V322.225ZM234.641 325V217.6H265.991C274.991 217.6 282.766 219.725 289.316 223.975C295.916 228.225 300.991 234.25 304.541 242.05C308.141 249.8 309.941 259 309.941 269.65V272.95C309.941 283.55 308.141 292.75 304.541 300.55C300.991 308.35 295.916 314.375 289.316 318.625C282.766 322.875 274.991 325 265.991 325H234.641ZM257.591 303.4H265.691C272.591 303.4 277.766 300.9 281.216 295.9C284.666 290.85 286.391 283.325 286.391 273.325V269.275C286.391 259.275 284.641 251.775 281.141 246.775C277.691 241.725 272.541 239.2 265.691 239.2H257.591V303.4ZM363.208 327.55C354.958 327.55 347.783 325.85 341.683 322.45C335.583 319.05 330.858 314.275 327.508 308.125C324.158 301.925 322.483 294.675 322.483 286.375V284.725C322.483 276.475 324.158 269.275 327.508 263.125C330.908 256.925 335.633 252.125 341.683 248.725C347.733 245.275 354.758 243.55 362.758 243.55C369.958 243.55 376.233 245.05 381.583 248.05C386.933 251.05 391.083 255.3 394.033 260.8C397.033 266.25 398.533 272.65 398.533 280C398.533 282.15 398.458 284.15 398.308 286C398.158 287.8 397.908 289.425 397.558 290.875H334.258V277.675H377.833V278.125C377.833 272.925 376.508 268.875 373.858 265.975C371.208 263.025 367.558 261.55 362.908 261.55C357.108 261.55 352.508 263.65 349.108 267.85C345.758 272 344.083 277.725 344.083 285.025V286.075C344.083 293.225 345.783 298.875 349.183 303.025C352.633 307.175 357.308 309.25 363.208 309.25C370.458 309.25 375.633 305.7 378.733 298.6L398.008 306.625C395.008 313.325 390.508 318.5 384.508 322.15C378.508 325.75 371.408 327.55 363.208 327.55ZM439.274 325L410.324 246.1H434.324L446.024 281.95L450.899 302.65H451.574L456.449 281.95L467.549 246.1H491.324L462.374 325H439.274ZM543.091 327.55C534.841 327.55 527.666 325.85 521.566 322.45C515.466 319.05 510.741 314.275 507.391 308.125C504.041 301.925 502.366 294.675 502.366 286.375V284.725C502.366 276.475 504.041 269.275 507.391 263.125C510.791 256.925 515.516 252.125 521.566 248.725C527.616 245.275 534.641 243.55 542.641 243.55C549.841 243.55 556.116 245.05 561.466 248.05C566.816 251.05 570.966 255.3 573.916 260.8C576.916 266.25 578.416 272.65 578.416 280C578.416 282.15 578.341 284.15 578.191 286C578.041 287.8 577.791 289.425 577.441 290.875H514.141V277.675H557.716V278.125C557.716 272.925 556.391 268.875 553.741 265.975C551.091 263.025 547.441 261.55 542.791 261.55C536.991 261.55 532.391 263.65 528.991 267.85C525.641 272 523.966 277.725 523.966 285.025V286.075C523.966 293.225 525.666 298.875 529.066 303.025C532.516 307.175 537.191 309.25 543.091 309.25C550.341 309.25 555.516 305.7 558.616 298.6L577.891 306.625C574.891 313.325 570.391 318.5 564.391 322.15C558.391 325.75 551.291 327.55 543.091 327.55ZM645.107 327.55C635.007 327.55 627.107 324.75 621.407 319.15C615.757 313.5 612.932 305.7 612.932 295.75V215.5H635.657V294.1C635.657 302.9 639.532 307.3 647.282 307.3C649.382 307.3 651.307 306.9 653.057 306.1C654.857 305.3 656.757 303.975 658.757 302.125L670.607 318.1C667.007 321.35 663.157 323.725 659.057 325.225C655.007 326.775 650.357 327.55 645.107 327.55ZM591.107 233.05V215.5H630.032V233.05H591.107ZM720.648 327.55C712.998 327.55 706.223 325.8 700.323 322.3C694.423 318.75 689.798 313.875 686.448 307.675C683.148 301.475 681.498 294.375 681.498 286.375V284.725C681.498 276.725 683.148 269.625 686.448 263.425C689.798 257.225 694.423 252.375 700.323 248.875C706.223 245.325 712.998 243.55 720.648 243.55C728.298 243.55 735.048 245.325 740.898 248.875C746.798 252.375 751.423 257.225 754.773 263.425C758.123 269.625 759.798 276.725 759.798 284.725V286.375C759.798 294.375 758.123 301.475 754.773 307.675C751.423 313.875 746.798 318.75 740.898 322.3C735.048 325.8 728.298 327.55 720.648 327.55ZM720.648 307.6C725.698 307.6 729.723 305.65 732.723 301.75C735.773 297.85 737.298 292.625 737.298 286.075V285.025C737.298 278.475 735.773 273.25 732.723 269.35C729.723 265.45 725.698 263.5 720.648 263.5C715.598 263.5 711.548 265.45 708.498 269.35C705.498 273.25 703.998 278.475 703.998 285.025V286.075C703.998 292.625 705.498 297.85 708.498 301.75C711.548 305.65 715.598 307.6 720.648 307.6ZM819.665 243.55C825.465 243.55 830.54 245.275 834.89 248.725C839.24 252.175 842.615 257 845.015 263.2C847.465 269.4 848.69 276.65 848.69 284.95V286.15C848.69 294.45 847.49 301.725 845.09 307.975C842.74 314.175 839.415 319 835.115 322.45C830.865 325.85 825.865 327.55 820.115 327.55C815.265 327.55 810.99 326.425 807.29 324.175C803.59 321.875 800.415 318.5 797.765 314.05H797.09V355.6H774.44V246.1H796.34V257.8H797.015C799.365 253.3 802.515 249.8 806.465 247.3C810.415 244.8 814.815 243.55 819.665 243.55ZM811.565 262.3C806.965 262.3 803.29 264.35 800.54 268.45C797.79 272.55 796.415 278.075 796.415 285.025V286.075C796.415 293.025 797.79 298.55 800.54 302.65C803.29 306.75 806.94 308.8 811.49 308.8C816.14 308.8 819.715 306.875 822.215 303.025C824.765 299.125 826.04 293.625 826.04 286.525V284.65C826.04 277.5 824.765 272 822.215 268.15C819.715 264.25 816.165 262.3 811.565 262.3ZM902.856 327.55C894.606 327.55 887.431 325.85 881.331 322.45C875.231 319.05 870.506 314.275 867.156 308.125C863.806 301.925 862.131 294.675 862.131 286.375V284.725C862.131 276.475 863.806 269.275 867.156 263.125C870.556 256.925 875.281 252.125 881.331 248.725C887.381 245.275 894.406 243.55 902.406 243.55C909.606 243.55 915.881 245.05 921.231 248.05C926.581 251.05 930.731 255.3 933.681 260.8C936.681 266.25 938.181 272.65 938.181 280C938.181 282.15 938.106 284.15 937.956 286C937.806 287.8 937.556 289.425 937.206 290.875H873.906V277.675H917.481V278.125C917.481 272.925 916.156 268.875 913.506 265.975C910.856 263.025 907.206 261.55 902.556 261.55C896.756 261.55 892.156 263.65 888.756 267.85C885.406 272 883.731 277.725 883.731 285.025V286.075C883.731 293.225 885.431 298.875 888.831 303.025C892.281 307.175 896.956 309.25 902.856 309.25C910.106 309.25 915.281 305.7 918.381 298.6L937.656 306.625C934.656 313.325 930.156 318.5 924.156 322.15C918.156 325.75 911.056 327.55 902.856 327.55ZM967.748 316.75V246.1H986.723V264.1H987.773C990.123 257.45 993.473 252.375 997.823 248.875C1002.17 245.325 1007.27 243.55 1013.12 243.55C1017.12 243.55 1020.67 244.35 1023.77 245.95C1026.87 247.5 1030.02 250.125 1033.22 253.825L1019.5 270.25C1017.2 267.8 1015.02 266.1 1012.97 265.15C1010.97 264.15 1008.65 263.65 1006 263.65C1000.7 263.65 996.648 265.425 993.848 268.975C991.098 272.525 989.723 277.7 989.723 284.5V316.75H967.748ZM951.773 325V308.05H1015.22V325H951.773ZM953.273 263.05V246.1H977.798V263.05H953.273ZM1043.21 338.2L1095.34 215.5H1117.61L1065.49 338.2H1043.21ZM1135.86 322.225V299.875L1182.21 277V276.1L1135.86 253.225V230.875L1207.86 267.85V285.25L1135.86 322.225Z" fill="black"/>
<path d="M249.148 427.125V484H241.609V427.125H249.148ZM281.57 424H288.836V475.797L288.211 484H281.57V424ZM317.391 462.516V463.336C317.391 466.409 317.026 469.26 316.297 471.891C315.568 474.495 314.5 476.76 313.094 478.688C311.688 480.615 309.969 482.112 307.938 483.18C305.906 484.247 303.576 484.781 300.945 484.781C298.263 484.781 295.906 484.326 293.875 483.414C291.87 482.477 290.177 481.135 288.797 479.391C287.417 477.646 286.31 475.536 285.477 473.062C284.669 470.589 284.109 467.802 283.797 464.703V461.109C284.109 457.984 284.669 455.185 285.477 452.711C286.31 450.237 287.417 448.128 288.797 446.383C290.177 444.612 291.87 443.271 293.875 442.359C295.88 441.422 298.211 440.953 300.867 440.953C303.523 440.953 305.88 441.474 307.938 442.516C309.995 443.531 311.714 444.99 313.094 446.891C314.5 448.792 315.568 451.07 316.297 453.727C317.026 456.357 317.391 459.286 317.391 462.516ZM310.125 463.336V462.516C310.125 460.406 309.93 458.427 309.539 456.578C309.148 454.703 308.523 453.062 307.664 451.656C306.805 450.224 305.672 449.104 304.266 448.297C302.859 447.464 301.128 447.047 299.07 447.047C297.247 447.047 295.659 447.359 294.305 447.984C292.977 448.609 291.844 449.456 290.906 450.523C289.969 451.565 289.201 452.763 288.602 454.117C288.029 455.445 287.599 456.826 287.312 458.258V467.672C287.729 469.495 288.406 471.253 289.344 472.945C290.307 474.612 291.583 475.979 293.172 477.047C294.786 478.115 296.779 478.648 299.148 478.648C301.102 478.648 302.768 478.258 304.148 477.477C305.555 476.669 306.688 475.562 307.547 474.156C308.432 472.75 309.083 471.122 309.5 469.273C309.917 467.424 310.125 465.445 310.125 463.336ZM352.391 474.234V441.734H359.656V484H352.742L352.391 474.234ZM353.758 465.328L356.766 465.25C356.766 468.062 356.466 470.667 355.867 473.062C355.294 475.432 354.357 477.49 353.055 479.234C351.753 480.979 350.047 482.346 347.938 483.336C345.828 484.299 343.263 484.781 340.242 484.781C338.185 484.781 336.297 484.482 334.578 483.883C332.885 483.284 331.427 482.359 330.203 481.109C328.979 479.859 328.029 478.232 327.352 476.227C326.701 474.221 326.375 471.812 326.375 469V441.734H333.602V469.078C333.602 470.979 333.81 472.555 334.227 473.805C334.669 475.029 335.255 476.005 335.984 476.734C336.74 477.438 337.573 477.932 338.484 478.219C339.422 478.505 340.385 478.648 341.375 478.648C344.448 478.648 346.883 478.062 348.68 476.891C350.477 475.693 351.766 474.091 352.547 472.086C353.354 470.055 353.758 467.802 353.758 465.328ZM378.523 441.734V484H371.258V441.734H378.523ZM370.711 430.523C370.711 429.352 371.062 428.362 371.766 427.555C372.495 426.747 373.562 426.344 374.969 426.344C376.349 426.344 377.404 426.747 378.133 427.555C378.888 428.362 379.266 429.352 379.266 430.523C379.266 431.643 378.888 432.607 378.133 433.414C377.404 434.195 376.349 434.586 374.969 434.586C373.562 434.586 372.495 434.195 371.766 433.414C371.062 432.607 370.711 431.643 370.711 430.523ZM397.977 424V484H390.711V424H397.977ZM436.219 475.797V424H443.484V484H436.844L436.219 475.797ZM407.781 463.336V462.516C407.781 459.286 408.172 456.357 408.953 453.727C409.76 451.07 410.893 448.792 412.352 446.891C413.836 444.99 415.594 443.531 417.625 442.516C419.682 441.474 421.974 440.953 424.5 440.953C427.156 440.953 429.474 441.422 431.453 442.359C433.458 443.271 435.151 444.612 436.531 446.383C437.938 448.128 439.044 450.237 439.852 452.711C440.659 455.185 441.219 457.984 441.531 461.109V464.703C441.245 467.802 440.685 470.589 439.852 473.062C439.044 475.536 437.938 477.646 436.531 479.391C435.151 481.135 433.458 482.477 431.453 483.414C429.448 484.326 427.104 484.781 424.422 484.781C421.948 484.781 419.682 484.247 417.625 483.18C415.594 482.112 413.836 480.615 412.352 478.688C410.893 476.76 409.76 474.495 408.953 471.891C408.172 469.26 407.781 466.409 407.781 463.336ZM415.047 462.516V463.336C415.047 465.445 415.255 467.424 415.672 469.273C416.115 471.122 416.792 472.75 417.703 474.156C418.615 475.562 419.773 476.669 421.18 477.477C422.586 478.258 424.266 478.648 426.219 478.648C428.615 478.648 430.581 478.141 432.117 477.125C433.68 476.109 434.93 474.768 435.867 473.102C436.805 471.435 437.534 469.625 438.055 467.672V458.258C437.742 456.826 437.286 455.445 436.688 454.117C436.115 452.763 435.359 451.565 434.422 450.523C433.51 449.456 432.378 448.609 431.023 447.984C429.695 447.359 428.12 447.047 426.297 447.047C424.318 447.047 422.612 447.464 421.18 448.297C419.773 449.104 418.615 450.224 417.703 451.656C416.792 453.062 416.115 454.703 415.672 456.578C415.255 458.427 415.047 460.406 415.047 462.516ZM491.492 478.844C493.211 478.844 494.799 478.492 496.258 477.789C497.716 477.086 498.914 476.122 499.852 474.898C500.789 473.648 501.323 472.229 501.453 470.641H508.328C508.198 473.141 507.352 475.471 505.789 477.633C504.253 479.768 502.234 481.5 499.734 482.828C497.234 484.13 494.487 484.781 491.492 484.781C488.315 484.781 485.542 484.221 483.172 483.102C480.828 481.982 478.875 480.445 477.312 478.492C475.776 476.539 474.617 474.299 473.836 471.773C473.081 469.221 472.703 466.526 472.703 463.688V462.047C472.703 459.208 473.081 456.526 473.836 454C474.617 451.448 475.776 449.195 477.312 447.242C478.875 445.289 480.828 443.753 483.172 442.633C485.542 441.513 488.315 440.953 491.492 440.953C494.799 440.953 497.69 441.63 500.164 442.984C502.638 444.312 504.578 446.135 505.984 448.453C507.417 450.745 508.198 453.349 508.328 456.266H501.453C501.323 454.521 500.828 452.945 499.969 451.539C499.135 450.133 497.99 449.013 496.531 448.18C495.099 447.32 493.419 446.891 491.492 446.891C489.279 446.891 487.417 447.333 485.906 448.219C484.422 449.078 483.237 450.25 482.352 451.734C481.492 453.193 480.867 454.82 480.477 456.617C480.112 458.388 479.93 460.198 479.93 462.047V463.688C479.93 465.536 480.112 467.359 480.477 469.156C480.841 470.953 481.453 472.581 482.312 474.039C483.198 475.497 484.383 476.669 485.867 477.555C487.378 478.414 489.253 478.844 491.492 478.844ZM524.305 424V484H517.039V424H524.305ZM553.445 484.781C550.503 484.781 547.833 484.286 545.438 483.297C543.068 482.281 541.023 480.862 539.305 479.039C537.612 477.216 536.31 475.055 535.398 472.555C534.487 470.055 534.031 467.32 534.031 464.352V462.711C534.031 459.273 534.539 456.214 535.555 453.531C536.57 450.823 537.951 448.531 539.695 446.656C541.44 444.781 543.419 443.362 545.633 442.398C547.846 441.435 550.138 440.953 552.508 440.953C555.529 440.953 558.133 441.474 560.32 442.516C562.534 443.557 564.344 445.016 565.75 446.891C567.156 448.74 568.198 450.927 568.875 453.453C569.552 455.953 569.891 458.688 569.891 461.656V464.898H538.328V459H562.664V458.453C562.56 456.578 562.169 454.755 561.492 452.984C560.841 451.214 559.799 449.755 558.367 448.609C556.935 447.464 554.982 446.891 552.508 446.891C550.867 446.891 549.357 447.242 547.977 447.945C546.596 448.622 545.411 449.638 544.422 450.992C543.432 452.346 542.664 454 542.117 455.953C541.57 457.906 541.297 460.159 541.297 462.711V464.352C541.297 466.357 541.57 468.245 542.117 470.016C542.69 471.76 543.51 473.297 544.578 474.625C545.672 475.953 546.987 476.995 548.523 477.75C550.086 478.505 551.857 478.883 553.836 478.883C556.388 478.883 558.549 478.362 560.32 477.32C562.091 476.279 563.641 474.885 564.969 473.141L569.344 476.617C568.432 477.997 567.273 479.312 565.867 480.562C564.461 481.812 562.729 482.828 560.672 483.609C558.641 484.391 556.232 484.781 553.445 484.781ZM603.25 476.773V455.016C603.25 453.349 602.911 451.904 602.234 450.68C601.583 449.43 600.594 448.466 599.266 447.789C597.938 447.112 596.297 446.773 594.344 446.773C592.521 446.773 590.919 447.086 589.539 447.711C588.185 448.336 587.117 449.156 586.336 450.172C585.581 451.188 585.203 452.281 585.203 453.453H577.977C577.977 451.943 578.367 450.445 579.148 448.961C579.93 447.477 581.049 446.135 582.508 444.938C583.992 443.714 585.763 442.75 587.82 442.047C589.904 441.318 592.221 440.953 594.773 440.953C597.846 440.953 600.555 441.474 602.898 442.516C605.268 443.557 607.117 445.133 608.445 447.242C609.799 449.326 610.477 451.943 610.477 455.094V474.781C610.477 476.188 610.594 477.685 610.828 479.273C611.089 480.862 611.466 482.229 611.961 483.375V484H604.422C604.057 483.167 603.771 482.06 603.562 480.68C603.354 479.273 603.25 477.971 603.25 476.773ZM604.5 458.375L604.578 463.453H597.273C595.216 463.453 593.38 463.622 591.766 463.961C590.151 464.273 588.797 464.755 587.703 465.406C586.609 466.057 585.776 466.878 585.203 467.867C584.63 468.831 584.344 469.964 584.344 471.266C584.344 472.594 584.643 473.805 585.242 474.898C585.841 475.992 586.74 476.865 587.938 477.516C589.161 478.141 590.659 478.453 592.43 478.453C594.643 478.453 596.596 477.984 598.289 477.047C599.982 476.109 601.323 474.964 602.312 473.609C603.328 472.255 603.875 470.94 603.953 469.664L607.039 473.141C606.857 474.234 606.362 475.445 605.555 476.773C604.747 478.102 603.667 479.378 602.312 480.602C600.984 481.799 599.396 482.802 597.547 483.609C595.724 484.391 593.667 484.781 591.375 484.781C588.51 484.781 585.997 484.221 583.836 483.102C581.701 481.982 580.034 480.484 578.836 478.609C577.664 476.708 577.078 474.586 577.078 472.242C577.078 469.977 577.521 467.984 578.406 466.266C579.292 464.521 580.568 463.076 582.234 461.93C583.901 460.758 585.906 459.872 588.25 459.273C590.594 458.674 593.211 458.375 596.102 458.375H604.5ZM629.07 450.758V484H621.844V441.734H628.68L629.07 450.758ZM627.352 461.266L624.344 461.148C624.37 458.258 624.799 455.589 625.633 453.141C626.466 450.667 627.638 448.518 629.148 446.695C630.659 444.872 632.456 443.466 634.539 442.477C636.648 441.461 638.979 440.953 641.531 440.953C643.615 440.953 645.49 441.24 647.156 441.812C648.823 442.359 650.242 443.245 651.414 444.469C652.612 445.693 653.523 447.281 654.148 449.234C654.773 451.161 655.086 453.518 655.086 456.305V484H647.82V456.227C647.82 454.013 647.495 452.242 646.844 450.914C646.193 449.56 645.242 448.583 643.992 447.984C642.742 447.359 641.206 447.047 639.383 447.047C637.586 447.047 635.945 447.424 634.461 448.18C633.003 448.935 631.74 449.977 630.672 451.305C629.63 452.633 628.81 454.156 628.211 455.875C627.638 457.568 627.352 459.365 627.352 461.266ZM672.625 475.406V481.227C672.625 483.596 672.026 486.096 670.828 488.727C669.63 491.383 667.951 493.596 665.789 495.367L661.688 492.516C662.521 491.37 663.224 490.198 663.797 489C664.37 487.828 664.799 486.604 665.086 485.328C665.398 484.078 665.555 482.75 665.555 481.344V475.406H672.625ZM719.227 484.781C716.284 484.781 713.615 484.286 711.219 483.297C708.849 482.281 706.805 480.862 705.086 479.039C703.393 477.216 702.091 475.055 701.18 472.555C700.268 470.055 699.812 467.32 699.812 464.352V462.711C699.812 459.273 700.32 456.214 701.336 453.531C702.352 450.823 703.732 448.531 705.477 446.656C707.221 444.781 709.201 443.362 711.414 442.398C713.628 441.435 715.919 440.953 718.289 440.953C721.31 440.953 723.914 441.474 726.102 442.516C728.315 443.557 730.125 445.016 731.531 446.891C732.938 448.74 733.979 450.927 734.656 453.453C735.333 455.953 735.672 458.688 735.672 461.656V464.898H704.109V459H728.445V458.453C728.341 456.578 727.951 454.755 727.273 452.984C726.622 451.214 725.581 449.755 724.148 448.609C722.716 447.464 720.763 446.891 718.289 446.891C716.648 446.891 715.138 447.242 713.758 447.945C712.378 448.622 711.193 449.638 710.203 450.992C709.214 452.346 708.445 454 707.898 455.953C707.352 457.906 707.078 460.159 707.078 462.711V464.352C707.078 466.357 707.352 468.245 707.898 470.016C708.471 471.76 709.292 473.297 710.359 474.625C711.453 475.953 712.768 476.995 714.305 477.75C715.867 478.505 717.638 478.883 719.617 478.883C722.169 478.883 724.331 478.362 726.102 477.32C727.872 476.279 729.422 474.885 730.75 473.141L735.125 476.617C734.214 477.997 733.055 479.312 731.648 480.562C730.242 481.812 728.51 482.828 726.453 483.609C724.422 484.391 722.013 484.781 719.227 484.781ZM754.891 484H747.664V437.281C747.664 434.234 748.211 431.669 749.305 429.586C750.424 427.477 752.026 425.888 754.109 424.82C756.193 423.727 758.667 423.18 761.531 423.18C762.365 423.18 763.198 423.232 764.031 423.336C764.891 423.44 765.724 423.596 766.531 423.805L766.141 429.703C765.594 429.573 764.969 429.482 764.266 429.43C763.589 429.378 762.911 429.352 762.234 429.352C760.698 429.352 759.37 429.664 758.25 430.289C757.156 430.888 756.323 431.773 755.75 432.945C755.177 434.117 754.891 435.562 754.891 437.281V484ZM764.266 441.734V447.281H740.984V441.734H764.266ZM777.742 484H770.516V438.062C770.516 434.859 771.128 432.151 772.352 429.938C773.602 427.724 775.385 426.044 777.703 424.898C780.021 423.753 782.768 423.18 785.945 423.18C787.846 423.18 789.695 423.414 791.492 423.883C793.289 424.326 795.138 424.885 797.039 425.562L795.789 431.656C794.617 431.188 793.237 430.745 791.648 430.328C790.06 429.885 788.341 429.664 786.492 429.664C783.393 429.664 781.154 430.367 779.773 431.773C778.419 433.154 777.742 435.25 777.742 438.062V484ZM786.375 441.734V447.281H763.836V441.734H786.375ZM800.594 441.734V484H793.367V441.734H800.594ZM829.305 478.844C831.023 478.844 832.612 478.492 834.07 477.789C835.529 477.086 836.727 476.122 837.664 474.898C838.602 473.648 839.135 472.229 839.266 470.641H846.141C846.01 473.141 845.164 475.471 843.602 477.633C842.065 479.768 840.047 481.5 837.547 482.828C835.047 484.13 832.299 484.781 829.305 484.781C826.128 484.781 823.354 484.221 820.984 483.102C818.641 481.982 816.688 480.445 815.125 478.492C813.589 476.539 812.43 474.299 811.648 471.773C810.893 469.221 810.516 466.526 810.516 463.688V462.047C810.516 459.208 810.893 456.526 811.648 454C812.43 451.448 813.589 449.195 815.125 447.242C816.688 445.289 818.641 443.753 820.984 442.633C823.354 441.513 826.128 440.953 829.305 440.953C832.612 440.953 835.503 441.63 837.977 442.984C840.451 444.312 842.391 446.135 843.797 448.453C845.229 450.745 846.01 453.349 846.141 456.266H839.266C839.135 454.521 838.641 452.945 837.781 451.539C836.948 450.133 835.802 449.013 834.344 448.18C832.911 447.32 831.232 446.891 829.305 446.891C827.091 446.891 825.229 447.333 823.719 448.219C822.234 449.078 821.049 450.25 820.164 451.734C819.305 453.193 818.68 454.82 818.289 456.617C817.924 458.388 817.742 460.198 817.742 462.047V463.688C817.742 465.536 817.924 467.359 818.289 469.156C818.654 470.953 819.266 472.581 820.125 474.039C821.01 475.497 822.195 476.669 823.68 477.555C825.19 478.414 827.065 478.844 829.305 478.844ZM862.117 441.734V484H854.852V441.734H862.117ZM854.305 430.523C854.305 429.352 854.656 428.362 855.359 427.555C856.089 426.747 857.156 426.344 858.562 426.344C859.943 426.344 860.997 426.747 861.727 427.555C862.482 428.362 862.859 429.352 862.859 430.523C862.859 431.643 862.482 432.607 861.727 433.414C860.997 434.195 859.943 434.586 858.562 434.586C857.156 434.586 856.089 434.195 855.359 433.414C854.656 432.607 854.305 431.643 854.305 430.523ZM891.258 484.781C888.315 484.781 885.646 484.286 883.25 483.297C880.88 482.281 878.836 480.862 877.117 479.039C875.424 477.216 874.122 475.055 873.211 472.555C872.299 470.055 871.844 467.32 871.844 464.352V462.711C871.844 459.273 872.352 456.214 873.367 453.531C874.383 450.823 875.763 448.531 877.508 446.656C879.253 444.781 881.232 443.362 883.445 442.398C885.659 441.435 887.951 440.953 890.32 440.953C893.341 440.953 895.945 441.474 898.133 442.516C900.346 443.557 902.156 445.016 903.562 446.891C904.969 448.74 906.01 450.927 906.688 453.453C907.365 455.953 907.703 458.688 907.703 461.656V464.898H876.141V459H900.477V458.453C900.372 456.578 899.982 454.755 899.305 452.984C898.654 451.214 897.612 449.755 896.18 448.609C894.747 447.464 892.794 446.891 890.32 446.891C888.68 446.891 887.169 447.242 885.789 447.945C884.409 448.622 883.224 449.638 882.234 450.992C881.245 452.346 880.477 454 879.93 455.953C879.383 457.906 879.109 460.159 879.109 462.711V464.352C879.109 466.357 879.383 468.245 879.93 470.016C880.503 471.76 881.323 473.297 882.391 474.625C883.484 475.953 884.799 476.995 886.336 477.75C887.898 478.505 889.669 478.883 891.648 478.883C894.201 478.883 896.362 478.362 898.133 477.32C899.904 476.279 901.453 474.885 902.781 473.141L907.156 476.617C906.245 477.997 905.086 479.312 903.68 480.562C902.273 481.812 900.542 482.828 898.484 483.609C896.453 484.391 894.044 484.781 891.258 484.781ZM923.367 450.758V484H916.141V441.734H922.977L923.367 450.758ZM921.648 461.266L918.641 461.148C918.667 458.258 919.096 455.589 919.93 453.141C920.763 450.667 921.935 448.518 923.445 446.695C924.956 444.872 926.753 443.466 928.836 442.477C930.945 441.461 933.276 440.953 935.828 440.953C937.911 440.953 939.786 441.24 941.453 441.812C943.12 442.359 944.539 443.245 945.711 444.469C946.909 445.693 947.82 447.281 948.445 449.234C949.07 451.161 949.383 453.518 949.383 456.305V484H942.117V456.227C942.117 454.013 941.792 452.242 941.141 450.914C940.49 449.56 939.539 448.583 938.289 447.984C937.039 447.359 935.503 447.047 933.68 447.047C931.883 447.047 930.242 447.424 928.758 448.18C927.299 448.935 926.036 449.977 924.969 451.305C923.927 452.633 923.107 454.156 922.508 455.875C921.935 457.568 921.648 459.365 921.648 461.266ZM978.055 441.734V447.281H955.203V441.734H978.055ZM962.938 431.461H970.164V473.531C970.164 474.964 970.385 476.044 970.828 476.773C971.271 477.503 971.844 477.984 972.547 478.219C973.25 478.453 974.005 478.57 974.812 478.57C975.411 478.57 976.036 478.518 976.688 478.414C977.365 478.284 977.872 478.18 978.211 478.102L978.25 484C977.677 484.182 976.922 484.352 975.984 484.508C975.073 484.69 973.966 484.781 972.664 484.781C970.893 484.781 969.266 484.43 967.781 483.727C966.297 483.023 965.112 481.852 964.227 480.211C963.367 478.544 962.938 476.305 962.938 473.492V431.461ZM993.094 475.406V481.227C993.094 483.596 992.495 486.096 991.297 488.727C990.099 491.383 988.419 493.596 986.258 495.367L982.156 492.516C982.99 491.37 983.693 490.198 984.266 489C984.839 487.828 985.268 486.604 985.555 485.328C985.867 484.078 986.023 482.75 986.023 481.344V475.406H993.094ZM1047.08 476.773V455.016C1047.08 453.349 1046.74 451.904 1046.06 450.68C1045.41 449.43 1044.42 448.466 1043.09 447.789C1041.77 447.112 1040.12 446.773 1038.17 446.773C1036.35 446.773 1034.75 447.086 1033.37 447.711C1032.01 448.336 1030.95 449.156 1030.16 450.172C1029.41 451.188 1029.03 452.281 1029.03 453.453H1021.8C1021.8 451.943 1022.2 450.445 1022.98 448.961C1023.76 447.477 1024.88 446.135 1026.34 444.938C1027.82 443.714 1029.59 442.75 1031.65 442.047C1033.73 441.318 1036.05 440.953 1038.6 440.953C1041.67 440.953 1044.38 441.474 1046.73 442.516C1049.1 443.557 1050.95 445.133 1052.27 447.242C1053.63 449.326 1054.3 451.943 1054.3 455.094V474.781C1054.3 476.188 1054.42 477.685 1054.66 479.273C1054.92 480.862 1055.29 482.229 1055.79 483.375V484H1048.25C1047.89 483.167 1047.6 482.06 1047.39 480.68C1047.18 479.273 1047.08 477.971 1047.08 476.773ZM1048.33 458.375L1048.41 463.453H1041.1C1039.04 463.453 1037.21 463.622 1035.59 463.961C1033.98 464.273 1032.62 464.755 1031.53 465.406C1030.44 466.057 1029.6 466.878 1029.03 467.867C1028.46 468.831 1028.17 469.964 1028.17 471.266C1028.17 472.594 1028.47 473.805 1029.07 474.898C1029.67 475.992 1030.57 476.865 1031.77 477.516C1032.99 478.141 1034.49 478.453 1036.26 478.453C1038.47 478.453 1040.42 477.984 1042.12 477.047C1043.81 476.109 1045.15 474.964 1046.14 473.609C1047.16 472.255 1047.7 470.94 1047.78 469.664L1050.87 473.141C1050.68 474.234 1050.19 475.445 1049.38 476.773C1048.58 478.102 1047.49 479.378 1046.14 480.602C1044.81 481.799 1043.22 482.802 1041.38 483.609C1039.55 484.391 1037.49 484.781 1035.2 484.781C1032.34 484.781 1029.83 484.221 1027.66 483.102C1025.53 481.982 1023.86 480.484 1022.66 478.609C1021.49 476.708 1020.91 474.586 1020.91 472.242C1020.91 469.977 1021.35 467.984 1022.23 466.266C1023.12 464.521 1024.4 463.076 1026.06 461.93C1027.73 460.758 1029.73 459.872 1032.08 459.273C1034.42 458.674 1037.04 458.375 1039.93 458.375H1048.33ZM1072.9 450.758V484H1065.67V441.734H1072.51L1072.9 450.758ZM1071.18 461.266L1068.17 461.148C1068.2 458.258 1068.63 455.589 1069.46 453.141C1070.29 450.667 1071.47 448.518 1072.98 446.695C1074.49 444.872 1076.28 443.466 1078.37 442.477C1080.48 441.461 1082.81 440.953 1085.36 440.953C1087.44 440.953 1089.32 441.24 1090.98 441.812C1092.65 442.359 1094.07 443.245 1095.24 444.469C1096.44 445.693 1097.35 447.281 1097.98 449.234C1098.6 451.161 1098.91 453.518 1098.91 456.305V484H1091.65V456.227C1091.65 454.013 1091.32 452.242 1090.67 450.914C1090.02 449.56 1089.07 448.583 1087.82 447.984C1086.57 447.359 1085.03 447.047 1083.21 447.047C1081.41 447.047 1079.77 447.424 1078.29 448.18C1076.83 448.935 1075.57 449.977 1074.5 451.305C1073.46 452.633 1072.64 454.156 1072.04 455.875C1071.47 457.568 1071.18 459.365 1071.18 461.266ZM1136.53 475.797V424H1143.8V484H1137.16L1136.53 475.797ZM1108.09 463.336V462.516C1108.09 459.286 1108.48 456.357 1109.27 453.727C1110.07 451.07 1111.21 448.792 1112.66 446.891C1114.15 444.99 1115.91 443.531 1117.94 442.516C1119.99 441.474 1122.29 440.953 1124.81 440.953C1127.47 440.953 1129.79 441.422 1131.77 442.359C1133.77 443.271 1135.46 444.612 1136.84 446.383C1138.25 448.128 1139.36 450.237 1140.16 452.711C1140.97 455.185 1141.53 457.984 1141.84 461.109V464.703C1141.56 467.802 1141 470.589 1140.16 473.062C1139.36 475.536 1138.25 477.646 1136.84 479.391C1135.46 481.135 1133.77 482.477 1131.77 483.414C1129.76 484.326 1127.42 484.781 1124.73 484.781C1122.26 484.781 1119.99 484.247 1117.94 483.18C1115.91 482.112 1114.15 480.615 1112.66 478.688C1111.21 476.76 1110.07 474.495 1109.27 471.891C1108.48 469.26 1108.09 466.409 1108.09 463.336ZM1115.36 462.516V463.336C1115.36 465.445 1115.57 467.424 1115.98 469.273C1116.43 471.122 1117.1 472.75 1118.02 474.156C1118.93 475.562 1120.09 476.669 1121.49 477.477C1122.9 478.258 1124.58 478.648 1126.53 478.648C1128.93 478.648 1130.89 478.141 1132.43 477.125C1133.99 476.109 1135.24 474.768 1136.18 473.102C1137.12 471.435 1137.85 469.625 1138.37 467.672V458.258C1138.05 456.826 1137.6 455.445 1137 454.117C1136.43 452.763 1135.67 451.565 1134.73 450.523C1133.82 449.456 1132.69 448.609 1131.34 447.984C1130.01 447.359 1128.43 447.047 1126.61 447.047C1124.63 447.047 1122.92 447.464 1121.49 448.297C1120.09 449.104 1118.93 450.224 1118.02 451.656C1117.1 453.062 1116.43 454.703 1115.98 456.578C1115.57 458.427 1115.36 460.406 1115.36 462.516ZM249.148 566.789C249.148 565.747 248.914 564.784 248.445 563.898C248.003 562.987 247.078 562.167 245.672 561.438C244.292 560.682 242.208 560.031 239.422 559.484C237.078 558.99 234.956 558.404 233.055 557.727C231.18 557.049 229.578 556.229 228.25 555.266C226.948 554.302 225.945 553.169 225.242 551.867C224.539 550.565 224.188 549.042 224.188 547.297C224.188 545.63 224.552 544.055 225.281 542.57C226.036 541.086 227.091 539.771 228.445 538.625C229.826 537.479 231.479 536.581 233.406 535.93C235.333 535.279 237.482 534.953 239.852 534.953C243.237 534.953 246.128 535.552 248.523 536.75C250.919 537.948 252.755 539.549 254.031 541.555C255.307 543.534 255.945 545.734 255.945 548.156H248.719C248.719 546.984 248.367 545.852 247.664 544.758C246.987 543.638 245.984 542.714 244.656 541.984C243.354 541.255 241.753 540.891 239.852 540.891C237.846 540.891 236.219 541.203 234.969 541.828C233.745 542.427 232.846 543.195 232.273 544.133C231.727 545.07 231.453 546.06 231.453 547.102C231.453 547.883 231.583 548.586 231.844 549.211C232.13 549.81 232.625 550.37 233.328 550.891C234.031 551.385 235.021 551.854 236.297 552.297C237.573 552.74 239.201 553.182 241.18 553.625C244.643 554.406 247.495 555.344 249.734 556.438C251.974 557.531 253.641 558.872 254.734 560.461C255.828 562.049 256.375 563.977 256.375 566.242C256.375 568.091 255.984 569.784 255.203 571.32C254.448 572.857 253.341 574.185 251.883 575.305C250.451 576.398 248.732 577.258 246.727 577.883C244.747 578.482 242.521 578.781 240.047 578.781C236.323 578.781 233.172 578.117 230.594 576.789C228.016 575.461 226.062 573.742 224.734 571.633C223.406 569.523 222.742 567.297 222.742 564.953H230.008C230.112 566.932 230.685 568.508 231.727 569.68C232.768 570.826 234.044 571.646 235.555 572.141C237.065 572.609 238.562 572.844 240.047 572.844C242.026 572.844 243.68 572.583 245.008 572.062C246.362 571.542 247.391 570.826 248.094 569.914C248.797 569.003 249.148 567.961 249.148 566.789ZM282.781 572.844C284.5 572.844 286.089 572.492 287.547 571.789C289.005 571.086 290.203 570.122 291.141 568.898C292.078 567.648 292.612 566.229 292.742 564.641H299.617C299.487 567.141 298.641 569.471 297.078 571.633C295.542 573.768 293.523 575.5 291.023 576.828C288.523 578.13 285.776 578.781 282.781 578.781C279.604 578.781 276.831 578.221 274.461 577.102C272.117 575.982 270.164 574.445 268.602 572.492C267.065 570.539 265.906 568.299 265.125 565.773C264.37 563.221 263.992 560.526 263.992 557.688V556.047C263.992 553.208 264.37 550.526 265.125 548C265.906 545.448 267.065 543.195 268.602 541.242C270.164 539.289 272.117 537.753 274.461 536.633C276.831 535.513 279.604 534.953 282.781 534.953C286.089 534.953 288.979 535.63 291.453 536.984C293.927 538.312 295.867 540.135 297.273 542.453C298.706 544.745 299.487 547.349 299.617 550.266H292.742C292.612 548.521 292.117 546.945 291.258 545.539C290.424 544.133 289.279 543.013 287.82 542.18C286.388 541.32 284.708 540.891 282.781 540.891C280.568 540.891 278.706 541.333 277.195 542.219C275.711 543.078 274.526 544.25 273.641 545.734C272.781 547.193 272.156 548.82 271.766 550.617C271.401 552.388 271.219 554.198 271.219 556.047V557.688C271.219 559.536 271.401 561.359 271.766 563.156C272.13 564.953 272.742 566.581 273.602 568.039C274.487 569.497 275.672 570.669 277.156 571.555C278.667 572.414 280.542 572.844 282.781 572.844ZM332.664 570.773V549.016C332.664 547.349 332.326 545.904 331.648 544.68C330.997 543.43 330.008 542.466 328.68 541.789C327.352 541.112 325.711 540.773 323.758 540.773C321.935 540.773 320.333 541.086 318.953 541.711C317.599 542.336 316.531 543.156 315.75 544.172C314.995 545.188 314.617 546.281 314.617 547.453H307.391C307.391 545.943 307.781 544.445 308.562 542.961C309.344 541.477 310.464 540.135 311.922 538.938C313.406 537.714 315.177 536.75 317.234 536.047C319.318 535.318 321.635 534.953 324.188 534.953C327.26 534.953 329.969 535.474 332.312 536.516C334.682 537.557 336.531 539.133 337.859 541.242C339.214 543.326 339.891 545.943 339.891 549.094V568.781C339.891 570.188 340.008 571.685 340.242 573.273C340.503 574.862 340.88 576.229 341.375 577.375V578H333.836C333.471 577.167 333.185 576.06 332.977 574.68C332.768 573.273 332.664 571.971 332.664 570.773ZM333.914 552.375L333.992 557.453H326.688C324.63 557.453 322.794 557.622 321.18 557.961C319.565 558.273 318.211 558.755 317.117 559.406C316.023 560.057 315.19 560.878 314.617 561.867C314.044 562.831 313.758 563.964 313.758 565.266C313.758 566.594 314.057 567.805 314.656 568.898C315.255 569.992 316.154 570.865 317.352 571.516C318.576 572.141 320.073 572.453 321.844 572.453C324.057 572.453 326.01 571.984 327.703 571.047C329.396 570.109 330.737 568.964 331.727 567.609C332.742 566.255 333.289 564.94 333.367 563.664L336.453 567.141C336.271 568.234 335.776 569.445 334.969 570.773C334.161 572.102 333.081 573.378 331.727 574.602C330.398 575.799 328.81 576.802 326.961 577.609C325.138 578.391 323.081 578.781 320.789 578.781C317.924 578.781 315.411 578.221 313.25 577.102C311.115 575.982 309.448 574.484 308.25 572.609C307.078 570.708 306.492 568.586 306.492 566.242C306.492 563.977 306.935 561.984 307.82 560.266C308.706 558.521 309.982 557.076 311.648 555.93C313.315 554.758 315.32 553.872 317.664 553.273C320.008 552.674 322.625 552.375 325.516 552.375H333.914ZM359.109 518V578H351.844V518H359.109ZM395.633 570.773V549.016C395.633 547.349 395.294 545.904 394.617 544.68C393.966 543.43 392.977 542.466 391.648 541.789C390.32 541.112 388.68 540.773 386.727 540.773C384.904 540.773 383.302 541.086 381.922 541.711C380.568 542.336 379.5 543.156 378.719 544.172C377.964 545.188 377.586 546.281 377.586 547.453H370.359C370.359 545.943 370.75 544.445 371.531 542.961C372.312 541.477 373.432 540.135 374.891 538.938C376.375 537.714 378.146 536.75 380.203 536.047C382.286 535.318 384.604 534.953 387.156 534.953C390.229 534.953 392.938 535.474 395.281 536.516C397.651 537.557 399.5 539.133 400.828 541.242C402.182 543.326 402.859 545.943 402.859 549.094V568.781C402.859 570.188 402.977 571.685 403.211 573.273C403.471 574.862 403.849 576.229 404.344 577.375V578H396.805C396.44 577.167 396.154 576.06 395.945 574.68C395.737 573.273 395.633 571.971 395.633 570.773ZM396.883 552.375L396.961 557.453H389.656C387.599 557.453 385.763 557.622 384.148 557.961C382.534 558.273 381.18 558.755 380.086 559.406C378.992 560.057 378.159 560.878 377.586 561.867C377.013 562.831 376.727 563.964 376.727 565.266C376.727 566.594 377.026 567.805 377.625 568.898C378.224 569.992 379.122 570.865 380.32 571.516C381.544 572.141 383.042 572.453 384.812 572.453C387.026 572.453 388.979 571.984 390.672 571.047C392.365 570.109 393.706 568.964 394.695 567.609C395.711 566.255 396.258 564.94 396.336 563.664L399.422 567.141C399.24 568.234 398.745 569.445 397.938 570.773C397.13 572.102 396.049 573.378 394.695 574.602C393.367 575.799 391.779 576.802 389.93 577.609C388.107 578.391 386.049 578.781 383.758 578.781C380.893 578.781 378.38 578.221 376.219 577.102C374.083 575.982 372.417 574.484 371.219 572.609C370.047 570.708 369.461 568.586 369.461 566.242C369.461 563.977 369.904 561.984 370.789 560.266C371.674 558.521 372.951 557.076 374.617 555.93C376.284 554.758 378.289 553.872 380.633 553.273C382.977 552.674 385.594 552.375 388.484 552.375H396.883ZM414.188 518H421.453V569.797L420.828 578H414.188V518ZM450.008 556.516V557.336C450.008 560.409 449.643 563.26 448.914 565.891C448.185 568.495 447.117 570.76 445.711 572.688C444.305 574.615 442.586 576.112 440.555 577.18C438.523 578.247 436.193 578.781 433.562 578.781C430.88 578.781 428.523 578.326 426.492 577.414C424.487 576.477 422.794 575.135 421.414 573.391C420.034 571.646 418.927 569.536 418.094 567.062C417.286 564.589 416.727 561.802 416.414 558.703V555.109C416.727 551.984 417.286 549.185 418.094 546.711C418.927 544.237 420.034 542.128 421.414 540.383C422.794 538.612 424.487 537.271 426.492 536.359C428.497 535.422 430.828 534.953 433.484 534.953C436.141 534.953 438.497 535.474 440.555 536.516C442.612 537.531 444.331 538.99 445.711 540.891C447.117 542.792 448.185 545.07 448.914 547.727C449.643 550.357 450.008 553.286 450.008 556.516ZM442.742 557.336V556.516C442.742 554.406 442.547 552.427 442.156 550.578C441.766 548.703 441.141 547.062 440.281 545.656C439.422 544.224 438.289 543.104 436.883 542.297C435.477 541.464 433.745 541.047 431.688 541.047C429.865 541.047 428.276 541.359 426.922 541.984C425.594 542.609 424.461 543.456 423.523 544.523C422.586 545.565 421.818 546.763 421.219 548.117C420.646 549.445 420.216 550.826 419.93 552.258V561.672C420.346 563.495 421.023 565.253 421.961 566.945C422.924 568.612 424.201 569.979 425.789 571.047C427.404 572.115 429.396 572.648 431.766 572.648C433.719 572.648 435.385 572.258 436.766 571.477C438.172 570.669 439.305 569.562 440.164 568.156C441.049 566.75 441.701 565.122 442.117 563.273C442.534 561.424 442.742 559.445 442.742 557.336ZM467 518V578H459.734V518H467ZM496.141 578.781C493.198 578.781 490.529 578.286 488.133 577.297C485.763 576.281 483.719 574.862 482 573.039C480.307 571.216 479.005 569.055 478.094 566.555C477.182 564.055 476.727 561.32 476.727 558.352V556.711C476.727 553.273 477.234 550.214 478.25 547.531C479.266 544.823 480.646 542.531 482.391 540.656C484.135 538.781 486.115 537.362 488.328 536.398C490.542 535.435 492.833 534.953 495.203 534.953C498.224 534.953 500.828 535.474 503.016 536.516C505.229 537.557 507.039 539.016 508.445 540.891C509.852 542.74 510.893 544.927 511.57 547.453C512.247 549.953 512.586 552.688 512.586 555.656V558.898H481.023V553H505.359V552.453C505.255 550.578 504.865 548.755 504.188 546.984C503.536 545.214 502.495 543.755 501.062 542.609C499.63 541.464 497.677 540.891 495.203 540.891C493.562 540.891 492.052 541.242 490.672 541.945C489.292 542.622 488.107 543.638 487.117 544.992C486.128 546.346 485.359 548 484.812 549.953C484.266 551.906 483.992 554.159 483.992 556.711V558.352C483.992 560.357 484.266 562.245 484.812 564.016C485.385 565.76 486.206 567.297 487.273 568.625C488.367 569.953 489.682 570.995 491.219 571.75C492.781 572.505 494.552 572.883 496.531 572.883C499.083 572.883 501.245 572.362 503.016 571.32C504.786 570.279 506.336 568.885 507.664 567.141L512.039 570.617C511.128 571.997 509.969 573.312 508.562 574.562C507.156 575.812 505.424 576.828 503.367 577.609C501.336 578.391 498.927 578.781 496.141 578.781ZM551.648 578H544.422V531.281C544.422 528.234 544.969 525.669 546.062 523.586C547.182 521.477 548.784 519.888 550.867 518.82C552.951 517.727 555.424 517.18 558.289 517.18C559.122 517.18 559.956 517.232 560.789 517.336C561.648 517.44 562.482 517.596 563.289 517.805L562.898 523.703C562.352 523.573 561.727 523.482 561.023 523.43C560.346 523.378 559.669 523.352 558.992 523.352C557.456 523.352 556.128 523.664 555.008 524.289C553.914 524.888 553.081 525.773 552.508 526.945C551.935 528.117 551.648 529.562 551.648 531.281V578ZM560.633 535.734V541.281H537.742V535.734H560.633ZM575.906 542.375V578H568.68V535.734H575.711L575.906 542.375ZM589.109 535.5L589.07 542.219C588.471 542.089 587.898 542.01 587.352 541.984C586.831 541.932 586.232 541.906 585.555 541.906C583.888 541.906 582.417 542.167 581.141 542.688C579.865 543.208 578.784 543.938 577.898 544.875C577.013 545.812 576.31 546.932 575.789 548.234C575.294 549.51 574.969 550.917 574.812 552.453L572.781 553.625C572.781 551.073 573.029 548.677 573.523 546.438C574.044 544.198 574.839 542.219 575.906 540.5C576.974 538.755 578.328 537.401 579.969 536.438C581.635 535.448 583.615 534.953 585.906 534.953C586.427 534.953 587.026 535.018 587.703 535.148C588.38 535.253 588.849 535.37 589.109 535.5ZM593.094 557.336V556.438C593.094 553.391 593.536 550.565 594.422 547.961C595.307 545.331 596.583 543.052 598.25 541.125C599.917 539.172 601.935 537.661 604.305 536.594C606.674 535.5 609.331 534.953 612.273 534.953C615.242 534.953 617.911 535.5 620.281 536.594C622.677 537.661 624.708 539.172 626.375 541.125C628.068 543.052 629.357 545.331 630.242 547.961C631.128 550.565 631.57 553.391 631.57 556.438V557.336C631.57 560.383 631.128 563.208 630.242 565.812C629.357 568.417 628.068 570.695 626.375 572.648C624.708 574.576 622.69 576.086 620.32 577.18C617.977 578.247 615.32 578.781 612.352 578.781C609.383 578.781 606.714 578.247 604.344 577.18C601.974 576.086 599.943 574.576 598.25 572.648C596.583 570.695 595.307 568.417 594.422 565.812C593.536 563.208 593.094 560.383 593.094 557.336ZM600.32 556.438V557.336C600.32 559.445 600.568 561.438 601.062 563.312C601.557 565.161 602.299 566.802 603.289 568.234C604.305 569.667 605.568 570.799 607.078 571.633C608.589 572.44 610.346 572.844 612.352 572.844C614.331 572.844 616.062 572.44 617.547 571.633C619.057 570.799 620.307 569.667 621.297 568.234C622.286 566.802 623.029 565.161 623.523 563.312C624.044 561.438 624.305 559.445 624.305 557.336V556.438C624.305 554.354 624.044 552.388 623.523 550.539C623.029 548.664 622.273 547.01 621.258 545.578C620.268 544.12 619.018 542.974 617.508 542.141C616.023 541.307 614.279 540.891 612.273 540.891C610.294 540.891 608.549 541.307 607.039 542.141C605.555 542.974 604.305 544.12 603.289 545.578C602.299 547.01 601.557 548.664 601.062 550.539C600.568 552.388 600.32 554.354 600.32 556.438ZM647.859 544.758V578H640.633V535.734H647.469L647.859 544.758ZM646.141 555.266L643.133 555.148C643.159 552.258 643.589 549.589 644.422 547.141C645.255 544.667 646.427 542.518 647.938 540.695C649.448 538.872 651.245 537.466 653.328 536.477C655.438 535.461 657.768 534.953 660.32 534.953C662.404 534.953 664.279 535.24 665.945 535.812C667.612 536.359 669.031 537.245 670.203 538.469C671.401 539.693 672.312 541.281 672.938 543.234C673.562 545.161 673.875 547.518 673.875 550.305V578H666.609V550.227C666.609 548.013 666.284 546.242 665.633 544.914C664.982 543.56 664.031 542.583 662.781 541.984C661.531 541.359 659.995 541.047 658.172 541.047C656.375 541.047 654.734 541.424 653.25 542.18C651.792 542.935 650.529 543.977 649.461 545.305C648.419 546.633 647.599 548.156 647 549.875C646.427 551.568 646.141 553.365 646.141 555.266ZM702.547 535.734V541.281H679.695V535.734H702.547ZM687.43 525.461H694.656V567.531C694.656 568.964 694.878 570.044 695.32 570.773C695.763 571.503 696.336 571.984 697.039 572.219C697.742 572.453 698.497 572.57 699.305 572.57C699.904 572.57 700.529 572.518 701.18 572.414C701.857 572.284 702.365 572.18 702.703 572.102L702.742 578C702.169 578.182 701.414 578.352 700.477 578.508C699.565 578.69 698.458 578.781 697.156 578.781C695.385 578.781 693.758 578.43 692.273 577.727C690.789 577.023 689.604 575.852 688.719 574.211C687.859 572.544 687.43 570.305 687.43 567.492V525.461ZM726.062 550.852V556.789H707V550.852H726.062ZM750.672 578.781C747.729 578.781 745.06 578.286 742.664 577.297C740.294 576.281 738.25 574.862 736.531 573.039C734.839 571.216 733.536 569.055 732.625 566.555C731.714 564.055 731.258 561.32 731.258 558.352V556.711C731.258 553.273 731.766 550.214 732.781 547.531C733.797 544.823 735.177 542.531 736.922 540.656C738.667 538.781 740.646 537.362 742.859 536.398C745.073 535.435 747.365 534.953 749.734 534.953C752.755 534.953 755.359 535.474 757.547 536.516C759.76 537.557 761.57 539.016 762.977 540.891C764.383 542.74 765.424 544.927 766.102 547.453C766.779 549.953 767.117 552.688 767.117 555.656V558.898H735.555V553H759.891V552.453C759.786 550.578 759.396 548.755 758.719 546.984C758.068 545.214 757.026 543.755 755.594 542.609C754.161 541.464 752.208 540.891 749.734 540.891C748.094 540.891 746.583 541.242 745.203 541.945C743.823 542.622 742.638 543.638 741.648 544.992C740.659 546.346 739.891 548 739.344 549.953C738.797 551.906 738.523 554.159 738.523 556.711V558.352C738.523 560.357 738.797 562.245 739.344 564.016C739.917 565.76 740.737 567.297 741.805 568.625C742.898 569.953 744.214 570.995 745.75 571.75C747.312 572.505 749.083 572.883 751.062 572.883C753.615 572.883 755.776 572.362 757.547 571.32C759.318 570.279 760.867 568.885 762.195 567.141L766.57 570.617C765.659 571.997 764.5 573.312 763.094 574.562C761.688 575.812 759.956 576.828 757.898 577.609C755.867 578.391 753.458 578.781 750.672 578.781ZM782.781 544.758V578H775.555V535.734H782.391L782.781 544.758ZM781.062 555.266L778.055 555.148C778.081 552.258 778.51 549.589 779.344 547.141C780.177 544.667 781.349 542.518 782.859 540.695C784.37 538.872 786.167 537.466 788.25 536.477C790.359 535.461 792.69 534.953 795.242 534.953C797.326 534.953 799.201 535.24 800.867 535.812C802.534 536.359 803.953 537.245 805.125 538.469C806.323 539.693 807.234 541.281 807.859 543.234C808.484 545.161 808.797 547.518 808.797 550.305V578H801.531V550.227C801.531 548.013 801.206 546.242 800.555 544.914C799.904 543.56 798.953 542.583 797.703 541.984C796.453 541.359 794.917 541.047 793.094 541.047C791.297 541.047 789.656 541.424 788.172 542.18C786.714 542.935 785.451 543.977 784.383 545.305C783.341 546.633 782.521 548.156 781.922 549.875C781.349 551.568 781.062 553.365 781.062 555.266ZM846.414 569.797V518H853.68V578H847.039L846.414 569.797ZM817.977 557.336V556.516C817.977 553.286 818.367 550.357 819.148 547.727C819.956 545.07 821.089 542.792 822.547 540.891C824.031 538.99 825.789 537.531 827.82 536.516C829.878 535.474 832.169 534.953 834.695 534.953C837.352 534.953 839.669 535.422 841.648 536.359C843.654 537.271 845.346 538.612 846.727 540.383C848.133 542.128 849.24 544.237 850.047 546.711C850.854 549.185 851.414 551.984 851.727 555.109V558.703C851.44 561.802 850.88 564.589 850.047 567.062C849.24 569.536 848.133 571.646 846.727 573.391C845.346 575.135 843.654 576.477 841.648 577.414C839.643 578.326 837.299 578.781 834.617 578.781C832.143 578.781 829.878 578.247 827.82 577.18C825.789 576.112 824.031 574.615 822.547 572.688C821.089 570.76 819.956 568.495 819.148 565.891C818.367 563.26 817.977 560.409 817.977 557.336ZM825.242 556.516V557.336C825.242 559.445 825.451 561.424 825.867 563.273C826.31 565.122 826.987 566.75 827.898 568.156C828.81 569.562 829.969 570.669 831.375 571.477C832.781 572.258 834.461 572.648 836.414 572.648C838.81 572.648 840.776 572.141 842.312 571.125C843.875 570.109 845.125 568.768 846.062 567.102C847 565.435 847.729 563.625 848.25 561.672V552.258C847.938 550.826 847.482 549.445 846.883 548.117C846.31 546.763 845.555 545.565 844.617 544.523C843.706 543.456 842.573 542.609 841.219 541.984C839.891 541.359 838.315 541.047 836.492 541.047C834.513 541.047 832.807 541.464 831.375 542.297C829.969 543.104 828.81 544.224 827.898 545.656C826.987 547.062 826.31 548.703 825.867 550.578C825.451 552.427 825.242 554.406 825.242 556.516ZM909.695 570.773V549.016C909.695 547.349 909.357 545.904 908.68 544.68C908.029 543.43 907.039 542.466 905.711 541.789C904.383 541.112 902.742 540.773 900.789 540.773C898.966 540.773 897.365 541.086 895.984 541.711C894.63 542.336 893.562 543.156 892.781 544.172C892.026 545.188 891.648 546.281 891.648 547.453H884.422C884.422 545.943 884.812 544.445 885.594 542.961C886.375 541.477 887.495 540.135 888.953 538.938C890.438 537.714 892.208 536.75 894.266 536.047C896.349 535.318 898.667 534.953 901.219 534.953C904.292 534.953 907 535.474 909.344 536.516C911.714 537.557 913.562 539.133 914.891 541.242C916.245 543.326 916.922 545.943 916.922 549.094V568.781C916.922 570.188 917.039 571.685 917.273 573.273C917.534 574.862 917.911 576.229 918.406 577.375V578H910.867C910.503 577.167 910.216 576.06 910.008 574.68C909.799 573.273 909.695 571.971 909.695 570.773ZM910.945 552.375L911.023 557.453H903.719C901.661 557.453 899.826 557.622 898.211 557.961C896.596 558.273 895.242 558.755 894.148 559.406C893.055 560.057 892.221 560.878 891.648 561.867C891.076 562.831 890.789 563.964 890.789 565.266C890.789 566.594 891.089 567.805 891.688 568.898C892.286 569.992 893.185 570.865 894.383 571.516C895.607 572.141 897.104 572.453 898.875 572.453C901.089 572.453 903.042 571.984 904.734 571.047C906.427 570.109 907.768 568.964 908.758 567.609C909.773 566.255 910.32 564.94 910.398 563.664L913.484 567.141C913.302 568.234 912.807 569.445 912 570.773C911.193 572.102 910.112 573.378 908.758 574.602C907.43 575.799 905.841 576.802 903.992 577.609C902.169 578.391 900.112 578.781 897.82 578.781C894.956 578.781 892.443 578.221 890.281 577.102C888.146 575.982 886.479 574.484 885.281 572.609C884.109 570.708 883.523 568.586 883.523 566.242C883.523 563.977 883.966 561.984 884.852 560.266C885.737 558.521 887.013 557.076 888.68 555.93C890.346 554.758 892.352 553.872 894.695 553.273C897.039 552.674 899.656 552.375 902.547 552.375H910.945ZM935.516 544.758V578H928.289V535.734H935.125L935.516 544.758ZM933.797 555.266L930.789 555.148C930.815 552.258 931.245 549.589 932.078 547.141C932.911 544.667 934.083 542.518 935.594 540.695C937.104 538.872 938.901 537.466 940.984 536.477C943.094 535.461 945.424 534.953 947.977 534.953C950.06 534.953 951.935 535.24 953.602 535.812C955.268 536.359 956.688 537.245 957.859 538.469C959.057 539.693 959.969 541.281 960.594 543.234C961.219 545.161 961.531 547.518 961.531 550.305V578H954.266V550.227C954.266 548.013 953.94 546.242 953.289 544.914C952.638 543.56 951.688 542.583 950.438 541.984C949.188 541.359 947.651 541.047 945.828 541.047C944.031 541.047 942.391 541.424 940.906 542.18C939.448 542.935 938.185 543.977 937.117 545.305C936.076 546.633 935.255 548.156 934.656 549.875C934.083 551.568 933.797 553.365 933.797 555.266ZM999.148 569.797V518H1006.41V578H999.773L999.148 569.797ZM970.711 557.336V556.516C970.711 553.286 971.102 550.357 971.883 547.727C972.69 545.07 973.823 542.792 975.281 540.891C976.766 538.99 978.523 537.531 980.555 536.516C982.612 535.474 984.904 534.953 987.43 534.953C990.086 534.953 992.404 535.422 994.383 536.359C996.388 537.271 998.081 538.612 999.461 540.383C1000.87 542.128 1001.97 544.237 1002.78 546.711C1003.59 549.185 1004.15 551.984 1004.46 555.109V558.703C1004.17 561.802 1003.61 564.589 1002.78 567.062C1001.97 569.536 1000.87 571.646 999.461 573.391C998.081 575.135 996.388 576.477 994.383 577.414C992.378 578.326 990.034 578.781 987.352 578.781C984.878 578.781 982.612 578.247 980.555 577.18C978.523 576.112 976.766 574.615 975.281 572.688C973.823 570.76 972.69 568.495 971.883 565.891C971.102 563.26 970.711 560.409 970.711 557.336ZM977.977 556.516V557.336C977.977 559.445 978.185 561.424 978.602 563.273C979.044 565.122 979.721 566.75 980.633 568.156C981.544 569.562 982.703 570.669 984.109 571.477C985.516 572.258 987.195 572.648 989.148 572.648C991.544 572.648 993.51 572.141 995.047 571.125C996.609 570.109 997.859 568.768 998.797 567.102C999.734 565.435 1000.46 563.625 1000.98 561.672V552.258C1000.67 550.826 1000.22 549.445 999.617 548.117C999.044 546.763 998.289 545.565 997.352 544.523C996.44 543.456 995.307 542.609 993.953 541.984C992.625 541.359 991.049 541.047 989.227 541.047C987.247 541.047 985.542 541.464 984.109 542.297C982.703 543.104 981.544 544.224 980.633 545.656C979.721 547.062 979.044 548.703 978.602 550.578C978.185 552.427 977.977 554.406 977.977 556.516ZM1048.29 578H1041.06V531.281C1041.06 528.234 1041.61 525.669 1042.7 523.586C1043.82 521.477 1045.42 519.888 1047.51 518.82C1049.59 517.727 1052.07 517.18 1054.93 517.18C1055.76 517.18 1056.6 517.232 1057.43 517.336C1058.29 517.44 1059.12 517.596 1059.93 517.805L1059.54 523.703C1058.99 523.573 1058.37 523.482 1057.66 523.43C1056.99 523.378 1056.31 523.352 1055.63 523.352C1054.1 523.352 1052.77 523.664 1051.65 524.289C1050.55 524.888 1049.72 525.773 1049.15 526.945C1048.58 528.117 1048.29 529.562 1048.29 531.281V578ZM1057.27 535.734V541.281H1034.38V535.734H1057.27ZM1091.18 568.234V535.734H1098.45V578H1091.53L1091.18 568.234ZM1092.55 559.328L1095.55 559.25C1095.55 562.062 1095.26 564.667 1094.66 567.062C1094.08 569.432 1093.15 571.49 1091.84 573.234C1090.54 574.979 1088.84 576.346 1086.73 577.336C1084.62 578.299 1082.05 578.781 1079.03 578.781C1076.97 578.781 1075.09 578.482 1073.37 577.883C1071.67 577.284 1070.22 576.359 1068.99 575.109C1067.77 573.859 1066.82 572.232 1066.14 570.227C1065.49 568.221 1065.16 565.812 1065.16 563V535.734H1072.39V563.078C1072.39 564.979 1072.6 566.555 1073.02 567.805C1073.46 569.029 1074.04 570.005 1074.77 570.734C1075.53 571.438 1076.36 571.932 1077.27 572.219C1078.21 572.505 1079.17 572.648 1080.16 572.648C1083.24 572.648 1085.67 572.062 1087.47 570.891C1089.27 569.693 1090.55 568.091 1091.34 566.086C1092.14 564.055 1092.55 561.802 1092.55 559.328ZM1117.31 518V578H1110.05V518H1117.31ZM1136.77 518V578H1129.5V518H1136.77ZM1163.41 550.852V556.789H1144.34V550.852H1163.41ZM387.703 660.789C387.703 659.747 387.469 658.784 387 657.898C386.557 656.987 385.633 656.167 384.227 655.438C382.846 654.682 380.763 654.031 377.977 653.484C375.633 652.99 373.51 652.404 371.609 651.727C369.734 651.049 368.133 650.229 366.805 649.266C365.503 648.302 364.5 647.169 363.797 645.867C363.094 644.565 362.742 643.042 362.742 641.297C362.742 639.63 363.107 638.055 363.836 636.57C364.591 635.086 365.646 633.771 367 632.625C368.38 631.479 370.034 630.581 371.961 629.93C373.888 629.279 376.036 628.953 378.406 628.953C381.792 628.953 384.682 629.552 387.078 630.75C389.474 631.948 391.31 633.549 392.586 635.555C393.862 637.534 394.5 639.734 394.5 642.156H387.273C387.273 640.984 386.922 639.852 386.219 638.758C385.542 637.638 384.539 636.714 383.211 635.984C381.909 635.255 380.307 634.891 378.406 634.891C376.401 634.891 374.773 635.203 373.523 635.828C372.299 636.427 371.401 637.195 370.828 638.133C370.281 639.07 370.008 640.06 370.008 641.102C370.008 641.883 370.138 642.586 370.398 643.211C370.685 643.81 371.18 644.37 371.883 644.891C372.586 645.385 373.576 645.854 374.852 646.297C376.128 646.74 377.755 647.182 379.734 647.625C383.198 648.406 386.049 649.344 388.289 650.438C390.529 651.531 392.195 652.872 393.289 654.461C394.383 656.049 394.93 657.977 394.93 660.242C394.93 662.091 394.539 663.784 393.758 665.32C393.003 666.857 391.896 668.185 390.438 669.305C389.005 670.398 387.286 671.258 385.281 671.883C383.302 672.482 381.076 672.781 378.602 672.781C374.878 672.781 371.727 672.117 369.148 670.789C366.57 669.461 364.617 667.742 363.289 665.633C361.961 663.523 361.297 661.297 361.297 658.953H368.562C368.667 660.932 369.24 662.508 370.281 663.68C371.323 664.826 372.599 665.646 374.109 666.141C375.62 666.609 377.117 666.844 378.602 666.844C380.581 666.844 382.234 666.583 383.562 666.062C384.917 665.542 385.945 664.826 386.648 663.914C387.352 663.003 387.703 661.961 387.703 660.789ZM422.117 629.734V635.281H399.266V629.734H422.117ZM407 619.461H414.227V661.531C414.227 662.964 414.448 664.044 414.891 664.773C415.333 665.503 415.906 665.984 416.609 666.219C417.312 666.453 418.068 666.57 418.875 666.57C419.474 666.57 420.099 666.518 420.75 666.414C421.427 666.284 421.935 666.18 422.273 666.102L422.312 672C421.74 672.182 420.984 672.352 420.047 672.508C419.135 672.69 418.029 672.781 416.727 672.781C414.956 672.781 413.328 672.43 411.844 671.727C410.359 671.023 409.174 669.852 408.289 668.211C407.43 666.544 407 664.305 407 661.492V619.461ZM455.516 664.773V643.016C455.516 641.349 455.177 639.904 454.5 638.68C453.849 637.43 452.859 636.466 451.531 635.789C450.203 635.112 448.562 634.773 446.609 634.773C444.786 634.773 443.185 635.086 441.805 635.711C440.451 636.336 439.383 637.156 438.602 638.172C437.846 639.188 437.469 640.281 437.469 641.453H430.242C430.242 639.943 430.633 638.445 431.414 636.961C432.195 635.477 433.315 634.135 434.773 632.938C436.258 631.714 438.029 630.75 440.086 630.047C442.169 629.318 444.487 628.953 447.039 628.953C450.112 628.953 452.82 629.474 455.164 630.516C457.534 631.557 459.383 633.133 460.711 635.242C462.065 637.326 462.742 639.943 462.742 643.094V662.781C462.742 664.188 462.859 665.685 463.094 667.273C463.354 668.862 463.732 670.229 464.227 671.375V672H456.688C456.323 671.167 456.036 670.06 455.828 668.68C455.62 667.273 455.516 665.971 455.516 664.773ZM456.766 646.375L456.844 651.453H449.539C447.482 651.453 445.646 651.622 444.031 651.961C442.417 652.273 441.062 652.755 439.969 653.406C438.875 654.057 438.042 654.878 437.469 655.867C436.896 656.831 436.609 657.964 436.609 659.266C436.609 660.594 436.909 661.805 437.508 662.898C438.107 663.992 439.005 664.865 440.203 665.516C441.427 666.141 442.924 666.453 444.695 666.453C446.909 666.453 448.862 665.984 450.555 665.047C452.247 664.109 453.589 662.964 454.578 661.609C455.594 660.255 456.141 658.94 456.219 657.664L459.305 661.141C459.122 662.234 458.628 663.445 457.82 664.773C457.013 666.102 455.932 667.378 454.578 668.602C453.25 669.799 451.661 670.802 449.812 671.609C447.99 672.391 445.932 672.781 443.641 672.781C440.776 672.781 438.263 672.221 436.102 671.102C433.966 669.982 432.299 668.484 431.102 666.609C429.93 664.708 429.344 662.586 429.344 660.242C429.344 657.977 429.786 655.984 430.672 654.266C431.557 652.521 432.833 651.076 434.5 649.93C436.167 648.758 438.172 647.872 440.516 647.273C442.859 646.674 445.477 646.375 448.367 646.375H456.766ZM491.023 666.844C492.742 666.844 494.331 666.492 495.789 665.789C497.247 665.086 498.445 664.122 499.383 662.898C500.32 661.648 500.854 660.229 500.984 658.641H507.859C507.729 661.141 506.883 663.471 505.32 665.633C503.784 667.768 501.766 669.5 499.266 670.828C496.766 672.13 494.018 672.781 491.023 672.781C487.846 672.781 485.073 672.221 482.703 671.102C480.359 669.982 478.406 668.445 476.844 666.492C475.307 664.539 474.148 662.299 473.367 659.773C472.612 657.221 472.234 654.526 472.234 651.688V650.047C472.234 647.208 472.612 644.526 473.367 642C474.148 639.448 475.307 637.195 476.844 635.242C478.406 633.289 480.359 631.753 482.703 630.633C485.073 629.513 487.846 628.953 491.023 628.953C494.331 628.953 497.221 629.63 499.695 630.984C502.169 632.312 504.109 634.135 505.516 636.453C506.948 638.745 507.729 641.349 507.859 644.266H500.984C500.854 642.521 500.359 640.945 499.5 639.539C498.667 638.133 497.521 637.013 496.062 636.18C494.63 635.32 492.951 634.891 491.023 634.891C488.81 634.891 486.948 635.333 485.438 636.219C483.953 637.078 482.768 638.25 481.883 639.734C481.023 641.193 480.398 642.82 480.008 644.617C479.643 646.388 479.461 648.198 479.461 650.047V651.688C479.461 653.536 479.643 655.359 480.008 657.156C480.372 658.953 480.984 660.581 481.844 662.039C482.729 663.497 483.914 664.669 485.398 665.555C486.909 666.414 488.784 666.844 491.023 666.844ZM523.25 612V672H515.984V612H523.25ZM549.07 629.734L530.633 649.461L520.32 660.164L519.734 652.469L527.117 643.641L540.242 629.734H549.07ZM542.469 672L527.391 651.844L531.141 645.398L550.984 672H542.469ZM601.297 664.773V643.016C601.297 641.349 600.958 639.904 600.281 638.68C599.63 637.43 598.641 636.466 597.312 635.789C595.984 635.112 594.344 634.773 592.391 634.773C590.568 634.773 588.966 635.086 587.586 635.711C586.232 636.336 585.164 637.156 584.383 638.172C583.628 639.188 583.25 640.281 583.25 641.453H576.023C576.023 639.943 576.414 638.445 577.195 636.961C577.977 635.477 579.096 634.135 580.555 632.938C582.039 631.714 583.81 630.75 585.867 630.047C587.951 629.318 590.268 628.953 592.82 628.953C595.893 628.953 598.602 629.474 600.945 630.516C603.315 631.557 605.164 633.133 606.492 635.242C607.846 637.326 608.523 639.943 608.523 643.094V662.781C608.523 664.188 608.641 665.685 608.875 667.273C609.135 668.862 609.513 670.229 610.008 671.375V672H602.469C602.104 671.167 601.818 670.06 601.609 668.68C601.401 667.273 601.297 665.971 601.297 664.773ZM602.547 646.375L602.625 651.453H595.32C593.263 651.453 591.427 651.622 589.812 651.961C588.198 652.273 586.844 652.755 585.75 653.406C584.656 654.057 583.823 654.878 583.25 655.867C582.677 656.831 582.391 657.964 582.391 659.266C582.391 660.594 582.69 661.805 583.289 662.898C583.888 663.992 584.786 664.865 585.984 665.516C587.208 666.141 588.706 666.453 590.477 666.453C592.69 666.453 594.643 665.984 596.336 665.047C598.029 664.109 599.37 662.964 600.359 661.609C601.375 660.255 601.922 658.94 602 657.664L605.086 661.141C604.904 662.234 604.409 663.445 603.602 664.773C602.794 666.102 601.714 667.378 600.359 668.602C599.031 669.799 597.443 670.802 595.594 671.609C593.771 672.391 591.714 672.781 589.422 672.781C586.557 672.781 584.044 672.221 581.883 671.102C579.747 669.982 578.081 668.484 576.883 666.609C575.711 664.708 575.125 662.586 575.125 660.242C575.125 657.977 575.568 655.984 576.453 654.266C577.339 652.521 578.615 651.076 580.281 649.93C581.948 648.758 583.953 647.872 586.297 647.273C588.641 646.674 591.258 646.375 594.148 646.375H602.547ZM627.117 637.859V688.25H619.852V629.734H626.492L627.117 637.859ZM655.594 650.516V651.336C655.594 654.409 655.229 657.26 654.5 659.891C653.771 662.495 652.703 664.76 651.297 666.688C649.917 668.615 648.211 670.112 646.18 671.18C644.148 672.247 641.818 672.781 639.188 672.781C636.505 672.781 634.135 672.339 632.078 671.453C630.021 670.568 628.276 669.279 626.844 667.586C625.411 665.893 624.266 663.862 623.406 661.492C622.573 659.122 622 656.453 621.688 653.484V649.109C622 645.984 622.586 643.185 623.445 640.711C624.305 638.237 625.438 636.128 626.844 634.383C628.276 632.612 630.008 631.271 632.039 630.359C634.07 629.422 636.414 628.953 639.07 628.953C641.727 628.953 644.083 629.474 646.141 630.516C648.198 631.531 649.93 632.99 651.336 634.891C652.742 636.792 653.797 639.07 654.5 641.727C655.229 644.357 655.594 647.286 655.594 650.516ZM648.328 651.336V650.516C648.328 648.406 648.107 646.427 647.664 644.578C647.221 642.703 646.531 641.062 645.594 639.656C644.682 638.224 643.51 637.104 642.078 636.297C640.646 635.464 638.94 635.047 636.961 635.047C635.138 635.047 633.549 635.359 632.195 635.984C630.867 636.609 629.734 637.456 628.797 638.523C627.859 639.565 627.091 640.763 626.492 642.117C625.919 643.445 625.49 644.826 625.203 646.258V656.375C625.724 658.198 626.453 659.917 627.391 661.531C628.328 663.12 629.578 664.409 631.141 665.398C632.703 666.362 634.669 666.844 637.039 666.844C638.992 666.844 640.672 666.44 642.078 665.633C643.51 664.799 644.682 663.667 645.594 662.234C646.531 660.802 647.221 659.161 647.664 657.312C648.107 655.438 648.328 653.445 648.328 651.336ZM672.039 637.859V688.25H664.773V629.734H671.414L672.039 637.859ZM700.516 650.516V651.336C700.516 654.409 700.151 657.26 699.422 659.891C698.693 662.495 697.625 664.76 696.219 666.688C694.839 668.615 693.133 670.112 691.102 671.18C689.07 672.247 686.74 672.781 684.109 672.781C681.427 672.781 679.057 672.339 677 671.453C674.943 670.568 673.198 669.279 671.766 667.586C670.333 665.893 669.188 663.862 668.328 661.492C667.495 659.122 666.922 656.453 666.609 653.484V649.109C666.922 645.984 667.508 643.185 668.367 640.711C669.227 638.237 670.359 636.128 671.766 634.383C673.198 632.612 674.93 631.271 676.961 630.359C678.992 629.422 681.336 628.953 683.992 628.953C686.648 628.953 689.005 629.474 691.062 630.516C693.12 631.531 694.852 632.99 696.258 634.891C697.664 636.792 698.719 639.07 699.422 641.727C700.151 644.357 700.516 647.286 700.516 650.516ZM693.25 651.336V650.516C693.25 648.406 693.029 646.427 692.586 644.578C692.143 642.703 691.453 641.062 690.516 639.656C689.604 638.224 688.432 637.104 687 636.297C685.568 635.464 683.862 635.047 681.883 635.047C680.06 635.047 678.471 635.359 677.117 635.984C675.789 636.609 674.656 637.456 673.719 638.523C672.781 639.565 672.013 640.763 671.414 642.117C670.841 643.445 670.411 644.826 670.125 646.258V656.375C670.646 658.198 671.375 659.917 672.312 661.531C673.25 663.12 674.5 664.409 676.062 665.398C677.625 666.362 679.591 666.844 681.961 666.844C683.914 666.844 685.594 666.44 687 665.633C688.432 664.799 689.604 663.667 690.516 662.234C691.453 660.802 692.143 659.161 692.586 657.312C693.029 655.438 693.25 653.445 693.25 651.336ZM717.586 612V672H710.32V612H717.586ZM737.039 629.734V672H729.773V629.734H737.039ZM729.227 618.523C729.227 617.352 729.578 616.362 730.281 615.555C731.01 614.747 732.078 614.344 733.484 614.344C734.865 614.344 735.919 614.747 736.648 615.555C737.404 616.362 737.781 617.352 737.781 618.523C737.781 619.643 737.404 620.607 736.648 621.414C735.919 622.195 734.865 622.586 733.484 622.586C732.078 622.586 731.01 622.195 730.281 621.414C729.578 620.607 729.227 619.643 729.227 618.523ZM765.555 666.844C767.273 666.844 768.862 666.492 770.32 665.789C771.779 665.086 772.977 664.122 773.914 662.898C774.852 661.648 775.385 660.229 775.516 658.641H782.391C782.26 661.141 781.414 663.471 779.852 665.633C778.315 667.768 776.297 669.5 773.797 670.828C771.297 672.13 768.549 672.781 765.555 672.781C762.378 672.781 759.604 672.221 757.234 671.102C754.891 669.982 752.938 668.445 751.375 666.492C749.839 664.539 748.68 662.299 747.898 659.773C747.143 657.221 746.766 654.526 746.766 651.688V650.047C746.766 647.208 747.143 644.526 747.898 642C748.68 639.448 749.839 637.195 751.375 635.242C752.938 633.289 754.891 631.753 757.234 630.633C759.604 629.513 762.378 628.953 765.555 628.953C768.862 628.953 771.753 629.63 774.227 630.984C776.701 632.312 778.641 634.135 780.047 636.453C781.479 638.745 782.26 641.349 782.391 644.266H775.516C775.385 642.521 774.891 640.945 774.031 639.539C773.198 638.133 772.052 637.013 770.594 636.18C769.161 635.32 767.482 634.891 765.555 634.891C763.341 634.891 761.479 635.333 759.969 636.219C758.484 637.078 757.299 638.25 756.414 639.734C755.555 641.193 754.93 642.82 754.539 644.617C754.174 646.388 753.992 648.198 753.992 650.047V651.688C753.992 653.536 754.174 655.359 754.539 657.156C754.904 658.953 755.516 660.581 756.375 662.039C757.26 663.497 758.445 664.669 759.93 665.555C761.44 666.414 763.315 666.844 765.555 666.844ZM815.438 664.773V643.016C815.438 641.349 815.099 639.904 814.422 638.68C813.771 637.43 812.781 636.466 811.453 635.789C810.125 635.112 808.484 634.773 806.531 634.773C804.708 634.773 803.107 635.086 801.727 635.711C800.372 636.336 799.305 637.156 798.523 638.172C797.768 639.188 797.391 640.281 797.391 641.453H790.164C790.164 639.943 790.555 638.445 791.336 636.961C792.117 635.477 793.237 634.135 794.695 632.938C796.18 631.714 797.951 630.75 800.008 630.047C802.091 629.318 804.409 628.953 806.961 628.953C810.034 628.953 812.742 629.474 815.086 630.516C817.456 631.557 819.305 633.133 820.633 635.242C821.987 637.326 822.664 639.943 822.664 643.094V662.781C822.664 664.188 822.781 665.685 823.016 667.273C823.276 668.862 823.654 670.229 824.148 671.375V672H816.609C816.245 671.167 815.958 670.06 815.75 668.68C815.542 667.273 815.438 665.971 815.438 664.773ZM816.688 646.375L816.766 651.453H809.461C807.404 651.453 805.568 651.622 803.953 651.961C802.339 652.273 800.984 652.755 799.891 653.406C798.797 654.057 797.964 654.878 797.391 655.867C796.818 656.831 796.531 657.964 796.531 659.266C796.531 660.594 796.831 661.805 797.43 662.898C798.029 663.992 798.927 664.865 800.125 665.516C801.349 666.141 802.846 666.453 804.617 666.453C806.831 666.453 808.784 665.984 810.477 665.047C812.169 664.109 813.51 662.964 814.5 661.609C815.516 660.255 816.062 658.94 816.141 657.664L819.227 661.141C819.044 662.234 818.549 663.445 817.742 664.773C816.935 666.102 815.854 667.378 814.5 668.602C813.172 669.799 811.583 670.802 809.734 671.609C807.911 672.391 805.854 672.781 803.562 672.781C800.698 672.781 798.185 672.221 796.023 671.102C793.888 669.982 792.221 668.484 791.023 666.609C789.852 664.708 789.266 662.586 789.266 660.242C789.266 657.977 789.708 655.984 790.594 654.266C791.479 652.521 792.755 651.076 794.422 649.93C796.089 648.758 798.094 647.872 800.438 647.273C802.781 646.674 805.398 646.375 808.289 646.375H816.688ZM851.727 629.734V635.281H828.875V629.734H851.727ZM836.609 619.461H843.836V661.531C843.836 662.964 844.057 664.044 844.5 664.773C844.943 665.503 845.516 665.984 846.219 666.219C846.922 666.453 847.677 666.57 848.484 666.57C849.083 666.57 849.708 666.518 850.359 666.414C851.036 666.284 851.544 666.18 851.883 666.102L851.922 672C851.349 672.182 850.594 672.352 849.656 672.508C848.745 672.69 847.638 672.781 846.336 672.781C844.565 672.781 842.938 672.43 841.453 671.727C839.969 671.023 838.784 669.852 837.898 668.211C837.039 666.544 836.609 664.305 836.609 661.492V619.461ZM868.055 629.734V672H860.789V629.734H868.055ZM860.242 618.523C860.242 617.352 860.594 616.362 861.297 615.555C862.026 614.747 863.094 614.344 864.5 614.344C865.88 614.344 866.935 614.747 867.664 615.555C868.419 616.362 868.797 617.352 868.797 618.523C868.797 619.643 868.419 620.607 867.664 621.414C866.935 622.195 865.88 622.586 864.5 622.586C863.094 622.586 862.026 622.195 861.297 621.414C860.594 620.607 860.242 619.643 860.242 618.523ZM877.742 651.336V650.438C877.742 647.391 878.185 644.565 879.07 641.961C879.956 639.331 881.232 637.052 882.898 635.125C884.565 633.172 886.583 631.661 888.953 630.594C891.323 629.5 893.979 628.953 896.922 628.953C899.891 628.953 902.56 629.5 904.93 630.594C907.326 631.661 909.357 633.172 911.023 635.125C912.716 637.052 914.005 639.331 914.891 641.961C915.776 644.565 916.219 647.391 916.219 650.438V651.336C916.219 654.383 915.776 657.208 914.891 659.812C914.005 662.417 912.716 664.695 911.023 666.648C909.357 668.576 907.339 670.086 904.969 671.18C902.625 672.247 899.969 672.781 897 672.781C894.031 672.781 891.362 672.247 888.992 671.18C886.622 670.086 884.591 668.576 882.898 666.648C881.232 664.695 879.956 662.417 879.07 659.812C878.185 657.208 877.742 654.383 877.742 651.336ZM884.969 650.438V651.336C884.969 653.445 885.216 655.438 885.711 657.312C886.206 659.161 886.948 660.802 887.938 662.234C888.953 663.667 890.216 664.799 891.727 665.633C893.237 666.44 894.995 666.844 897 666.844C898.979 666.844 900.711 666.44 902.195 665.633C903.706 664.799 904.956 663.667 905.945 662.234C906.935 660.802 907.677 659.161 908.172 657.312C908.693 655.438 908.953 653.445 908.953 651.336V650.438C908.953 648.354 908.693 646.388 908.172 644.539C907.677 642.664 906.922 641.01 905.906 639.578C904.917 638.12 903.667 636.974 902.156 636.141C900.672 635.307 898.927 634.891 896.922 634.891C894.943 634.891 893.198 635.307 891.688 636.141C890.203 636.974 888.953 638.12 887.938 639.578C886.948 641.01 886.206 642.664 885.711 644.539C885.216 646.388 884.969 648.354 884.969 650.438ZM932.508 638.758V672H925.281V629.734H932.117L932.508 638.758ZM930.789 649.266L927.781 649.148C927.807 646.258 928.237 643.589 929.07 641.141C929.904 638.667 931.076 636.518 932.586 634.695C934.096 632.872 935.893 631.466 937.977 630.477C940.086 629.461 942.417 628.953 944.969 628.953C947.052 628.953 948.927 629.24 950.594 629.812C952.26 630.359 953.68 631.245 954.852 632.469C956.049 633.693 956.961 635.281 957.586 637.234C958.211 639.161 958.523 641.518 958.523 644.305V672H951.258V644.227C951.258 642.013 950.932 640.242 950.281 638.914C949.63 637.56 948.68 636.583 947.43 635.984C946.18 635.359 944.643 635.047 942.82 635.047C941.023 635.047 939.383 635.424 937.898 636.18C936.44 636.935 935.177 637.977 934.109 639.305C933.068 640.633 932.247 642.156 931.648 643.875C931.076 645.568 930.789 647.365 930.789 649.266ZM994.109 660.789C994.109 659.747 993.875 658.784 993.406 657.898C992.964 656.987 992.039 656.167 990.633 655.438C989.253 654.682 987.169 654.031 984.383 653.484C982.039 652.99 979.917 652.404 978.016 651.727C976.141 651.049 974.539 650.229 973.211 649.266C971.909 648.302 970.906 647.169 970.203 645.867C969.5 644.565 969.148 643.042 969.148 641.297C969.148 639.63 969.513 638.055 970.242 636.57C970.997 635.086 972.052 633.771 973.406 632.625C974.786 631.479 976.44 630.581 978.367 629.93C980.294 629.279 982.443 628.953 984.812 628.953C988.198 628.953 991.089 629.552 993.484 630.75C995.88 631.948 997.716 633.549 998.992 635.555C1000.27 637.534 1000.91 639.734 1000.91 642.156H993.68C993.68 640.984 993.328 639.852 992.625 638.758C991.948 637.638 990.945 636.714 989.617 635.984C988.315 635.255 986.714 634.891 984.812 634.891C982.807 634.891 981.18 635.203 979.93 635.828C978.706 636.427 977.807 637.195 977.234 638.133C976.688 639.07 976.414 640.06 976.414 641.102C976.414 641.883 976.544 642.586 976.805 643.211C977.091 643.81 977.586 644.37 978.289 644.891C978.992 645.385 979.982 645.854 981.258 646.297C982.534 646.74 984.161 647.182 986.141 647.625C989.604 648.406 992.456 649.344 994.695 650.438C996.935 651.531 998.602 652.872 999.695 654.461C1000.79 656.049 1001.34 657.977 1001.34 660.242C1001.34 662.091 1000.95 663.784 1000.16 665.32C999.409 666.857 998.302 668.185 996.844 669.305C995.411 670.398 993.693 671.258 991.688 671.883C989.708 672.482 987.482 672.781 985.008 672.781C981.284 672.781 978.133 672.117 975.555 670.789C972.977 669.461 971.023 667.742 969.695 665.633C968.367 663.523 967.703 661.297 967.703 658.953H974.969C975.073 660.932 975.646 662.508 976.688 663.68C977.729 664.826 979.005 665.646 980.516 666.141C982.026 666.609 983.523 666.844 985.008 666.844C986.987 666.844 988.641 666.583 989.969 666.062C991.323 665.542 992.352 664.826 993.055 663.914C993.758 663.003 994.109 661.961 994.109 660.789ZM1010.95 668.172C1010.95 666.948 1011.32 665.919 1012.08 665.086C1012.86 664.227 1013.98 663.797 1015.44 663.797C1016.9 663.797 1018 664.227 1018.76 665.086C1019.54 665.919 1019.93 666.948 1019.93 668.172C1019.93 669.37 1019.54 670.385 1018.76 671.219C1018 672.052 1016.9 672.469 1015.44 672.469C1013.98 672.469 1012.86 672.052 1012.08 671.219C1011.32 670.385 1010.95 669.37 1010.95 668.172Z" fill="black"/>
</svg>
