<svg width="2751" height="890" viewBox="0 0 2751 890" fill="none" xmlns="http://www.w3.org/2000/svg">
<path d="M1231.32 32.0186C1256.71 17.4373 1291.03 1.97649 1321.29 4.2178C1351.22 6.43518 1367.6 20.9654 1376.04 35.9405C1384.75 21.5784 1401.01 8.04207 1429.81 5.90823C1460.07 3.667 1494.39 19.1278 1519.78 33.709C1532.77 41.1656 1543.99 48.7335 1551.96 54.4326C1555.95 57.2862 1559.15 59.683 1561.35 61.376C1562.46 62.2224 1563.32 62.8942 1563.91 63.3604C1564.2 63.5934 1564.43 63.7757 1564.59 63.9024C1564.67 63.9655 1564.73 64.0155 1564.77 64.0508C1564.79 64.0682 1564.81 64.0824 1564.83 64.0928C1564.83 64.0978 1564.84 64.1031 1564.84 64.1065C1564.84 64.1079 1564.85 64.1095 1564.85 64.1104L1563.62 65.6192C1563.63 65.6196 1563.63 65.6207 1563.63 65.6211L1564.85 64.1133C1565.82 64.9025 1566.61 65.8383 1567.2 66.8614C1571.59 68.5035 1576.05 70.6098 1580.57 73.2285C1596.69 82.5718 1606.96 94.2684 1612.95 106.839C1618.9 119.31 1620.35 132.06 1619.79 143.238C1619.23 154.393 1616.65 164.249 1614.27 171.256C1613.51 173.491 1612.76 175.46 1612.08 177.114C1612.93 177.238 1613.79 177.37 1614.66 177.511C1640.28 181.675 1658.99 191.73 1672.27 205.214C1685.48 218.616 1692.75 234.811 1696.57 250.407C1702.99 276.629 1699.94 302.288 1698 313.568C1710.85 325.521 1743.25 363.168 1723.57 424.439C1720.23 434.865 1715.85 443.845 1710.81 451.577C1713.58 454.427 1716.74 458.331 1719.73 463.501C1727.08 476.219 1733.03 495.931 1730.52 525.234C1726.43 572.967 1690.11 599.313 1674.62 608.493C1677.35 622.813 1679.56 653.863 1659.23 689.353C1636.87 728.374 1603.44 738.81 1590.45 741.468C1560.03 794.106 1504.55 808.15 1457.09 796.447C1422.07 787.811 1389.97 764.71 1375.16 731.614C1360.03 763.805 1328.43 786.268 1294.01 794.757C1246.55 806.46 1191.07 792.416 1160.65 739.777C1147.66 737.12 1114.23 726.684 1091.87 687.662C1071.53 652.172 1073.75 621.122 1076.48 606.803C1060.99 597.623 1024.67 571.277 1020.58 523.544C1018.07 494.241 1024.02 474.529 1031.37 461.811C1034.36 456.64 1037.52 452.737 1040.29 449.887C1035.25 442.155 1030.87 433.175 1027.53 422.749C1007.85 361.478 1040.25 323.831 1053.1 311.878C1051.16 300.598 1048.11 274.939 1054.53 248.717C1058.35 233.121 1065.62 216.926 1078.83 203.523C1092.11 190.039 1110.82 179.985 1136.44 175.82C1137.31 175.68 1138.17 175.547 1139.02 175.424C1138.34 173.769 1137.59 171.8 1136.83 169.564C1134.45 162.558 1131.87 152.702 1131.31 141.548C1130.75 130.37 1132.2 117.62 1138.14 105.148C1144.14 92.5778 1154.41 80.8815 1170.53 71.5381C1175.05 68.9193 1179.51 66.8131 1183.9 65.1709C1184.49 64.1477 1185.28 63.2122 1186.25 62.4229L1187.47 63.9297C1187.47 63.9293 1187.47 63.9291 1187.47 63.9287L1186.25 62.4199C1186.25 62.4191 1186.26 62.4175 1186.26 62.416C1186.26 62.4127 1186.27 62.4074 1186.27 62.4024C1186.29 62.3919 1186.31 62.377 1186.33 62.3594C1186.37 62.3241 1186.43 62.275 1186.51 62.2119C1186.67 62.0852 1186.9 61.9031 1187.19 61.6699C1187.78 61.2037 1188.64 60.532 1189.75 59.6856C1191.95 57.9926 1195.15 55.5958 1199.14 52.7422C1207.11 47.0431 1218.33 39.4753 1231.32 32.0186ZM1509.82 51.0528C1484.71 36.6344 1455.03 24.0962 1431.29 25.8545C1407.89 27.588 1397.33 38.4554 1392.1 48.1328C1389.35 53.2328 1387.94 58.3041 1387.23 62.1367C1386.88 64.0358 1386.71 65.582 1386.63 66.6065C1386.59 67.1162 1386.57 67.4931 1386.56 67.7139C1386.56 67.8085 1386.55 67.8753 1386.55 67.9102C1386.55 67.9121 1386.55 67.9143 1386.55 67.916L1386.55 67.9356V240H1428V205.919C1416.87 201.532 1409 190.685 1409 178C1409 161.432 1422.43 148 1439 148C1455.57 148 1469 161.431 1469 178C1469 191.433 1460.17 202.802 1448 206.625V260H1386.55V413H1482.35L1573.86 311.372C1570.79 306.664 1569 301.041 1569 295C1569 278.432 1582.43 265 1599 265C1615.57 265 1629 278.431 1629 295C1629 311.569 1615.57 325 1599 325C1595.79 325 1592.7 324.493 1589.8 323.56L1537.39 381.767L1566.09 406.413C1570.25 404.234 1574.98 403 1580 403C1596.57 403 1610 416.431 1610 433C1610 449.569 1596.57 463 1580 463C1563.43 463 1550 449.569 1550 433C1550 428.761 1550.88 424.729 1552.47 421.073L1524 396.633L1491.36 432.891L1491 432.569V433H1386.55V512H1559V512.048L1559.07 512L1586.99 554.084C1589.54 553.378 1592.22 553 1595 553C1611.57 553 1625 566.431 1625 583C1625 599.569 1611.57 613 1595 613C1578.43 613 1565 599.569 1565 583C1565 576.492 1567.07 570.47 1570.59 565.554L1548.34 532H1478.36L1548.8 638.199L1532.13 649.253L1532.12 649.235L1499.82 670.65C1500.59 673.301 1501 676.102 1501 679C1501 695.569 1487.57 709 1471 709C1454.43 709 1441 695.569 1441 679C1441 662.432 1454.43 649 1471 649C1477.38 649 1483.3 650.993 1488.16 654.389L1521.06 632.568L1454.36 532H1386.55V618.972C1386.55 618.973 1386.55 618.976 1386.55 618.98C1386.55 619.052 1386.55 619.578 1386.55 620.246C1386.55 620.916 1386.55 621.729 1386.55 622.375C1386.55 622.698 1386.55 622.979 1386.55 623.18V623.493C1386.55 623.495 1386.55 623.496 1386.55 623.497L1386.55 623.499V690.881C1386.55 733.867 1420.11 766.727 1461.88 777.029C1502.9 787.145 1549.17 774.703 1574.15 729.673L1574.73 728.604L1574.91 728.287C1576.72 725.162 1579.85 723.002 1583.4 722.401L1583.76 722.347C1588.92 721.633 1621.01 715.815 1641.88 679.408C1661.67 644.87 1656.09 615.925 1654.13 608.474L1653.96 607.82L1653.83 607.316C1652.61 602.086 1654.93 596.343 1660.11 593.686C1668.68 589.291 1706.85 567.116 1710.59 523.527C1712.79 497.83 1707.49 482.291 1702.41 473.51C1700.94 470.963 1699.45 468.926 1698.11 467.331C1687.32 478.215 1675.18 485.389 1663.87 490.062C1652.86 494.609 1642.64 496.803 1635.16 497.867C1631.42 498.401 1628.33 498.655 1626.13 498.775C1625.03 498.836 1624.15 498.864 1623.52 498.875C1623.21 498.881 1622.95 498.883 1622.77 498.883C1622.67 498.883 1622.6 498.882 1622.54 498.882C1622.51 498.882 1622.48 498.882 1622.46 498.882C1622.45 498.882 1622.44 498.881 1622.43 498.881C1622.43 498.881 1622.42 498.881 1622.42 498.881C1622.41 498.878 1622.41 498.704 1622.55 488.882L1622.41 498.881C1616.89 498.801 1612.47 494.26 1612.55 488.737C1612.63 483.219 1617.17 478.809 1622.69 478.883L1622.68 478.882C1622.69 478.882 1622.71 478.883 1622.74 478.883C1622.82 478.883 1622.96 478.882 1623.16 478.878C1623.56 478.871 1624.19 478.852 1625.04 478.806C1626.72 478.713 1629.24 478.51 1632.35 478.067C1638.59 477.178 1647.12 475.341 1656.23 471.576C1674.27 464.127 1694.62 449.185 1704.53 418.323C1722.69 361.774 1687.64 330.685 1681.8 325.965C1678.24 323.083 1676.62 318.468 1677.56 314.012C1678.8 308.123 1683.62 281.606 1677.14 255.165C1673.94 242.1 1668.08 229.455 1658.03 219.253C1648.06 209.133 1633.37 200.816 1611.45 197.252C1587.95 193.432 1570.42 197.016 1557.19 203.899C1543.86 210.841 1534.12 221.549 1527.02 233.162C1519.9 244.8 1515.61 257.055 1513.1 266.513C1511.86 271.214 1511.07 275.155 1510.6 277.885C1510.36 279.247 1510.21 280.303 1510.11 280.996C1510.07 281.342 1510.04 281.598 1510.02 281.755C1510.01 281.832 1510 281.886 1510 281.914C1510 281.916 1510 281.919 1510 281.921C1510 281.923 1510 281.926 1510 281.929C1510 281.93 1510 281.932 1510 281.934L1510 281.937C1509.41 287.421 1504.5 291.401 1499.01 290.827C1493.52 290.253 1489.53 285.333 1490.11 279.841L1500.05 280.881L1491.35 279.968C1490.2 279.846 1490.11 279.834 1490.11 279.831C1490.11 279.829 1490.11 279.823 1490.11 279.818C1490.11 279.809 1490.11 279.798 1490.11 279.785C1490.12 279.76 1490.12 279.726 1490.12 279.688C1490.13 279.61 1490.14 279.506 1490.16 279.377C1490.19 279.118 1490.24 278.757 1490.3 278.302C1490.42 277.391 1490.61 276.1 1490.89 274.488C1491.44 271.267 1492.35 266.742 1493.77 261.39C1496.59 250.739 1501.52 236.523 1509.96 222.725C1518.42 208.901 1530.59 195.202 1547.96 186.159C1560.04 179.867 1574.28 176.025 1590.92 175.716C1591.1 175.046 1591.36 174.383 1591.69 173.742V173.741C1591.7 173.73 1591.71 173.711 1591.72 173.689C1591.76 173.615 1591.82 173.484 1591.91 173.3C1592.09 172.931 1592.37 172.347 1592.71 171.571C1593.4 170.015 1594.35 167.701 1595.34 164.806C1597.32 158.972 1599.37 151.004 1599.81 142.236C1600.25 133.492 1599.08 124.217 1594.9 115.443C1590.77 106.769 1583.42 97.9971 1570.54 90.5323C1557.79 83.1413 1546.58 81.4022 1536.96 82.4805C1527.2 83.5761 1518.38 87.6657 1510.78 92.9756C1503.16 98.2899 1497.05 104.624 1492.81 109.711C1490.71 112.235 1489.11 114.405 1488.05 115.913C1487.52 116.665 1487.13 117.25 1486.88 117.628C1486.76 117.816 1486.67 117.954 1486.62 118.034C1486.6 118.066 1486.59 118.089 1486.58 118.103C1483.7 122.81 1477.55 124.292 1472.84 121.413C1468.13 118.533 1466.64 112.378 1469.52 107.666L1478.05 112.881C1469.64 107.737 1469.52 107.662 1469.52 107.657C1469.53 107.655 1469.53 107.651 1469.53 107.647L1469.71 107.36C1469.81 107.198 1469.96 106.975 1470.13 106.699C1470.5 106.147 1471.01 105.376 1471.68 104.428C1473 102.534 1474.94 99.916 1477.45 96.9082C1482.43 90.9301 1489.82 83.2114 1499.33 76.5742C1507.68 70.7482 1517.89 65.5995 1529.69 63.3662C1523.84 59.4785 1517.12 55.2406 1509.82 51.0528ZM1319.81 24.1641C1296.07 22.4057 1266.39 34.9429 1241.28 49.3614C1233.98 53.5495 1227.26 57.7878 1221.41 61.6758C1233.21 63.909 1243.42 69.0575 1251.77 74.8838C1261.28 81.5211 1268.67 89.2396 1273.65 95.2178C1276.16 98.2256 1278.09 100.844 1279.42 102.737C1280.09 103.685 1280.6 104.456 1280.97 105.009C1281.14 105.285 1281.29 105.506 1281.39 105.669L1281.57 105.957C1281.57 105.96 1281.57 105.965 1281.58 105.967C1281.58 105.972 1281.43 106.065 1273.05 111.19L1281.58 105.976C1284.46 110.688 1282.97 116.842 1278.26 119.723C1273.55 122.602 1267.4 121.12 1264.52 116.412L1264.52 116.413C1264.52 116.414 1264.52 116.417 1264.52 116.418C1264.52 116.421 1264.53 116.424 1264.53 116.425C1264.53 116.424 1264.53 116.421 1264.52 116.419C1264.52 116.408 1264.5 116.382 1264.48 116.343C1264.43 116.263 1264.34 116.126 1264.22 115.938C1263.97 115.56 1263.58 114.975 1263.05 114.223C1261.99 112.714 1260.39 110.545 1258.29 108.021C1254.05 102.934 1247.94 96.5997 1240.32 91.2852C1232.72 85.9751 1223.9 81.8856 1214.14 80.7901C1204.52 79.7117 1193.31 81.4508 1180.56 88.8418C1167.68 96.3067 1160.33 105.078 1156.2 113.753C1152.02 122.527 1150.85 131.801 1151.29 140.546C1151.73 149.314 1153.78 157.281 1155.76 163.115C1156.75 166.011 1157.7 168.325 1158.39 169.881C1158.73 170.657 1159.01 171.241 1159.19 171.609C1159.28 171.794 1159.34 171.925 1159.38 171.998C1159.4 172.034 1159.41 172.056 1159.41 172.064V172.065C1159.41 172.064 1159.41 172.061 1159.41 172.058C1159.41 172.056 1159.41 172.052 1159.41 172.051L1159.41 172.052C1159.74 172.693 1160 173.355 1160.18 174.025C1176.82 174.334 1191.06 178.177 1203.14 184.469C1220.51 193.512 1232.68 207.21 1241.14 221.034C1249.58 234.833 1254.51 249.048 1257.33 259.699C1258.75 265.052 1259.66 269.576 1260.21 272.797C1260.49 274.409 1260.68 275.701 1260.8 276.611C1260.86 277.067 1260.91 277.428 1260.94 277.687C1260.96 277.816 1260.97 277.92 1260.98 277.997C1260.98 278.036 1260.98 278.069 1260.99 278.095C1260.99 278.107 1260.99 278.119 1260.99 278.128C1260.99 278.133 1260.99 278.138 1260.99 278.141C1260.99 278.144 1260.9 278.156 1259.75 278.277L1251.05 279.19L1260.99 278.15C1261.57 283.643 1257.58 288.561 1252.09 289.136C1246.6 289.709 1241.69 285.731 1241.1 280.246L1241.1 280.243C1241.1 280.242 1241.1 280.238 1241.1 280.237L1241.1 280.224C1241.1 280.196 1241.09 280.142 1241.08 280.064C1241.06 279.908 1241.03 279.652 1240.99 279.306C1240.89 278.613 1240.74 277.557 1240.5 276.194C1240.03 273.464 1239.24 269.524 1238 264.822C1235.49 255.364 1231.2 243.11 1224.08 231.472C1216.98 219.859 1207.24 209.15 1193.91 202.209C1180.68 195.325 1163.15 191.741 1139.65 195.562C1117.73 199.126 1103.04 207.441 1093.07 217.562C1083.02 227.764 1077.16 240.409 1073.96 253.475C1067.48 279.915 1072.3 306.432 1073.54 312.32C1074.48 316.777 1072.86 321.392 1069.3 324.274C1063.46 328.995 1028.41 360.084 1046.57 416.633C1056.48 447.495 1076.83 462.437 1094.87 469.886C1103.98 473.65 1112.51 475.488 1118.75 476.377C1121.86 476.82 1124.38 477.023 1126.06 477.115C1126.91 477.161 1127.54 477.18 1127.94 477.188C1128.14 477.191 1128.28 477.191 1128.36 477.191H1128.42L1128.41 477.192C1133.93 477.118 1138.47 481.528 1138.55 487.047C1138.63 492.569 1134.21 497.111 1128.69 497.19L1128.55 487.191C1128.69 497.101 1128.69 497.19 1128.68 497.19C1128.68 497.19 1128.67 497.19 1128.67 497.19C1128.66 497.191 1128.65 497.191 1128.64 497.191C1128.62 497.192 1128.59 497.191 1128.56 497.191C1128.5 497.192 1128.43 497.193 1128.33 497.192C1128.15 497.192 1127.89 497.19 1127.58 497.185C1126.95 497.173 1126.07 497.145 1124.97 497.085C1122.77 496.965 1119.68 496.71 1115.93 496.177C1108.46 495.113 1098.24 492.919 1087.23 488.371C1075.92 483.698 1063.78 476.524 1052.99 465.64C1051.65 467.235 1050.16 469.272 1048.69 471.819C1043.61 480.601 1038.31 496.139 1040.51 521.836C1044.25 565.425 1082.42 587.601 1090.99 591.995C1096.17 594.653 1098.5 600.395 1097.27 605.626L1097.14 606.13L1096.97 606.783C1095.01 614.235 1089.43 643.179 1109.22 677.718C1130.09 714.125 1162.18 719.942 1167.34 720.656L1167.7 720.711C1171.25 721.311 1174.38 723.472 1176.19 726.597L1176.37 726.913L1176.95 727.982C1201.93 773.013 1248.2 785.455 1289.22 775.339C1330.99 765.037 1364.55 732.177 1364.55 689.19V622.998C1364.55 622.997 1364.55 622.996 1364.55 622.994C1364.55 622.99 1364.55 622.985 1364.55 622.978C1364.55 622.963 1364.55 622.94 1364.55 622.911C1364.55 622.854 1364.55 622.771 1364.55 622.667C1364.55 622.458 1364.55 622.163 1364.55 621.824L1364.55 619.562V619.345C1364.55 618.808 1364.55 618.461 1364.55 618.268V618.073L1364.55 618.072V532H1297.64L1230.94 632.568L1263.84 654.389C1268.71 650.993 1274.62 649 1281 649C1297.57 649 1311 662.431 1311 679C1311 695.569 1297.57 709 1281 709C1264.43 709 1251 695.568 1251 679C1251 676.103 1251.41 673.301 1252.18 670.65L1219.88 649.235L1219.87 649.253L1203.21 638.199L1273.64 532H1203.66L1181.41 565.554C1184.93 570.47 1187 576.492 1187 583C1187 599.569 1173.57 613 1157 613C1140.43 613 1127 599.568 1127 583C1127 566.432 1140.43 553 1157 553C1159.78 553 1162.46 553.378 1165.01 554.084L1192.93 512L1193 512.048V512H1364.55V433H1261V432.569L1260.64 432.891L1228 396.633L1199.53 421.073C1201.12 424.729 1202 428.761 1202 433C1202 449.569 1188.57 463 1172 463C1155.43 463 1142 449.568 1142 433C1142 416.432 1155.43 403 1172 403C1177.02 403 1181.75 404.234 1185.91 406.413L1214.61 381.767L1162.2 323.56C1159.3 324.493 1156.21 325 1153 325C1136.43 325 1123 311.568 1123 295C1123 278.432 1136.43 265 1153 265C1169.57 265 1183 278.431 1183 295C1183 301.041 1181.21 306.664 1178.14 311.372L1269.65 413H1364.55V260H1304V206.625C1291.83 202.802 1283 191.433 1283 178C1283 161.432 1296.43 148 1313 148C1329.57 148 1343 161.431 1343 178C1343 190.685 1335.13 201.532 1324 205.919V240H1364.55V66.2334C1364.55 66.2043 1364.55 66.133 1364.54 66.0235C1364.53 65.8028 1364.51 65.4262 1364.47 64.916C1364.39 63.8916 1364.22 62.3456 1363.87 60.4463C1363.16 56.6135 1361.75 51.5417 1359 46.4414C1353.77 36.764 1343.21 25.8975 1319.81 24.1641ZM1281 669C1275.48 669 1271 673.477 1271 679C1271 684.523 1275.48 689 1281 689C1286.52 689 1291 684.523 1291 679C1291 673.477 1286.52 669 1281 669ZM1471 669C1465.48 669 1461 673.477 1461 679C1461 684.523 1465.48 689 1471 689C1476.52 689 1481 684.523 1481 679C1481 673.477 1476.52 669 1471 669ZM1157 573C1151.48 573 1147 577.477 1147 583C1147 588.523 1151.48 593 1157 593C1162.52 593 1167 588.523 1167 583C1167 577.477 1162.52 573 1157 573ZM1595 573C1589.48 573 1585 577.477 1585 583C1585 588.523 1589.48 593 1595 593C1600.52 593 1605 588.523 1605 583C1605 577.477 1600.52 573 1595 573ZM1172 423C1166.48 423 1162 427.477 1162 433C1162 438.523 1166.48 443 1172 443C1177.52 443 1182 438.523 1182 433C1182 427.477 1177.52 423 1172 423ZM1580 423C1574.48 423 1570 427.477 1570 433C1570 438.523 1574.48 443 1580 443C1585.52 443 1590 438.523 1590 433C1590 427.477 1585.52 423 1580 423ZM1153 285C1147.48 285 1143 289.477 1143 295C1143 300.523 1147.48 305 1153 305C1158.52 305 1163 300.523 1163 295C1163 289.477 1158.52 285 1153 285ZM1599 285C1593.48 285 1589 289.477 1589 295C1589 300.523 1593.48 305 1599 305C1604.52 305 1609 300.523 1609 295C1609 289.477 1604.52 285 1599 285ZM1313 168C1307.48 168 1303 172.477 1303 178C1303 183.523 1307.48 188 1313 188C1318.52 188 1323 183.523 1323 178C1323 172.477 1318.52 168 1313 168ZM1439 168C1433.48 168 1429 172.477 1429 178C1429 183.523 1433.48 188 1439 188C1444.52 188 1449 183.523 1449 178C1449 172.477 1444.52 168 1439 168Z" fill="black"/>
<path d="M187.94 273.187L140.9 249.03V237.662L187.94 213.505V228.107L157.658 243.052V243.64L187.94 258.585V273.187ZM200.446 275V204.832H220.928C226.808 204.832 231.887 206.22 236.167 208.997C240.479 211.774 243.794 215.71 246.114 220.806C248.466 225.869 249.642 231.88 249.642 238.838V240.994C249.642 247.919 248.466 253.93 246.114 259.026C243.794 264.122 240.479 268.058 236.167 270.835C231.887 273.612 226.808 275 220.928 275H200.446ZM215.44 260.888H220.732C225.24 260.888 228.621 259.255 230.875 255.988C233.129 252.689 234.256 247.772 234.256 241.239V238.593C234.256 232.06 233.112 227.16 230.826 223.893C228.572 220.594 225.207 218.944 220.732 218.944H215.44V260.888ZM284.442 276.666C279.052 276.666 274.365 275.555 270.379 273.334C266.394 271.113 263.307 267.993 261.118 263.975C258.93 259.924 257.835 255.188 257.835 249.765V248.687C257.835 243.297 258.93 238.593 261.118 234.575C263.34 230.524 266.427 227.388 270.379 225.167C274.332 222.913 278.922 221.786 284.148 221.786C288.852 221.786 292.952 222.766 296.447 224.726C299.943 226.686 302.654 229.463 304.581 233.056C306.541 236.617 307.521 240.798 307.521 245.6C307.521 247.005 307.472 248.311 307.374 249.52C307.276 250.696 307.113 251.758 306.884 252.705H265.528V244.081H293.997V244.375C293.997 240.978 293.132 238.332 291.4 236.437C289.669 234.51 287.284 233.546 284.246 233.546C280.457 233.546 277.452 234.918 275.23 237.662C273.042 240.373 271.947 244.114 271.947 248.883V249.569C271.947 254.24 273.058 257.932 275.279 260.643C277.533 263.354 280.588 264.71 284.442 264.71C289.179 264.71 292.56 262.391 294.585 257.752L307.178 262.995C305.218 267.372 302.278 270.753 298.358 273.138C294.438 275.49 289.8 276.666 284.442 276.666ZM334.139 275L315.225 223.452H330.905L338.549 246.874L341.734 260.398H342.175L345.36 246.874L352.612 223.452H368.145L349.231 275H334.139ZM401.966 276.666C396.576 276.666 391.888 275.555 387.903 273.334C383.918 271.113 380.831 267.993 378.642 263.975C376.453 259.924 375.359 255.188 375.359 249.765V248.687C375.359 243.297 376.453 238.593 378.642 234.575C380.863 230.524 383.95 227.388 387.903 225.167C391.856 222.913 396.445 221.786 401.672 221.786C406.376 221.786 410.476 222.766 413.971 224.726C417.466 226.686 420.178 229.463 422.105 233.056C424.065 236.617 425.045 240.798 425.045 245.6C425.045 247.005 424.996 248.311 424.898 249.52C424.8 250.696 424.637 251.758 424.408 252.705H383.052V244.081H411.521V244.375C411.521 240.978 410.655 238.332 408.924 236.437C407.193 234.51 404.808 233.546 401.77 233.546C397.981 233.546 394.975 234.918 392.754 237.662C390.565 240.373 389.471 244.114 389.471 248.883V249.569C389.471 254.24 390.582 257.932 392.803 260.643C395.057 263.354 398.111 264.71 401.966 264.71C406.703 264.71 410.084 262.391 412.109 257.752L424.702 262.995C422.742 267.372 419.802 270.753 415.882 273.138C411.962 275.49 407.323 276.666 401.966 276.666ZM468.617 276.666C462.018 276.666 456.857 274.837 453.133 271.178C449.441 267.487 447.596 262.391 447.596 255.89V203.46H462.443V254.812C462.443 260.561 464.974 263.436 470.038 263.436C471.41 263.436 472.667 263.175 473.811 262.652C474.987 262.129 476.228 261.264 477.535 260.055L485.277 270.492C482.925 272.615 480.409 274.167 477.731 275.147C475.085 276.16 472.047 276.666 468.617 276.666ZM433.337 214.926V203.46H458.768V214.926H433.337ZM517.97 276.666C512.972 276.666 508.546 275.523 504.691 273.236C500.837 270.917 497.815 267.732 495.626 263.681C493.47 259.63 492.392 254.992 492.392 249.765V248.687C492.392 243.46 493.47 238.822 495.626 234.771C497.815 230.72 500.837 227.552 504.691 225.265C508.546 222.946 512.972 221.786 517.97 221.786C522.968 221.786 527.378 222.946 531.2 225.265C535.055 227.552 538.077 230.72 540.265 234.771C542.454 238.822 543.548 243.46 543.548 248.687V249.765C543.548 254.992 542.454 259.63 540.265 263.681C538.077 267.732 535.055 270.917 531.2 273.236C527.378 275.523 522.968 276.666 517.97 276.666ZM517.97 263.632C521.27 263.632 523.899 262.358 525.859 259.81C527.852 257.262 528.848 253.848 528.848 249.569V248.883C528.848 244.604 527.852 241.19 525.859 238.642C523.899 236.094 521.27 234.82 517.97 234.82C514.671 234.82 512.025 236.094 510.032 238.642C508.072 241.19 507.092 244.604 507.092 248.883V249.569C507.092 253.848 508.072 257.262 510.032 259.81C512.025 262.358 514.671 263.632 517.97 263.632ZM582.661 221.786C586.45 221.786 589.766 222.913 592.608 225.167C595.45 227.421 597.655 230.573 599.223 234.624C600.824 238.675 601.624 243.411 601.624 248.834V249.618C601.624 255.041 600.84 259.794 599.272 263.877C597.737 267.928 595.564 271.08 592.755 273.334C589.978 275.555 586.712 276.666 582.955 276.666C579.786 276.666 576.993 275.931 574.576 274.461C572.159 272.958 570.084 270.753 568.353 267.846H567.912V294.992H553.114V223.452H567.422V231.096H567.863C569.398 228.156 571.456 225.869 574.037 224.236C576.618 222.603 579.492 221.786 582.661 221.786ZM577.369 234.036C574.364 234.036 571.963 235.375 570.166 238.054C568.369 240.733 567.471 244.342 567.471 248.883V249.569C567.471 254.11 568.369 257.719 570.166 260.398C571.963 263.077 574.347 264.416 577.32 264.416C580.358 264.416 582.694 263.158 584.327 260.643C585.993 258.095 586.826 254.502 586.826 249.863V248.638C586.826 243.967 585.993 240.373 584.327 237.858C582.694 235.31 580.374 234.036 577.369 234.036ZM637.013 276.666C631.623 276.666 626.935 275.555 622.95 273.334C618.964 271.113 615.877 267.993 613.689 263.975C611.5 259.924 610.406 255.188 610.406 249.765V248.687C610.406 243.297 611.5 238.593 613.689 234.575C615.91 230.524 618.997 227.388 622.95 225.167C626.902 222.913 631.492 221.786 636.719 221.786C641.423 221.786 645.522 222.766 649.018 224.726C652.513 226.686 655.224 229.463 657.152 233.056C659.112 236.617 660.092 240.798 660.092 245.6C660.092 247.005 660.043 248.311 659.945 249.52C659.847 250.696 659.683 251.758 659.455 252.705H618.099V244.081H646.568V244.375C646.568 240.978 645.702 238.332 643.971 236.437C642.239 234.51 639.855 233.546 636.817 233.546C633.027 233.546 630.022 234.918 627.801 237.662C625.612 240.373 624.518 244.114 624.518 248.883V249.569C624.518 254.24 625.628 257.932 627.85 260.643C630.104 263.354 633.158 264.71 637.013 264.71C641.749 264.71 645.13 262.391 647.156 257.752L659.749 262.995C657.789 267.372 654.849 270.753 650.929 273.138C647.009 275.49 642.37 276.666 637.013 276.666ZM679.408 269.61V223.452H691.805V235.212H692.491C694.027 230.867 696.215 227.552 699.057 225.265C701.899 222.946 705.231 221.786 709.053 221.786C711.667 221.786 713.986 222.309 716.011 223.354C718.037 224.367 720.095 226.082 722.185 228.499L713.218 239.23C711.716 237.629 710.295 236.519 708.955 235.898C707.649 235.245 706.13 234.918 704.398 234.918C700.936 234.918 698.29 236.078 696.46 238.397C694.664 240.716 693.765 244.097 693.765 248.54V269.61H679.408ZM668.971 275V263.926H710.425V275H668.971ZM669.951 234.526V223.452H685.974V234.526H669.951ZM728.713 283.624L762.768 203.46H777.321L743.266 283.624H728.713ZM789.239 273.187V258.585L819.521 243.64V243.052L789.239 228.107V213.505L836.279 237.662V249.03L789.239 273.187Z" fill="black"/>
<path d="M153.416 380.297V413H149.081V380.297H153.416ZM172.059 378.5H176.236V408.283L175.877 413H172.059V378.5ZM192.655 400.646V401.118C192.655 402.885 192.446 404.525 192.026 406.037C191.607 407.535 190.993 408.837 190.185 409.945C189.376 411.053 188.388 411.914 187.22 412.528C186.052 413.142 184.712 413.449 183.199 413.449C181.657 413.449 180.302 413.187 179.134 412.663C177.981 412.124 177.007 411.353 176.214 410.35C175.42 409.346 174.784 408.133 174.305 406.711C173.84 405.288 173.519 403.686 173.339 401.904V399.838C173.519 398.041 173.84 396.431 174.305 395.009C174.784 393.586 175.42 392.373 176.214 391.37C177.007 390.352 177.981 389.581 179.134 389.057C180.287 388.518 181.627 388.248 183.154 388.248C184.682 388.248 186.037 388.548 187.22 389.146C188.403 389.73 189.391 390.569 190.185 391.662C190.993 392.755 191.607 394.065 192.026 395.593C192.446 397.105 192.655 398.79 192.655 400.646ZM188.478 401.118V400.646C188.478 399.434 188.365 398.296 188.141 397.232C187.916 396.154 187.557 395.211 187.062 394.402C186.568 393.579 185.917 392.935 185.108 392.471C184.3 391.992 183.304 391.752 182.121 391.752C181.073 391.752 180.16 391.932 179.381 392.291C178.617 392.65 177.966 393.137 177.427 393.751C176.888 394.35 176.446 395.039 176.102 395.817C175.772 396.581 175.525 397.375 175.36 398.198V403.611C175.6 404.66 175.989 405.67 176.528 406.644C177.082 407.602 177.816 408.388 178.729 409.002C179.658 409.616 180.803 409.923 182.166 409.923C183.289 409.923 184.247 409.698 185.041 409.249C185.85 408.785 186.501 408.148 186.995 407.34C187.504 406.531 187.879 405.595 188.118 404.532C188.358 403.469 188.478 402.331 188.478 401.118ZM212.78 407.385V388.697H216.958V413H212.982L212.78 407.385ZM213.566 402.264L215.296 402.219C215.296 403.836 215.124 405.333 214.779 406.711C214.45 408.074 213.911 409.257 213.162 410.26C212.413 411.263 211.433 412.049 210.22 412.618C209.007 413.172 207.532 413.449 205.795 413.449C204.612 413.449 203.526 413.277 202.538 412.933C201.565 412.588 200.726 412.057 200.022 411.338C199.319 410.619 198.772 409.683 198.383 408.53C198.008 407.377 197.821 405.992 197.821 404.375V388.697H201.977V404.42C201.977 405.513 202.096 406.419 202.336 407.138C202.59 407.841 202.927 408.403 203.347 408.822C203.781 409.227 204.26 409.511 204.784 409.676C205.323 409.84 205.877 409.923 206.446 409.923C208.213 409.923 209.613 409.586 210.646 408.912C211.68 408.223 212.421 407.302 212.87 406.149C213.334 404.981 213.566 403.686 213.566 402.264ZM227.807 388.697V413H223.629V388.697H227.807ZM223.314 382.251C223.314 381.577 223.517 381.008 223.921 380.544C224.34 380.08 224.954 379.848 225.763 379.848C226.556 379.848 227.163 380.08 227.582 380.544C228.016 381.008 228.233 381.577 228.233 382.251C228.233 382.895 228.016 383.449 227.582 383.913C227.163 384.362 226.556 384.587 225.763 384.587C224.954 384.587 224.34 384.362 223.921 383.913C223.517 383.449 223.314 382.895 223.314 382.251ZM238.992 378.5V413H234.814V378.5H238.992ZM260.981 408.283V378.5H265.159V413H261.341L260.981 408.283ZM244.63 401.118V400.646C244.63 398.79 244.854 397.105 245.304 395.593C245.768 394.065 246.419 392.755 247.258 391.662C248.111 390.569 249.122 389.73 250.29 389.146C251.473 388.548 252.791 388.248 254.243 388.248C255.771 388.248 257.103 388.518 258.241 389.057C259.394 389.581 260.368 390.352 261.161 391.37C261.97 392.373 262.606 393.586 263.07 395.009C263.535 396.431 263.856 398.041 264.036 399.838V401.904C263.871 403.686 263.549 405.288 263.07 406.711C262.606 408.133 261.97 409.346 261.161 410.35C260.368 411.353 259.394 412.124 258.241 412.663C257.088 413.187 255.741 413.449 254.198 413.449C252.776 413.449 251.473 413.142 250.29 412.528C249.122 411.914 248.111 411.053 247.258 409.945C246.419 408.837 245.768 407.535 245.304 406.037C244.854 404.525 244.63 402.885 244.63 401.118ZM248.808 400.646V401.118C248.808 402.331 248.927 403.469 249.167 404.532C249.422 405.595 249.811 406.531 250.335 407.34C250.859 408.148 251.525 408.785 252.334 409.249C253.143 409.698 254.108 409.923 255.231 409.923C256.609 409.923 257.74 409.631 258.623 409.047C259.521 408.463 260.24 407.692 260.779 406.733C261.318 405.775 261.738 404.734 262.037 403.611V398.198C261.857 397.375 261.595 396.581 261.251 395.817C260.922 395.039 260.487 394.35 259.948 393.751C259.424 393.137 258.773 392.65 257.994 392.291C257.23 391.932 256.325 391.752 255.276 391.752C254.138 391.752 253.158 391.992 252.334 392.471C251.525 392.935 250.859 393.579 250.335 394.402C249.811 395.211 249.422 396.154 249.167 397.232C248.927 398.296 248.808 399.434 248.808 400.646ZM292.764 410.035C293.752 410.035 294.665 409.833 295.504 409.429C296.342 409.024 297.031 408.47 297.57 407.767C298.109 407.048 298.416 406.232 298.491 405.318H302.444C302.369 406.756 301.883 408.096 300.984 409.339C300.101 410.567 298.94 411.562 297.503 412.326C296.065 413.075 294.486 413.449 292.764 413.449C290.937 413.449 289.342 413.127 287.979 412.483C286.632 411.84 285.509 410.956 284.61 409.833C283.727 408.71 283.061 407.422 282.611 405.97C282.177 404.502 281.96 402.952 281.96 401.32V400.377C281.96 398.745 282.177 397.202 282.611 395.75C283.061 394.283 283.727 392.987 284.61 391.864C285.509 390.741 286.632 389.858 287.979 389.214C289.342 388.57 290.937 388.248 292.764 388.248C294.665 388.248 296.327 388.637 297.75 389.416C299.173 390.18 300.288 391.228 301.097 392.561C301.92 393.878 302.369 395.376 302.444 397.053H298.491C298.416 396.049 298.132 395.144 297.638 394.335C297.159 393.526 296.5 392.882 295.661 392.403C294.838 391.909 293.872 391.662 292.764 391.662C291.491 391.662 290.42 391.917 289.552 392.426C288.698 392.92 288.017 393.594 287.508 394.447C287.014 395.286 286.654 396.222 286.43 397.255C286.22 398.273 286.115 399.314 286.115 400.377V401.32C286.115 402.383 286.22 403.432 286.43 404.465C286.639 405.498 286.991 406.434 287.485 407.272C287.994 408.111 288.676 408.785 289.529 409.294C290.398 409.788 291.476 410.035 292.764 410.035ZM311.631 378.5V413H307.453V378.5H311.631ZM328.387 413.449C326.695 413.449 325.16 413.165 323.782 412.596C322.42 412.012 321.244 411.196 320.256 410.147C319.283 409.099 318.534 407.856 318.01 406.419C317.486 404.981 317.224 403.409 317.224 401.702V400.759C317.224 398.782 317.516 397.023 318.1 395.48C318.684 393.923 319.477 392.605 320.48 391.527C321.484 390.449 322.622 389.633 323.895 389.079C325.167 388.525 326.485 388.248 327.848 388.248C329.585 388.248 331.082 388.548 332.34 389.146C333.613 389.745 334.653 390.584 335.462 391.662C336.271 392.725 336.869 393.983 337.259 395.436C337.648 396.873 337.843 398.445 337.843 400.152V402.017H319.694V398.625H333.688V398.311C333.628 397.232 333.403 396.184 333.014 395.166C332.639 394.148 332.04 393.309 331.217 392.65C330.393 391.992 329.27 391.662 327.848 391.662C326.904 391.662 326.036 391.864 325.242 392.269C324.449 392.658 323.767 393.242 323.198 394.021C322.629 394.799 322.188 395.75 321.873 396.873C321.559 397.996 321.401 399.291 321.401 400.759V401.702C321.401 402.855 321.559 403.941 321.873 404.959C322.202 405.962 322.674 406.846 323.288 407.609C323.917 408.373 324.673 408.972 325.557 409.406C326.455 409.84 327.473 410.058 328.611 410.058C330.079 410.058 331.322 409.758 332.34 409.159C333.358 408.56 334.249 407.759 335.013 406.756L337.528 408.755C337.004 409.549 336.338 410.305 335.529 411.023C334.721 411.742 333.725 412.326 332.542 412.775C331.374 413.225 329.989 413.449 328.387 413.449ZM357.024 408.845V396.334C357.024 395.376 356.83 394.545 356.44 393.841C356.066 393.122 355.497 392.568 354.733 392.179C353.97 391.789 353.026 391.595 351.903 391.595C350.855 391.595 349.934 391.774 349.141 392.134C348.362 392.493 347.748 392.965 347.299 393.549C346.865 394.133 346.647 394.762 346.647 395.436H342.492C342.492 394.567 342.717 393.706 343.166 392.853C343.615 391.999 344.259 391.228 345.098 390.539C345.951 389.835 346.969 389.281 348.152 388.877C349.35 388.458 350.683 388.248 352.15 388.248C353.917 388.248 355.475 388.548 356.822 389.146C358.185 389.745 359.248 390.651 360.012 391.864C360.79 393.062 361.18 394.567 361.18 396.379V407.699C361.18 408.508 361.247 409.369 361.382 410.282C361.532 411.196 361.749 411.982 362.033 412.641V413H357.698C357.489 412.521 357.324 411.884 357.204 411.091C357.084 410.282 357.024 409.534 357.024 408.845ZM357.743 398.266L357.788 401.186H353.588C352.405 401.186 351.349 401.283 350.421 401.478C349.493 401.657 348.714 401.934 348.085 402.309C347.456 402.683 346.977 403.155 346.647 403.724C346.318 404.278 346.153 404.929 346.153 405.678C346.153 406.441 346.326 407.138 346.67 407.767C347.014 408.396 347.531 408.897 348.22 409.271C348.924 409.631 349.785 409.811 350.803 409.811C352.076 409.811 353.199 409.541 354.172 409.002C355.145 408.463 355.916 407.804 356.485 407.025C357.069 406.247 357.384 405.491 357.429 404.757L359.203 406.756C359.098 407.385 358.814 408.081 358.35 408.845C357.885 409.608 357.264 410.342 356.485 411.046C355.722 411.735 354.808 412.311 353.745 412.775C352.697 413.225 351.514 413.449 350.196 413.449C348.549 413.449 347.104 413.127 345.861 412.483C344.633 411.84 343.675 410.979 342.986 409.9C342.312 408.807 341.976 407.587 341.976 406.239C341.976 404.937 342.23 403.791 342.739 402.803C343.248 401.799 343.982 400.968 344.94 400.31C345.899 399.636 347.052 399.127 348.399 398.782C349.747 398.438 351.252 398.266 352.914 398.266H357.743ZM371.871 393.886V413H367.716V388.697H371.646L371.871 393.886ZM370.883 399.928L369.153 399.86C369.168 398.198 369.415 396.663 369.895 395.256C370.374 393.833 371.048 392.598 371.916 391.55C372.785 390.502 373.818 389.693 375.016 389.124C376.229 388.54 377.569 388.248 379.036 388.248C380.234 388.248 381.312 388.413 382.271 388.742C383.229 389.057 384.045 389.566 384.719 390.27C385.408 390.973 385.932 391.887 386.291 393.01C386.65 394.118 386.83 395.473 386.83 397.075V413H382.652V397.03C382.652 395.757 382.465 394.739 382.091 393.976C381.716 393.197 381.17 392.635 380.451 392.291C379.732 391.932 378.849 391.752 377.801 391.752C376.768 391.752 375.824 391.969 374.971 392.403C374.132 392.838 373.406 393.437 372.792 394.2C372.193 394.964 371.721 395.84 371.377 396.828C371.048 397.801 370.883 398.835 370.883 399.928ZM396.915 408.059V411.405C396.915 412.768 396.571 414.205 395.882 415.718C395.193 417.245 394.227 418.518 392.984 419.536L390.626 417.896C391.105 417.238 391.509 416.564 391.839 415.875C392.168 415.201 392.415 414.497 392.58 413.764C392.76 413.045 392.85 412.281 392.85 411.473V408.059H396.915ZM423.711 413.449C422.019 413.449 420.484 413.165 419.106 412.596C417.744 412.012 416.568 411.196 415.58 410.147C414.607 409.099 413.858 407.856 413.334 406.419C412.81 404.981 412.548 403.409 412.548 401.702V400.759C412.548 398.782 412.84 397.023 413.424 395.48C414.008 393.923 414.801 392.605 415.805 391.527C416.808 390.449 417.946 389.633 419.219 389.079C420.492 388.525 421.809 388.248 423.172 388.248C424.909 388.248 426.406 388.548 427.664 389.146C428.937 389.745 429.978 390.584 430.786 391.662C431.595 392.725 432.194 393.983 432.583 395.436C432.972 396.873 433.167 398.445 433.167 400.152V402.017H415.019V398.625H429.012V398.311C428.952 397.232 428.727 396.184 428.338 395.166C427.964 394.148 427.365 393.309 426.541 392.65C425.717 391.992 424.594 391.662 423.172 391.662C422.229 391.662 421.36 391.864 420.566 392.269C419.773 392.658 419.091 393.242 418.522 394.021C417.953 394.799 417.512 395.75 417.197 396.873C416.883 397.996 416.726 399.291 416.726 400.759V401.702C416.726 402.855 416.883 403.941 417.197 404.959C417.527 405.962 417.998 406.846 418.612 407.609C419.241 408.373 419.997 408.972 420.881 409.406C421.779 409.84 422.798 410.058 423.936 410.058C425.403 410.058 426.646 409.758 427.664 409.159C428.682 408.56 429.573 407.759 430.337 406.756L432.853 408.755C432.328 409.549 431.662 410.305 430.854 411.023C430.045 411.742 429.049 412.326 427.866 412.775C426.698 413.225 425.313 413.449 423.711 413.449ZM444.218 413H440.062V386.137C440.062 384.385 440.377 382.91 441.006 381.712C441.65 380.499 442.571 379.586 443.769 378.972C444.966 378.343 446.389 378.028 448.036 378.028C448.515 378.028 448.994 378.058 449.474 378.118C449.968 378.178 450.447 378.268 450.911 378.388L450.687 381.779C450.372 381.704 450.013 381.652 449.608 381.622C449.219 381.592 448.83 381.577 448.44 381.577C447.557 381.577 446.793 381.757 446.149 382.116C445.521 382.461 445.041 382.97 444.712 383.644C444.382 384.317 444.218 385.148 444.218 386.137V413ZM449.608 388.697V391.887H436.222V388.697H449.608ZM457.357 413H453.202V386.586C453.202 384.744 453.554 383.187 454.258 381.914C454.977 380.641 456.002 379.675 457.335 379.017C458.668 378.358 460.247 378.028 462.074 378.028C463.167 378.028 464.23 378.163 465.264 378.433C466.297 378.687 467.36 379.009 468.453 379.398L467.734 382.902C467.061 382.633 466.267 382.378 465.354 382.139C464.44 381.884 463.452 381.757 462.389 381.757C460.607 381.757 459.319 382.161 458.525 382.97C457.747 383.763 457.357 384.969 457.357 386.586V413ZM462.321 388.697V391.887H449.361V388.697H462.321ZM470.497 388.697V413H466.342V388.697H470.497ZM487.006 410.035C487.994 410.035 488.908 409.833 489.746 409.429C490.585 409.024 491.273 408.47 491.812 407.767C492.352 407.048 492.659 406.232 492.733 405.318H496.687C496.612 406.756 496.125 408.096 495.227 409.339C494.343 410.567 493.183 411.562 491.745 412.326C490.308 413.075 488.728 413.449 487.006 413.449C485.179 413.449 483.584 413.127 482.222 412.483C480.874 411.84 479.751 410.956 478.853 409.833C477.969 408.71 477.303 407.422 476.854 405.97C476.419 404.502 476.202 402.952 476.202 401.32V400.377C476.202 398.745 476.419 397.202 476.854 395.75C477.303 394.283 477.969 392.987 478.853 391.864C479.751 390.741 480.874 389.858 482.222 389.214C483.584 388.57 485.179 388.248 487.006 388.248C488.908 388.248 490.57 388.637 491.992 389.416C493.415 390.18 494.53 391.228 495.339 392.561C496.162 393.878 496.612 395.376 496.687 397.053H492.733C492.659 396.049 492.374 395.144 491.88 394.335C491.401 393.526 490.742 392.882 489.903 392.403C489.08 391.909 488.114 391.662 487.006 391.662C485.733 391.662 484.662 391.917 483.794 392.426C482.94 392.92 482.259 393.594 481.75 394.447C481.256 395.286 480.896 396.222 480.672 397.255C480.462 398.273 480.357 399.314 480.357 400.377V401.32C480.357 402.383 480.462 403.432 480.672 404.465C480.882 405.498 481.233 406.434 481.728 407.272C482.237 408.111 482.918 408.785 483.771 409.294C484.64 409.788 485.718 410.035 487.006 410.035ZM505.873 388.697V413H501.695V388.697H505.873ZM501.381 382.251C501.381 381.577 501.583 381.008 501.987 380.544C502.407 380.08 503.021 379.848 503.829 379.848C504.623 379.848 505.229 380.08 505.648 380.544C506.083 381.008 506.3 381.577 506.3 382.251C506.3 382.895 506.083 383.449 505.648 383.913C505.229 384.362 504.623 384.587 503.829 384.587C503.021 384.587 502.407 384.362 501.987 383.913C501.583 383.449 501.381 382.895 501.381 382.251ZM522.629 413.449C520.937 413.449 519.402 413.165 518.024 412.596C516.662 412.012 515.486 411.196 514.498 410.147C513.525 409.099 512.776 407.856 512.252 406.419C511.728 404.981 511.466 403.409 511.466 401.702V400.759C511.466 398.782 511.758 397.023 512.342 395.48C512.926 393.923 513.719 392.605 514.723 391.527C515.726 390.449 516.864 389.633 518.137 389.079C519.41 388.525 520.727 388.248 522.09 388.248C523.827 388.248 525.324 388.548 526.582 389.146C527.855 389.745 528.896 390.584 529.704 391.662C530.513 392.725 531.112 393.983 531.501 395.436C531.89 396.873 532.085 398.445 532.085 400.152V402.017H513.937V398.625H527.93V398.311C527.87 397.232 527.645 396.184 527.256 395.166C526.882 394.148 526.283 393.309 525.459 392.65C524.635 391.992 523.512 391.662 522.09 391.662C521.146 391.662 520.278 391.864 519.484 392.269C518.691 392.658 518.009 393.242 517.44 394.021C516.871 394.799 516.43 395.75 516.115 396.873C515.801 397.996 515.644 399.291 515.644 400.759V401.702C515.644 402.855 515.801 403.941 516.115 404.959C516.445 405.962 516.916 406.846 517.53 407.609C518.159 408.373 518.915 408.972 519.799 409.406C520.697 409.84 521.715 410.058 522.854 410.058C524.321 410.058 525.564 409.758 526.582 409.159C527.6 408.56 528.491 407.759 529.255 406.756L531.771 408.755C531.246 409.549 530.58 410.305 529.771 411.023C528.963 411.742 527.967 412.326 526.784 412.775C525.616 413.225 524.231 413.449 522.629 413.449ZM541.092 393.886V413H536.937V388.697H540.867L541.092 393.886ZM540.104 399.928L538.374 399.86C538.389 398.198 538.636 396.663 539.115 395.256C539.594 393.833 540.268 392.598 541.137 391.55C542.005 390.502 543.038 389.693 544.236 389.124C545.449 388.54 546.789 388.248 548.257 388.248C549.455 388.248 550.533 388.413 551.491 388.742C552.45 389.057 553.266 389.566 553.939 390.27C554.628 390.973 555.152 391.887 555.512 393.01C555.871 394.118 556.051 395.473 556.051 397.075V413H551.873V397.03C551.873 395.757 551.686 394.739 551.312 393.976C550.937 393.197 550.391 392.635 549.672 392.291C548.953 391.932 548.07 391.752 547.021 391.752C545.988 391.752 545.045 391.969 544.191 392.403C543.353 392.838 542.627 393.437 542.013 394.2C541.414 394.964 540.942 395.84 540.598 396.828C540.268 397.801 540.104 398.835 540.104 399.928ZM572.537 388.697V391.887H559.397V388.697H572.537ZM563.845 382.79H568V406.98C568 407.804 568.127 408.425 568.382 408.845C568.636 409.264 568.966 409.541 569.37 409.676C569.774 409.811 570.209 409.878 570.673 409.878C571.017 409.878 571.377 409.848 571.751 409.788C572.14 409.713 572.432 409.653 572.627 409.608L572.649 413C572.32 413.105 571.886 413.202 571.347 413.292C570.823 413.397 570.186 413.449 569.438 413.449C568.419 413.449 567.483 413.247 566.63 412.843C565.776 412.438 565.095 411.765 564.586 410.821C564.092 409.863 563.845 408.575 563.845 406.958V382.79ZM581.185 408.059V411.405C581.185 412.768 580.84 414.205 580.151 415.718C579.463 417.245 578.497 418.518 577.254 419.536L574.896 417.896C575.375 417.238 575.779 416.564 576.108 415.875C576.438 415.201 576.685 414.497 576.85 413.764C577.029 413.045 577.119 412.281 577.119 411.473V408.059H581.185ZM612.226 408.845V396.334C612.226 395.376 612.031 394.545 611.642 393.841C611.267 393.122 610.698 392.568 609.935 392.179C609.171 391.789 608.228 391.595 607.104 391.595C606.056 391.595 605.135 391.774 604.342 392.134C603.563 392.493 602.949 392.965 602.5 393.549C602.066 394.133 601.849 394.762 601.849 395.436H597.693C597.693 394.567 597.918 393.706 598.367 392.853C598.816 391.999 599.46 391.228 600.299 390.539C601.152 389.835 602.171 389.281 603.354 388.877C604.551 388.458 605.884 388.248 607.352 388.248C609.118 388.248 610.676 388.548 612.023 389.146C613.386 389.745 614.449 390.651 615.213 391.864C615.992 393.062 616.381 394.567 616.381 396.379V407.699C616.381 408.508 616.448 409.369 616.583 410.282C616.733 411.196 616.95 411.982 617.234 412.641V413H612.899C612.69 412.521 612.525 411.884 612.405 411.091C612.285 410.282 612.226 409.534 612.226 408.845ZM612.944 398.266L612.989 401.186H608.789C607.606 401.186 606.55 401.283 605.622 401.478C604.694 401.657 603.915 401.934 603.286 402.309C602.657 402.683 602.178 403.155 601.849 403.724C601.519 404.278 601.354 404.929 601.354 405.678C601.354 406.441 601.527 407.138 601.871 407.767C602.215 408.396 602.732 408.897 603.421 409.271C604.125 409.631 604.986 409.811 606.004 409.811C607.277 409.811 608.4 409.541 609.373 409.002C610.346 408.463 611.118 407.804 611.687 407.025C612.271 406.247 612.585 405.491 612.63 404.757L614.404 406.756C614.299 407.385 614.015 408.081 613.551 408.845C613.087 409.608 612.465 410.342 611.687 411.046C610.923 411.735 610.009 412.311 608.946 412.775C607.898 413.225 606.715 413.449 605.397 413.449C603.75 413.449 602.305 413.127 601.062 412.483C599.835 411.84 598.876 410.979 598.188 409.9C597.514 408.807 597.177 407.587 597.177 406.239C597.177 404.937 597.431 403.791 597.94 402.803C598.45 401.799 599.183 400.968 600.142 400.31C601.1 399.636 602.253 399.127 603.601 398.782C604.948 398.438 606.453 398.266 608.115 398.266H612.944ZM627.072 393.886V413H622.917V388.697H626.848L627.072 393.886ZM626.084 399.928L624.354 399.86C624.369 398.198 624.617 396.663 625.096 395.256C625.575 393.833 626.249 392.598 627.117 391.55C627.986 390.502 629.019 389.693 630.217 389.124C631.43 388.54 632.77 388.248 634.237 388.248C635.435 388.248 636.513 388.413 637.472 388.742C638.43 389.057 639.246 389.566 639.92 390.27C640.609 390.973 641.133 391.887 641.492 393.01C641.852 394.118 642.031 395.473 642.031 397.075V413H637.854V397.03C637.854 395.757 637.666 394.739 637.292 393.976C636.918 393.197 636.371 392.635 635.652 392.291C634.934 391.932 634.05 391.752 633.002 391.752C631.969 391.752 631.025 391.969 630.172 392.403C629.333 392.838 628.607 393.437 627.993 394.2C627.394 394.964 626.923 395.84 626.578 396.828C626.249 397.801 626.084 398.835 626.084 399.928ZM663.661 408.283V378.5H667.839V413H664.021L663.661 408.283ZM647.31 401.118V400.646C647.31 398.79 647.534 397.105 647.983 395.593C648.448 394.065 649.099 392.755 649.938 391.662C650.791 390.569 651.802 389.73 652.97 389.146C654.153 388.548 655.47 388.248 656.923 388.248C658.45 388.248 659.783 388.518 660.921 389.057C662.074 389.581 663.047 390.352 663.841 391.37C664.649 392.373 665.286 393.586 665.75 395.009C666.214 396.431 666.536 398.041 666.716 399.838V401.904C666.551 403.686 666.229 405.288 665.75 406.711C665.286 408.133 664.649 409.346 663.841 410.35C663.047 411.353 662.074 412.124 660.921 412.663C659.768 413.187 658.42 413.449 656.878 413.449C655.455 413.449 654.153 413.142 652.97 412.528C651.802 411.914 650.791 411.053 649.938 409.945C649.099 408.837 648.448 407.535 647.983 406.037C647.534 404.525 647.31 402.885 647.31 401.118ZM651.487 400.646V401.118C651.487 402.331 651.607 403.469 651.847 404.532C652.101 405.595 652.491 406.531 653.015 407.34C653.539 408.148 654.205 408.785 655.014 409.249C655.822 409.698 656.788 409.923 657.911 409.923C659.289 409.923 660.419 409.631 661.303 409.047C662.201 408.463 662.92 407.692 663.459 406.733C663.998 405.775 664.417 404.734 664.717 403.611V398.198C664.537 397.375 664.275 396.581 663.931 395.817C663.601 395.039 663.167 394.35 662.628 393.751C662.104 393.137 661.452 392.65 660.674 392.291C659.91 391.932 659.004 391.752 657.956 391.752C656.818 391.752 655.837 391.992 655.014 392.471C654.205 392.935 653.539 393.579 653.015 394.402C652.491 395.211 652.101 396.154 651.847 397.232C651.607 398.296 651.487 399.434 651.487 400.646ZM699.868 406.554C699.868 405.955 699.733 405.401 699.464 404.892C699.209 404.368 698.678 403.896 697.869 403.477C697.076 403.042 695.878 402.668 694.275 402.354C692.928 402.069 691.707 401.732 690.614 401.343C689.536 400.953 688.615 400.482 687.852 399.928C687.103 399.374 686.526 398.722 686.122 397.974C685.718 397.225 685.516 396.349 685.516 395.346C685.516 394.387 685.725 393.481 686.145 392.628C686.579 391.774 687.185 391.018 687.964 390.359C688.757 389.701 689.708 389.184 690.816 388.81C691.924 388.435 693.16 388.248 694.522 388.248C696.469 388.248 698.131 388.592 699.509 389.281C700.886 389.97 701.942 390.891 702.676 392.044C703.41 393.182 703.776 394.447 703.776 395.84H699.621C699.621 395.166 699.419 394.515 699.015 393.886C698.625 393.242 698.049 392.71 697.285 392.291C696.536 391.872 695.616 391.662 694.522 391.662C693.369 391.662 692.434 391.842 691.715 392.201C691.011 392.546 690.494 392.987 690.165 393.526C689.851 394.065 689.693 394.634 689.693 395.233C689.693 395.683 689.768 396.087 689.918 396.446C690.083 396.791 690.367 397.113 690.771 397.412C691.176 397.697 691.745 397.966 692.479 398.221C693.212 398.475 694.148 398.73 695.286 398.984C697.278 399.434 698.917 399.973 700.205 400.602C701.493 401.23 702.451 402.002 703.08 402.915C703.709 403.828 704.023 404.937 704.023 406.239C704.023 407.302 703.799 408.276 703.35 409.159C702.915 410.043 702.279 410.806 701.44 411.45C700.617 412.079 699.629 412.573 698.476 412.933C697.338 413.277 696.057 413.449 694.635 413.449C692.493 413.449 690.682 413.067 689.199 412.304C687.717 411.54 686.594 410.552 685.83 409.339C685.066 408.126 684.685 406.846 684.685 405.498H688.862C688.922 406.636 689.252 407.542 689.851 408.216C690.45 408.875 691.183 409.346 692.052 409.631C692.92 409.9 693.781 410.035 694.635 410.035C695.773 410.035 696.724 409.885 697.487 409.586C698.266 409.286 698.857 408.875 699.262 408.351C699.666 407.826 699.868 407.228 699.868 406.554ZM719.207 410.035C720.195 410.035 721.109 409.833 721.947 409.429C722.786 409.024 723.475 408.47 724.014 407.767C724.553 407.048 724.86 406.232 724.935 405.318H728.888C728.813 406.756 728.326 408.096 727.428 409.339C726.544 410.567 725.384 411.562 723.946 412.326C722.509 413.075 720.929 413.449 719.207 413.449C717.38 413.449 715.785 413.127 714.423 412.483C713.075 411.84 711.952 410.956 711.054 409.833C710.17 408.71 709.504 407.422 709.055 405.97C708.62 404.502 708.403 402.952 708.403 401.32V400.377C708.403 398.745 708.62 397.202 709.055 395.75C709.504 394.283 710.17 392.987 711.054 391.864C711.952 390.741 713.075 389.858 714.423 389.214C715.785 388.57 717.38 388.248 719.207 388.248C721.109 388.248 722.771 388.637 724.193 389.416C725.616 390.18 726.731 391.228 727.54 392.561C728.364 393.878 728.813 395.376 728.888 397.053H724.935C724.86 396.049 724.575 395.144 724.081 394.335C723.602 393.526 722.943 392.882 722.104 392.403C721.281 391.909 720.315 391.662 719.207 391.662C717.934 391.662 716.864 391.917 715.995 392.426C715.142 392.92 714.46 393.594 713.951 394.447C713.457 395.286 713.098 396.222 712.873 397.255C712.663 398.273 712.559 399.314 712.559 400.377V401.32C712.559 402.383 712.663 403.432 712.873 404.465C713.083 405.498 713.435 406.434 713.929 407.272C714.438 408.111 715.119 408.785 715.973 409.294C716.841 409.788 717.919 410.035 719.207 410.035ZM747.89 408.845V396.334C747.89 395.376 747.695 394.545 747.306 393.841C746.931 393.122 746.362 392.568 745.599 392.179C744.835 391.789 743.892 391.595 742.769 391.595C741.72 391.595 740.799 391.774 740.006 392.134C739.227 392.493 738.613 392.965 738.164 393.549C737.73 394.133 737.513 394.762 737.513 395.436H733.357C733.357 394.567 733.582 393.706 734.031 392.853C734.48 391.999 735.124 391.228 735.963 390.539C736.816 389.835 737.835 389.281 739.018 388.877C740.215 388.458 741.548 388.248 743.016 388.248C744.783 388.248 746.34 388.548 747.688 389.146C749.05 389.745 750.113 390.651 750.877 391.864C751.656 393.062 752.045 394.567 752.045 396.379V407.699C752.045 408.508 752.112 409.369 752.247 410.282C752.397 411.196 752.614 411.982 752.898 412.641V413H748.563C748.354 412.521 748.189 411.884 748.069 411.091C747.95 410.282 747.89 409.534 747.89 408.845ZM748.608 398.266L748.653 401.186H744.453C743.27 401.186 742.215 401.283 741.286 401.478C740.358 401.657 739.579 401.934 738.95 402.309C738.321 402.683 737.842 403.155 737.513 403.724C737.183 404.278 737.019 404.929 737.019 405.678C737.019 406.441 737.191 407.138 737.535 407.767C737.88 408.396 738.396 408.897 739.085 409.271C739.789 409.631 740.65 409.811 741.668 409.811C742.941 409.811 744.064 409.541 745.037 409.002C746.01 408.463 746.782 407.804 747.351 407.025C747.935 406.247 748.249 405.491 748.294 404.757L750.068 406.756C749.964 407.385 749.679 408.081 749.215 408.845C748.751 409.608 748.129 410.342 747.351 411.046C746.587 411.735 745.674 412.311 744.61 412.775C743.562 413.225 742.379 413.449 741.062 413.449C739.414 413.449 737.969 413.127 736.727 412.483C735.499 411.84 734.54 410.979 733.852 409.9C733.178 408.807 732.841 407.587 732.841 406.239C732.841 404.937 733.095 403.791 733.604 402.803C734.114 401.799 734.847 400.968 735.806 400.31C736.764 399.636 737.917 399.127 739.265 398.782C740.612 398.438 742.117 398.266 743.779 398.266H748.608ZM763.096 378.5V413H758.918V378.5H763.096ZM784.097 408.845V396.334C784.097 395.376 783.902 394.545 783.513 393.841C783.138 393.122 782.569 392.568 781.806 392.179C781.042 391.789 780.099 391.595 778.976 391.595C777.927 391.595 777.007 391.774 776.213 392.134C775.434 392.493 774.82 392.965 774.371 393.549C773.937 394.133 773.72 394.762 773.72 395.436H769.564C769.564 394.567 769.789 393.706 770.238 392.853C770.688 391.999 771.331 391.228 772.17 390.539C773.023 389.835 774.042 389.281 775.225 388.877C776.423 388.458 777.755 388.248 779.223 388.248C780.99 388.248 782.547 388.548 783.895 389.146C785.257 389.745 786.32 390.651 787.084 391.864C787.863 393.062 788.252 394.567 788.252 396.379V407.699C788.252 408.508 788.319 409.369 788.454 410.282C788.604 411.196 788.821 411.982 789.105 412.641V413H784.771C784.561 412.521 784.396 411.884 784.276 411.091C784.157 410.282 784.097 409.534 784.097 408.845ZM784.815 398.266L784.86 401.186H780.66C779.477 401.186 778.422 401.283 777.493 401.478C776.565 401.657 775.786 401.934 775.157 402.309C774.528 402.683 774.049 403.155 773.72 403.724C773.39 404.278 773.226 404.929 773.226 405.678C773.226 406.441 773.398 407.138 773.742 407.767C774.087 408.396 774.603 408.897 775.292 409.271C775.996 409.631 776.857 409.811 777.875 409.811C779.148 409.811 780.271 409.541 781.244 409.002C782.217 408.463 782.989 407.804 783.558 407.025C784.142 406.247 784.456 405.491 784.501 404.757L786.275 406.756C786.171 407.385 785.886 408.081 785.422 408.845C784.958 409.608 784.336 410.342 783.558 411.046C782.794 411.735 781.881 412.311 780.817 412.775C779.769 413.225 778.586 413.449 777.269 413.449C775.621 413.449 774.176 413.127 772.934 412.483C771.706 411.84 770.747 410.979 770.059 409.9C769.385 408.807 769.048 407.587 769.048 406.239C769.048 404.937 769.302 403.791 769.812 402.803C770.321 401.799 771.054 400.968 772.013 400.31C772.971 399.636 774.124 399.127 775.472 398.782C776.819 398.438 778.324 398.266 779.986 398.266H784.815ZM794.766 378.5H798.943V408.283L798.584 413H794.766V378.5ZM815.362 400.646V401.118C815.362 402.885 815.153 404.525 814.733 406.037C814.314 407.535 813.7 408.837 812.892 409.945C812.083 411.053 811.095 411.914 809.927 412.528C808.759 413.142 807.419 413.449 805.906 413.449C804.364 413.449 803.009 413.187 801.841 412.663C800.688 412.124 799.715 411.353 798.921 410.35C798.127 409.346 797.491 408.133 797.012 406.711C796.548 405.288 796.226 403.686 796.046 401.904V399.838C796.226 398.041 796.548 396.431 797.012 395.009C797.491 393.586 798.127 392.373 798.921 391.37C799.715 390.352 800.688 389.581 801.841 389.057C802.994 388.518 804.334 388.248 805.861 388.248C807.389 388.248 808.744 388.548 809.927 389.146C811.11 389.73 812.098 390.569 812.892 391.662C813.7 392.755 814.314 394.065 814.733 395.593C815.153 397.105 815.362 398.79 815.362 400.646ZM811.185 401.118V400.646C811.185 399.434 811.072 398.296 810.848 397.232C810.623 396.154 810.264 395.211 809.77 394.402C809.275 393.579 808.624 392.935 807.815 392.471C807.007 391.992 806.011 391.752 804.828 391.752C803.78 391.752 802.867 391.932 802.088 392.291C801.324 392.65 800.673 393.137 800.134 393.751C799.595 394.35 799.153 395.039 798.809 395.817C798.479 396.581 798.232 397.375 798.067 398.198V403.611C798.307 404.66 798.696 405.67 799.235 406.644C799.789 407.602 800.523 408.388 801.437 409.002C802.365 409.616 803.51 409.923 804.873 409.923C805.996 409.923 806.954 409.698 807.748 409.249C808.557 408.785 809.208 408.148 809.702 407.34C810.211 406.531 810.586 405.595 810.825 404.532C811.065 403.469 811.185 402.331 811.185 401.118ZM825.133 378.5V413H820.955V378.5H825.133ZM841.889 413.449C840.197 413.449 838.662 413.165 837.284 412.596C835.922 412.012 834.746 411.196 833.758 410.147C832.785 409.099 832.036 407.856 831.512 406.419C830.988 404.981 830.726 403.409 830.726 401.702V400.759C830.726 398.782 831.018 397.023 831.602 395.48C832.186 393.923 832.979 392.605 833.982 391.527C834.986 390.449 836.124 389.633 837.396 389.079C838.669 388.525 839.987 388.248 841.35 388.248C843.087 388.248 844.584 388.548 845.842 389.146C847.115 389.745 848.155 390.584 848.964 391.662C849.772 392.725 850.371 393.983 850.761 395.436C851.15 396.873 851.345 398.445 851.345 400.152V402.017H833.196V398.625H847.189V398.311C847.13 397.232 846.905 396.184 846.516 395.166C846.141 394.148 845.542 393.309 844.719 392.65C843.895 391.992 842.772 391.662 841.35 391.662C840.406 391.662 839.538 391.864 838.744 392.269C837.951 392.658 837.269 393.242 836.7 394.021C836.131 394.799 835.689 395.75 835.375 396.873C835.061 397.996 834.903 399.291 834.903 400.759V401.702C834.903 402.855 835.061 403.941 835.375 404.959C835.704 405.962 836.176 406.846 836.79 407.609C837.419 408.373 838.175 408.972 839.059 409.406C839.957 409.84 840.975 410.058 842.113 410.058C843.581 410.058 844.824 409.758 845.842 409.159C846.86 408.56 847.751 407.759 848.515 406.756L851.03 408.755C850.506 409.549 849.84 410.305 849.031 411.023C848.223 411.742 847.227 412.326 846.044 412.775C844.876 413.225 843.491 413.449 841.889 413.449ZM271.74 467H267.585V440.137C267.585 438.385 267.899 436.91 268.528 435.712C269.172 434.499 270.093 433.586 271.291 432.972C272.489 432.343 273.911 432.028 275.559 432.028C276.038 432.028 276.517 432.058 276.996 432.118C277.49 432.178 277.969 432.268 278.434 432.388L278.209 435.779C277.895 435.704 277.535 435.652 277.131 435.622C276.742 435.592 276.352 435.577 275.963 435.577C275.079 435.577 274.316 435.757 273.672 436.116C273.043 436.461 272.564 436.97 272.234 437.644C271.905 438.317 271.74 439.148 271.74 440.137V467ZM276.906 442.697V445.887H263.744V442.697H276.906ZM285.688 446.516V467H281.533V442.697H285.576L285.688 446.516ZM293.28 442.562L293.258 446.426C292.913 446.351 292.584 446.306 292.27 446.291C291.97 446.261 291.626 446.246 291.236 446.246C290.278 446.246 289.432 446.396 288.698 446.695C287.965 446.995 287.343 447.414 286.834 447.953C286.325 448.492 285.921 449.136 285.621 449.885C285.337 450.618 285.149 451.427 285.06 452.311L283.892 452.984C283.892 451.517 284.034 450.139 284.318 448.852C284.618 447.564 285.075 446.426 285.688 445.438C286.302 444.434 287.081 443.656 288.024 443.102C288.983 442.533 290.121 442.248 291.438 442.248C291.738 442.248 292.082 442.285 292.472 442.36C292.861 442.42 293.131 442.488 293.28 442.562ZM295.571 455.118V454.602C295.571 452.85 295.826 451.225 296.335 449.728C296.844 448.215 297.578 446.905 298.536 445.797C299.494 444.674 300.655 443.805 302.018 443.191C303.38 442.562 304.908 442.248 306.6 442.248C308.307 442.248 309.841 442.562 311.204 443.191C312.582 443.805 313.75 444.674 314.708 445.797C315.681 446.905 316.423 448.215 316.932 449.728C317.441 451.225 317.695 452.85 317.695 454.602V455.118C317.695 456.87 317.441 458.495 316.932 459.992C316.423 461.49 315.681 462.8 314.708 463.923C313.75 465.031 312.589 465.899 311.227 466.528C309.879 467.142 308.352 467.449 306.645 467.449C304.938 467.449 303.403 467.142 302.04 466.528C300.677 465.899 299.509 465.031 298.536 463.923C297.578 462.8 296.844 461.49 296.335 459.992C295.826 458.495 295.571 456.87 295.571 455.118ZM299.727 454.602V455.118C299.727 456.331 299.869 457.477 300.153 458.555C300.438 459.618 300.865 460.561 301.434 461.385C302.018 462.208 302.744 462.86 303.612 463.339C304.481 463.803 305.492 464.035 306.645 464.035C307.783 464.035 308.778 463.803 309.632 463.339C310.5 462.86 311.219 462.208 311.788 461.385C312.357 460.561 312.784 459.618 313.068 458.555C313.368 457.477 313.518 456.331 313.518 455.118V454.602C313.518 453.404 313.368 452.273 313.068 451.21C312.784 450.132 312.35 449.181 311.766 448.357C311.197 447.519 310.478 446.86 309.609 446.381C308.756 445.902 307.753 445.662 306.6 445.662C305.462 445.662 304.458 445.902 303.59 446.381C302.736 446.86 302.018 447.519 301.434 448.357C300.865 449.181 300.438 450.132 300.153 451.21C299.869 452.273 299.727 453.404 299.727 454.602ZM327.062 447.886V467H322.906V442.697H326.837L327.062 447.886ZM326.073 453.928L324.344 453.86C324.359 452.198 324.606 450.663 325.085 449.256C325.564 447.833 326.238 446.598 327.106 445.55C327.975 444.502 329.008 443.693 330.206 443.124C331.419 442.54 332.759 442.248 334.227 442.248C335.424 442.248 336.503 442.413 337.461 442.742C338.419 443.057 339.235 443.566 339.909 444.27C340.598 444.973 341.122 445.887 341.481 447.01C341.841 448.118 342.021 449.473 342.021 451.075V467H337.843V451.03C337.843 449.757 337.656 448.739 337.281 447.976C336.907 447.197 336.36 446.635 335.642 446.291C334.923 445.932 334.039 445.752 332.991 445.752C331.958 445.752 331.015 445.969 330.161 446.403C329.323 446.838 328.596 447.437 327.982 448.2C327.383 448.964 326.912 449.84 326.567 450.828C326.238 451.801 326.073 452.835 326.073 453.928ZM358.507 442.697V445.887H345.367V442.697H358.507ZM349.814 436.79H353.97V460.98C353.97 461.804 354.097 462.425 354.352 462.845C354.606 463.264 354.936 463.541 355.34 463.676C355.744 463.811 356.178 463.878 356.643 463.878C356.987 463.878 357.346 463.848 357.721 463.788C358.11 463.713 358.402 463.653 358.597 463.608L358.619 467C358.29 467.105 357.855 467.202 357.316 467.292C356.792 467.397 356.156 467.449 355.407 467.449C354.389 467.449 353.453 467.247 352.6 466.843C351.746 466.438 351.065 465.765 350.556 464.821C350.062 463.863 349.814 462.575 349.814 460.958V436.79ZM372.028 451.39V454.804H361.067V451.39H372.028ZM386.179 467.449C384.487 467.449 382.952 467.165 381.574 466.596C380.212 466.012 379.036 465.196 378.048 464.147C377.075 463.099 376.326 461.856 375.802 460.419C375.278 458.981 375.016 457.409 375.016 455.702V454.759C375.016 452.782 375.308 451.023 375.892 449.48C376.476 447.923 377.269 446.605 378.272 445.527C379.276 444.449 380.414 443.633 381.687 443.079C382.959 442.525 384.277 442.248 385.64 442.248C387.377 442.248 388.874 442.548 390.132 443.146C391.405 443.745 392.445 444.584 393.254 445.662C394.062 446.725 394.661 447.983 395.051 449.436C395.44 450.873 395.635 452.445 395.635 454.152V456.017H377.486V452.625H391.479V452.311C391.42 451.232 391.195 450.184 390.806 449.166C390.431 448.148 389.832 447.309 389.009 446.65C388.185 445.992 387.062 445.662 385.64 445.662C384.696 445.662 383.828 445.864 383.034 446.269C382.241 446.658 381.559 447.242 380.99 448.021C380.421 448.799 379.979 449.75 379.665 450.873C379.351 451.996 379.193 453.291 379.193 454.759V455.702C379.193 456.855 379.351 457.941 379.665 458.959C379.994 459.962 380.466 460.846 381.08 461.609C381.709 462.373 382.465 462.972 383.349 463.406C384.247 463.84 385.265 464.058 386.403 464.058C387.871 464.058 389.114 463.758 390.132 463.159C391.15 462.56 392.041 461.759 392.805 460.756L395.32 462.755C394.796 463.549 394.13 464.305 393.321 465.023C392.513 465.742 391.517 466.326 390.334 466.775C389.166 467.225 387.781 467.449 386.179 467.449ZM404.642 447.886V467H400.486V442.697H404.417L404.642 447.886ZM403.653 453.928L401.924 453.86C401.939 452.198 402.186 450.663 402.665 449.256C403.144 447.833 403.818 446.598 404.687 445.55C405.555 444.502 406.588 443.693 407.786 443.124C408.999 442.54 410.339 442.248 411.807 442.248C413.005 442.248 414.083 442.413 415.041 442.742C415.999 443.057 416.815 443.566 417.489 444.27C418.178 444.973 418.702 445.887 419.062 447.01C419.421 448.118 419.601 449.473 419.601 451.075V467H415.423V451.03C415.423 449.757 415.236 448.739 414.861 447.976C414.487 447.197 413.94 446.635 413.222 446.291C412.503 445.932 411.619 445.752 410.571 445.752C409.538 445.752 408.595 445.969 407.741 446.403C406.903 446.838 406.176 447.437 405.562 448.2C404.964 448.964 404.492 449.84 404.147 450.828C403.818 451.801 403.653 452.835 403.653 453.928ZM441.23 462.283V432.5H445.408V467H441.59L441.23 462.283ZM424.879 455.118V454.646C424.879 452.79 425.104 451.105 425.553 449.593C426.017 448.065 426.668 446.755 427.507 445.662C428.36 444.569 429.371 443.73 430.539 443.146C431.722 442.548 433.04 442.248 434.492 442.248C436.02 442.248 437.352 442.518 438.49 443.057C439.643 443.581 440.617 444.352 441.41 445.37C442.219 446.373 442.855 447.586 443.319 449.009C443.784 450.431 444.105 452.041 444.285 453.838V455.904C444.12 457.686 443.799 459.288 443.319 460.711C442.855 462.133 442.219 463.346 441.41 464.35C440.617 465.353 439.643 466.124 438.49 466.663C437.337 467.187 435.99 467.449 434.447 467.449C433.025 467.449 431.722 467.142 430.539 466.528C429.371 465.914 428.36 465.053 427.507 463.945C426.668 462.837 426.017 461.535 425.553 460.037C425.104 458.525 424.879 456.885 424.879 455.118ZM429.057 454.646V455.118C429.057 456.331 429.176 457.469 429.416 458.532C429.671 459.595 430.06 460.531 430.584 461.34C431.108 462.148 431.774 462.785 432.583 463.249C433.392 463.698 434.357 463.923 435.48 463.923C436.858 463.923 437.989 463.631 438.872 463.047C439.771 462.463 440.489 461.692 441.028 460.733C441.567 459.775 441.987 458.734 442.286 457.611V452.198C442.106 451.375 441.844 450.581 441.5 449.817C441.171 449.039 440.736 448.35 440.197 447.751C439.673 447.137 439.022 446.65 438.243 446.291C437.479 445.932 436.574 445.752 435.525 445.752C434.387 445.752 433.407 445.992 432.583 446.471C431.774 446.935 431.108 447.579 430.584 448.402C430.06 449.211 429.671 450.154 429.416 451.232C429.176 452.296 429.057 453.434 429.057 454.646ZM477.617 462.845V450.334C477.617 449.376 477.423 448.545 477.033 447.841C476.659 447.122 476.09 446.568 475.326 446.179C474.562 445.789 473.619 445.595 472.496 445.595C471.448 445.595 470.527 445.774 469.733 446.134C468.955 446.493 468.341 446.965 467.892 447.549C467.457 448.133 467.24 448.762 467.24 449.436H463.085C463.085 448.567 463.31 447.706 463.759 446.853C464.208 445.999 464.852 445.228 465.69 444.539C466.544 443.835 467.562 443.281 468.745 442.877C469.943 442.458 471.276 442.248 472.743 442.248C474.51 442.248 476.067 442.548 477.415 443.146C478.778 443.745 479.841 444.651 480.604 445.864C481.383 447.062 481.772 448.567 481.772 450.379V461.699C481.772 462.508 481.84 463.369 481.975 464.282C482.124 465.196 482.341 465.982 482.626 466.641V467H478.291C478.081 466.521 477.917 465.884 477.797 465.091C477.677 464.282 477.617 463.534 477.617 462.845ZM478.336 452.266L478.381 455.186H474.181C472.998 455.186 471.942 455.283 471.014 455.478C470.085 455.657 469.307 455.934 468.678 456.309C468.049 456.683 467.57 457.155 467.24 457.724C466.911 458.278 466.746 458.929 466.746 459.678C466.746 460.441 466.918 461.138 467.263 461.767C467.607 462.396 468.124 462.897 468.812 463.271C469.516 463.631 470.377 463.811 471.396 463.811C472.668 463.811 473.791 463.541 474.765 463.002C475.738 462.463 476.509 461.804 477.078 461.025C477.662 460.247 477.977 459.491 478.021 458.757L479.796 460.756C479.691 461.385 479.407 462.081 478.942 462.845C478.478 463.608 477.857 464.342 477.078 465.046C476.314 465.735 475.401 466.311 474.338 466.775C473.29 467.225 472.107 467.449 470.789 467.449C469.142 467.449 467.697 467.127 466.454 466.483C465.226 465.84 464.268 464.979 463.579 463.9C462.905 462.807 462.568 461.587 462.568 460.239C462.568 458.937 462.823 457.791 463.332 456.803C463.841 455.799 464.575 454.968 465.533 454.31C466.492 453.636 467.645 453.127 468.992 452.782C470.34 452.438 471.845 452.266 473.507 452.266H478.336ZM492.464 447.886V467H488.309V442.697H492.239L492.464 447.886ZM491.476 453.928L489.746 453.86C489.761 452.198 490.008 450.663 490.487 449.256C490.966 447.833 491.64 446.598 492.509 445.55C493.377 444.502 494.41 443.693 495.608 443.124C496.821 442.54 498.161 442.248 499.629 442.248C500.827 442.248 501.905 442.413 502.863 442.742C503.822 443.057 504.638 443.566 505.312 444.27C506 444.973 506.524 445.887 506.884 447.01C507.243 448.118 507.423 449.473 507.423 451.075V467H503.245V451.03C503.245 449.757 503.058 448.739 502.684 447.976C502.309 447.197 501.763 446.635 501.044 446.291C500.325 445.932 499.442 445.752 498.394 445.752C497.36 445.752 496.417 445.969 495.563 446.403C494.725 446.838 493.999 447.437 493.385 448.2C492.786 448.964 492.314 449.84 491.97 450.828C491.64 451.801 491.476 452.835 491.476 453.928ZM529.053 462.283V432.5H533.23V467H529.412L529.053 462.283ZM512.701 455.118V454.646C512.701 452.79 512.926 451.105 513.375 449.593C513.839 448.065 514.491 446.755 515.329 445.662C516.183 444.569 517.193 443.73 518.361 443.146C519.544 442.548 520.862 442.248 522.314 442.248C523.842 442.248 525.174 442.518 526.312 443.057C527.465 443.581 528.439 444.352 529.232 445.37C530.041 446.373 530.677 447.586 531.142 449.009C531.606 450.431 531.928 452.041 532.107 453.838V455.904C531.943 457.686 531.621 459.288 531.142 460.711C530.677 462.133 530.041 463.346 529.232 464.35C528.439 465.353 527.465 466.124 526.312 466.663C525.16 467.187 523.812 467.449 522.27 467.449C520.847 467.449 519.544 467.142 518.361 466.528C517.193 465.914 516.183 465.053 515.329 463.945C514.491 462.837 513.839 461.535 513.375 460.037C512.926 458.525 512.701 456.885 512.701 455.118ZM516.879 454.646V455.118C516.879 456.331 516.999 457.469 517.238 458.532C517.493 459.595 517.882 460.531 518.406 461.34C518.93 462.148 519.597 462.785 520.405 463.249C521.214 463.698 522.18 463.923 523.303 463.923C524.68 463.923 525.811 463.631 526.694 463.047C527.593 462.463 528.312 461.692 528.851 460.733C529.39 459.775 529.809 458.734 530.108 457.611V452.198C529.929 451.375 529.667 450.581 529.322 449.817C528.993 449.039 528.559 448.35 528.02 447.751C527.495 447.137 526.844 446.65 526.065 446.291C525.302 445.932 524.396 445.752 523.348 445.752C522.21 445.752 521.229 445.992 520.405 446.471C519.597 446.935 518.93 447.579 518.406 448.402C517.882 449.211 517.493 450.154 517.238 451.232C516.999 452.296 516.879 453.434 516.879 454.646ZM557.309 467H553.153V440.137C553.153 438.385 553.468 436.91 554.097 435.712C554.741 434.499 555.661 433.586 556.859 432.972C558.057 432.343 559.48 432.028 561.127 432.028C561.606 432.028 562.085 432.058 562.564 432.118C563.059 432.178 563.538 432.268 564.002 432.388L563.777 435.779C563.463 435.704 563.104 435.652 562.699 435.622C562.31 435.592 561.921 435.577 561.531 435.577C560.648 435.577 559.884 435.757 559.24 436.116C558.611 436.461 558.132 436.97 557.803 437.644C557.473 438.317 557.309 439.148 557.309 440.137V467ZM562.475 442.697V445.887H549.312V442.697H562.475ZM581.971 461.385V442.697H586.148V467H582.173L581.971 461.385ZM582.757 456.264L584.486 456.219C584.486 457.836 584.314 459.333 583.97 460.711C583.64 462.074 583.101 463.257 582.353 464.26C581.604 465.263 580.623 466.049 579.41 466.618C578.197 467.172 576.722 467.449 574.985 467.449C573.802 467.449 572.717 467.277 571.729 466.933C570.755 466.588 569.917 466.057 569.213 465.338C568.509 464.619 567.963 463.683 567.573 462.53C567.199 461.377 567.012 459.992 567.012 458.375V442.697H571.167V458.42C571.167 459.513 571.287 460.419 571.526 461.138C571.781 461.841 572.118 462.403 572.537 462.822C572.971 463.227 573.451 463.511 573.975 463.676C574.514 463.84 575.068 463.923 575.637 463.923C577.404 463.923 578.804 463.586 579.837 462.912C580.87 462.223 581.611 461.302 582.061 460.149C582.525 458.981 582.757 457.686 582.757 456.264ZM596.997 432.5V467H592.819V432.5H596.997ZM608.183 432.5V467H604.005V432.5H608.183ZM623.501 451.39V454.804H612.54V451.39H623.501ZM641.717 460.554C641.717 459.955 641.582 459.401 641.312 458.892C641.058 458.368 640.526 457.896 639.718 457.477C638.924 457.042 637.726 456.668 636.124 456.354C634.776 456.069 633.556 455.732 632.463 455.343C631.385 454.953 630.464 454.482 629.7 453.928C628.951 453.374 628.375 452.722 627.971 451.974C627.566 451.225 627.364 450.349 627.364 449.346C627.364 448.387 627.574 447.481 627.993 446.628C628.427 445.774 629.034 445.018 629.812 444.359C630.606 443.701 631.557 443.184 632.665 442.81C633.773 442.435 635.008 442.248 636.371 442.248C638.318 442.248 639.98 442.592 641.357 443.281C642.735 443.97 643.791 444.891 644.524 446.044C645.258 447.182 645.625 448.447 645.625 449.84H641.47C641.47 449.166 641.268 448.515 640.863 447.886C640.474 447.242 639.897 446.71 639.134 446.291C638.385 445.872 637.464 445.662 636.371 445.662C635.218 445.662 634.282 445.842 633.563 446.201C632.86 446.546 632.343 446.987 632.014 447.526C631.699 448.065 631.542 448.634 631.542 449.233C631.542 449.683 631.617 450.087 631.767 450.446C631.931 450.791 632.216 451.113 632.62 451.412C633.024 451.697 633.593 451.966 634.327 452.221C635.061 452.475 635.997 452.73 637.135 452.984C639.126 453.434 640.766 453.973 642.054 454.602C643.341 455.23 644.3 456.002 644.929 456.915C645.558 457.828 645.872 458.937 645.872 460.239C645.872 461.302 645.647 462.276 645.198 463.159C644.764 464.043 644.128 464.806 643.289 465.45C642.465 466.079 641.477 466.573 640.324 466.933C639.186 467.277 637.906 467.449 636.483 467.449C634.342 467.449 632.53 467.067 631.048 466.304C629.565 465.54 628.442 464.552 627.679 463.339C626.915 462.126 626.533 460.846 626.533 459.498H630.711C630.771 460.636 631.1 461.542 631.699 462.216C632.298 462.875 633.032 463.346 633.9 463.631C634.769 463.9 635.63 464.035 636.483 464.035C637.621 464.035 638.572 463.885 639.336 463.586C640.115 463.286 640.706 462.875 641.11 462.351C641.515 461.826 641.717 461.228 641.717 460.554ZM661.505 442.697V445.887H648.365V442.697H661.505ZM652.812 436.79H656.968V460.98C656.968 461.804 657.095 462.425 657.35 462.845C657.604 463.264 657.934 463.541 658.338 463.676C658.742 463.811 659.176 463.878 659.641 463.878C659.985 463.878 660.344 463.848 660.719 463.788C661.108 463.713 661.4 463.653 661.595 463.608L661.617 467C661.288 467.105 660.854 467.202 660.314 467.292C659.79 467.397 659.154 467.449 658.405 467.449C657.387 467.449 656.451 467.247 655.598 466.843C654.744 466.438 654.063 465.765 653.554 464.821C653.06 463.863 652.812 462.575 652.812 460.958V436.79ZM680.709 462.845V450.334C680.709 449.376 680.514 448.545 680.125 447.841C679.751 447.122 679.182 446.568 678.418 446.179C677.654 445.789 676.711 445.595 675.588 445.595C674.54 445.595 673.619 445.774 672.825 446.134C672.047 446.493 671.433 446.965 670.983 447.549C670.549 448.133 670.332 448.762 670.332 449.436H666.177C666.177 448.567 666.401 447.706 666.851 446.853C667.3 445.999 667.944 445.228 668.782 444.539C669.636 443.835 670.654 443.281 671.837 442.877C673.035 442.458 674.368 442.248 675.835 442.248C677.602 442.248 679.159 442.548 680.507 443.146C681.869 443.745 682.933 444.651 683.696 445.864C684.475 447.062 684.864 448.567 684.864 450.379V461.699C684.864 462.508 684.932 463.369 685.066 464.282C685.216 465.196 685.433 465.982 685.718 466.641V467H681.383C681.173 466.521 681.008 465.884 680.889 465.091C680.769 464.282 680.709 463.534 680.709 462.845ZM681.428 452.266L681.473 455.186H677.272C676.09 455.186 675.034 455.283 674.105 455.478C673.177 455.657 672.398 455.934 671.77 456.309C671.141 456.683 670.661 457.155 670.332 457.724C670.003 458.278 669.838 458.929 669.838 459.678C669.838 460.441 670.01 461.138 670.354 461.767C670.699 462.396 671.215 462.897 671.904 463.271C672.608 463.631 673.469 463.811 674.487 463.811C675.76 463.811 676.883 463.541 677.856 463.002C678.83 462.463 679.601 461.804 680.17 461.025C680.754 460.247 681.068 459.491 681.113 458.757L682.888 460.756C682.783 461.385 682.498 462.081 682.034 462.845C681.57 463.608 680.949 464.342 680.17 465.046C679.406 465.735 678.493 466.311 677.43 466.775C676.382 467.225 675.199 467.449 673.881 467.449C672.234 467.449 670.789 467.127 669.546 466.483C668.318 465.84 667.36 464.979 666.671 463.9C665.997 462.807 665.66 461.587 665.66 460.239C665.66 458.937 665.915 457.791 666.424 456.803C666.933 455.799 667.667 454.968 668.625 454.31C669.583 453.636 670.736 453.127 672.084 452.782C673.432 452.438 674.937 452.266 676.599 452.266H681.428ZM701.126 464.035C702.114 464.035 703.028 463.833 703.866 463.429C704.705 463.024 705.394 462.47 705.933 461.767C706.472 461.048 706.779 460.232 706.854 459.318H710.807C710.732 460.756 710.245 462.096 709.347 463.339C708.463 464.567 707.303 465.562 705.865 466.326C704.428 467.075 702.848 467.449 701.126 467.449C699.299 467.449 697.704 467.127 696.342 466.483C694.994 465.84 693.871 464.956 692.973 463.833C692.089 462.71 691.423 461.422 690.974 459.97C690.539 458.502 690.322 456.952 690.322 455.32V454.377C690.322 452.745 690.539 451.202 690.974 449.75C691.423 448.283 692.089 446.987 692.973 445.864C693.871 444.741 694.994 443.858 696.342 443.214C697.704 442.57 699.299 442.248 701.126 442.248C703.028 442.248 704.69 442.637 706.112 443.416C707.535 444.18 708.65 445.228 709.459 446.561C710.283 447.878 710.732 449.376 710.807 451.053H706.854C706.779 450.049 706.494 449.144 706 448.335C705.521 447.526 704.862 446.882 704.023 446.403C703.2 445.909 702.234 445.662 701.126 445.662C699.853 445.662 698.783 445.917 697.914 446.426C697.061 446.92 696.379 447.594 695.87 448.447C695.376 449.286 695.017 450.222 694.792 451.255C694.582 452.273 694.478 453.314 694.478 454.377V455.32C694.478 456.383 694.582 457.432 694.792 458.465C695.002 459.498 695.354 460.434 695.848 461.272C696.357 462.111 697.038 462.785 697.892 463.294C698.76 463.788 699.838 464.035 701.126 464.035ZM719.656 432.5V467H715.479V432.5H719.656ZM734.503 442.697L723.901 454.04L717.972 460.194L717.635 455.77L721.88 450.693L729.427 442.697H734.503ZM730.707 467L722.037 455.41L724.193 451.704L735.604 467H730.707ZM385.527 516.845V504.334C385.527 503.376 385.333 502.545 384.943 501.841C384.569 501.122 384 500.568 383.236 500.179C382.473 499.789 381.529 499.595 380.406 499.595C379.358 499.595 378.437 499.774 377.644 500.134C376.865 500.493 376.251 500.965 375.802 501.549C375.368 502.133 375.15 502.762 375.15 503.436H370.995C370.995 502.567 371.22 501.706 371.669 500.853C372.118 499.999 372.762 499.228 373.601 498.539C374.454 497.835 375.472 497.281 376.655 496.877C377.853 496.458 379.186 496.248 380.653 496.248C382.42 496.248 383.978 496.548 385.325 497.146C386.688 497.745 387.751 498.651 388.515 499.864C389.293 501.062 389.683 502.567 389.683 504.379V515.699C389.683 516.508 389.75 517.369 389.885 518.282C390.035 519.196 390.252 519.982 390.536 520.641V521H386.201C385.992 520.521 385.827 519.884 385.707 519.091C385.587 518.282 385.527 517.534 385.527 516.845ZM386.246 506.266L386.291 509.186H382.091C380.908 509.186 379.852 509.283 378.924 509.478C377.995 509.657 377.217 509.934 376.588 510.309C375.959 510.683 375.48 511.155 375.15 511.724C374.821 512.278 374.656 512.929 374.656 513.678C374.656 514.441 374.828 515.138 375.173 515.767C375.517 516.396 376.034 516.897 376.723 517.271C377.426 517.631 378.287 517.811 379.306 517.811C380.578 517.811 381.701 517.541 382.675 517.002C383.648 516.463 384.419 515.804 384.988 515.025C385.572 514.247 385.887 513.491 385.932 512.757L387.706 514.756C387.601 515.385 387.317 516.081 386.853 516.845C386.388 517.608 385.767 518.342 384.988 519.046C384.225 519.735 383.311 520.311 382.248 520.775C381.2 521.225 380.017 521.449 378.699 521.449C377.052 521.449 375.607 521.127 374.364 520.483C373.136 519.84 372.178 518.979 371.489 517.9C370.815 516.807 370.479 515.587 370.479 514.239C370.479 512.937 370.733 511.791 371.242 510.803C371.751 509.799 372.485 508.968 373.443 508.31C374.402 507.636 375.555 507.127 376.902 506.782C378.25 506.438 379.755 506.266 381.417 506.266H386.246ZM400.374 501.369V530.344H396.196V496.697H400.015L400.374 501.369ZM416.748 508.646V509.118C416.748 510.885 416.538 512.525 416.119 514.037C415.7 515.535 415.086 516.837 414.277 517.945C413.484 519.053 412.503 519.914 411.335 520.528C410.167 521.142 408.827 521.449 407.314 521.449C405.772 521.449 404.41 521.195 403.227 520.686C402.044 520.176 401.04 519.435 400.217 518.462C399.393 517.489 398.734 516.321 398.24 514.958C397.761 513.595 397.432 512.061 397.252 510.354V507.838C397.432 506.041 397.769 504.431 398.263 503.009C398.757 501.586 399.408 500.373 400.217 499.37C401.04 498.352 402.036 497.581 403.204 497.057C404.372 496.518 405.72 496.248 407.247 496.248C408.774 496.248 410.13 496.548 411.312 497.146C412.495 497.73 413.491 498.569 414.3 499.662C415.108 500.755 415.715 502.065 416.119 503.593C416.538 505.105 416.748 506.79 416.748 508.646ZM412.57 509.118V508.646C412.57 507.434 412.443 506.296 412.188 505.232C411.934 504.154 411.537 503.211 410.998 502.402C410.474 501.579 409.8 500.935 408.977 500.471C408.153 499.992 407.172 499.752 406.034 499.752C404.986 499.752 404.073 499.932 403.294 500.291C402.53 500.65 401.879 501.137 401.34 501.751C400.801 502.35 400.359 503.039 400.015 503.817C399.685 504.581 399.438 505.375 399.273 506.198V512.016C399.573 513.064 399.992 514.052 400.531 514.98C401.07 515.894 401.789 516.635 402.688 517.204C403.586 517.758 404.716 518.035 406.079 518.035C407.202 518.035 408.168 517.803 408.977 517.339C409.8 516.86 410.474 516.208 410.998 515.385C411.537 514.561 411.934 513.618 412.188 512.555C412.443 511.477 412.57 510.331 412.57 509.118ZM426.204 501.369V530.344H422.026V496.697H425.845L426.204 501.369ZM442.578 508.646V509.118C442.578 510.885 442.368 512.525 441.949 514.037C441.53 515.535 440.916 516.837 440.107 517.945C439.314 519.053 438.333 519.914 437.165 520.528C435.997 521.142 434.657 521.449 433.145 521.449C431.602 521.449 430.24 521.195 429.057 520.686C427.874 520.176 426.87 519.435 426.047 518.462C425.223 517.489 424.564 516.321 424.07 514.958C423.591 513.595 423.262 512.061 423.082 510.354V507.838C423.262 506.041 423.599 504.431 424.093 503.009C424.587 501.586 425.238 500.373 426.047 499.37C426.87 498.352 427.866 497.581 429.034 497.057C430.202 496.518 431.55 496.248 433.077 496.248C434.604 496.248 435.96 496.548 437.143 497.146C438.326 497.73 439.321 498.569 440.13 499.662C440.938 500.755 441.545 502.065 441.949 503.593C442.368 505.105 442.578 506.79 442.578 508.646ZM438.4 509.118V508.646C438.4 507.434 438.273 506.296 438.019 505.232C437.764 504.154 437.367 503.211 436.828 502.402C436.304 501.579 435.63 500.935 434.807 500.471C433.983 499.992 433.002 499.752 431.864 499.752C430.816 499.752 429.903 499.932 429.124 500.291C428.36 500.65 427.709 501.137 427.17 501.751C426.631 502.35 426.189 503.039 425.845 503.817C425.515 504.581 425.268 505.375 425.104 506.198V512.016C425.403 513.064 425.822 514.052 426.361 514.98C426.9 515.894 427.619 516.635 428.518 517.204C429.416 517.758 430.547 518.035 431.909 518.035C433.032 518.035 433.998 517.803 434.807 517.339C435.63 516.86 436.304 516.208 436.828 515.385C437.367 514.561 437.764 513.618 438.019 512.555C438.273 511.477 438.4 510.331 438.4 509.118ZM452.394 486.5V521H448.216V486.5H452.394ZM463.579 496.697V521H459.401V496.697H463.579ZM459.087 490.251C459.087 489.577 459.289 489.008 459.693 488.544C460.113 488.08 460.727 487.848 461.535 487.848C462.329 487.848 462.935 488.08 463.354 488.544C463.789 489.008 464.006 489.577 464.006 490.251C464.006 490.895 463.789 491.449 463.354 491.913C462.935 492.362 462.329 492.587 461.535 492.587C460.727 492.587 460.113 492.362 459.693 491.913C459.289 491.449 459.087 490.895 459.087 490.251ZM479.976 518.035C480.964 518.035 481.877 517.833 482.716 517.429C483.554 517.024 484.243 516.47 484.782 515.767C485.321 515.048 485.628 514.232 485.703 513.318H489.656C489.581 514.756 489.095 516.096 488.196 517.339C487.313 518.567 486.152 519.562 484.715 520.326C483.277 521.075 481.698 521.449 479.976 521.449C478.149 521.449 476.554 521.127 475.191 520.483C473.844 519.84 472.721 518.956 471.822 517.833C470.939 516.71 470.272 515.422 469.823 513.97C469.389 512.502 469.172 510.952 469.172 509.32V508.377C469.172 506.745 469.389 505.202 469.823 503.75C470.272 502.283 470.939 500.987 471.822 499.864C472.721 498.741 473.844 497.858 475.191 497.214C476.554 496.57 478.149 496.248 479.976 496.248C481.877 496.248 483.539 496.637 484.962 497.416C486.384 498.18 487.5 499.228 488.309 500.561C489.132 501.878 489.581 503.376 489.656 505.053H485.703C485.628 504.049 485.344 503.144 484.85 502.335C484.37 501.526 483.712 500.882 482.873 500.403C482.049 499.909 481.084 499.662 479.976 499.662C478.703 499.662 477.632 499.917 476.764 500.426C475.91 500.92 475.229 501.594 474.72 502.447C474.226 503.286 473.866 504.222 473.642 505.255C473.432 506.273 473.327 507.314 473.327 508.377V509.32C473.327 510.383 473.432 511.432 473.642 512.465C473.851 513.498 474.203 514.434 474.697 515.272C475.206 516.111 475.888 516.785 476.741 517.294C477.61 517.788 478.688 518.035 479.976 518.035ZM508.658 516.845V504.334C508.658 503.376 508.464 502.545 508.074 501.841C507.7 501.122 507.131 500.568 506.367 500.179C505.604 499.789 504.66 499.595 503.537 499.595C502.489 499.595 501.568 499.774 500.774 500.134C499.996 500.493 499.382 500.965 498.933 501.549C498.498 502.133 498.281 502.762 498.281 503.436H494.126C494.126 502.567 494.351 501.706 494.8 500.853C495.249 499.999 495.893 499.228 496.731 498.539C497.585 497.835 498.603 497.281 499.786 496.877C500.984 496.458 502.317 496.248 503.784 496.248C505.551 496.248 507.108 496.548 508.456 497.146C509.819 497.745 510.882 498.651 511.646 499.864C512.424 501.062 512.813 502.567 512.813 504.379V515.699C512.813 516.508 512.881 517.369 513.016 518.282C513.165 519.196 513.382 519.982 513.667 520.641V521H509.332C509.122 520.521 508.958 519.884 508.838 519.091C508.718 518.282 508.658 517.534 508.658 516.845ZM509.377 506.266L509.422 509.186H505.222C504.039 509.186 502.983 509.283 502.055 509.478C501.126 509.657 500.348 509.934 499.719 510.309C499.09 510.683 498.611 511.155 498.281 511.724C497.952 512.278 497.787 512.929 497.787 513.678C497.787 514.441 497.959 515.138 498.304 515.767C498.648 516.396 499.165 516.897 499.854 517.271C500.557 517.631 501.418 517.811 502.437 517.811C503.709 517.811 504.832 517.541 505.806 517.002C506.779 516.463 507.55 515.804 508.119 515.025C508.703 514.247 509.018 513.491 509.062 512.757L510.837 514.756C510.732 515.385 510.448 516.081 509.983 516.845C509.519 517.608 508.898 518.342 508.119 519.046C507.355 519.735 506.442 520.311 505.379 520.775C504.331 521.225 503.148 521.449 501.83 521.449C500.183 521.449 498.738 521.127 497.495 520.483C496.267 519.84 495.309 518.979 494.62 517.9C493.946 516.807 493.609 515.587 493.609 514.239C493.609 512.937 493.864 511.791 494.373 510.803C494.882 509.799 495.616 508.968 496.574 508.31C497.533 507.636 498.686 507.127 500.033 506.782C501.381 506.438 502.886 506.266 504.548 506.266H509.377ZM529.524 496.697V499.887H516.385V496.697H529.524ZM520.832 490.79H524.987V514.98C524.987 515.804 525.115 516.425 525.369 516.845C525.624 517.264 525.953 517.541 526.357 517.676C526.762 517.811 527.196 517.878 527.66 517.878C528.005 517.878 528.364 517.848 528.738 517.788C529.128 517.713 529.42 517.653 529.614 517.608L529.637 521C529.307 521.105 528.873 521.202 528.334 521.292C527.81 521.397 527.174 521.449 526.425 521.449C525.407 521.449 524.471 521.247 523.617 520.843C522.764 520.438 522.082 519.765 521.573 518.821C521.079 517.863 520.832 516.575 520.832 514.958V490.79ZM538.913 496.697V521H534.735V496.697H538.913ZM534.421 490.251C534.421 489.577 534.623 489.008 535.027 488.544C535.447 488.08 536.061 487.848 536.869 487.848C537.663 487.848 538.269 488.08 538.688 488.544C539.123 489.008 539.34 489.577 539.34 490.251C539.34 490.895 539.123 491.449 538.688 491.913C538.269 492.362 537.663 492.587 536.869 492.587C536.061 492.587 535.447 492.362 535.027 491.913C534.623 491.449 534.421 490.895 534.421 490.251ZM544.483 509.118V508.602C544.483 506.85 544.738 505.225 545.247 503.728C545.756 502.215 546.49 500.905 547.448 499.797C548.407 498.674 549.567 497.805 550.93 497.191C552.292 496.562 553.82 496.248 555.512 496.248C557.219 496.248 558.754 496.562 560.116 497.191C561.494 497.805 562.662 498.674 563.62 499.797C564.593 500.905 565.335 502.215 565.844 503.728C566.353 505.225 566.607 506.85 566.607 508.602V509.118C566.607 510.87 566.353 512.495 565.844 513.992C565.335 515.49 564.593 516.8 563.62 517.923C562.662 519.031 561.501 519.899 560.139 520.528C558.791 521.142 557.264 521.449 555.557 521.449C553.85 521.449 552.315 521.142 550.952 520.528C549.59 519.899 548.422 519.031 547.448 517.923C546.49 516.8 545.756 515.49 545.247 513.992C544.738 512.495 544.483 510.87 544.483 509.118ZM548.639 508.602V509.118C548.639 510.331 548.781 511.477 549.065 512.555C549.35 513.618 549.777 514.561 550.346 515.385C550.93 516.208 551.656 516.86 552.524 517.339C553.393 517.803 554.404 518.035 555.557 518.035C556.695 518.035 557.69 517.803 558.544 517.339C559.412 516.86 560.131 516.208 560.7 515.385C561.269 514.561 561.696 513.618 561.98 512.555C562.28 511.477 562.43 510.331 562.43 509.118V508.602C562.43 507.404 562.28 506.273 561.98 505.21C561.696 504.132 561.262 503.181 560.678 502.357C560.109 501.519 559.39 500.86 558.521 500.381C557.668 499.902 556.665 499.662 555.512 499.662C554.374 499.662 553.37 499.902 552.502 500.381C551.648 500.86 550.93 501.519 550.346 502.357C549.777 503.181 549.35 504.132 549.065 505.21C548.781 506.273 548.639 507.404 548.639 508.602ZM575.974 501.886V521H571.818V496.697H575.749L575.974 501.886ZM574.985 507.928L573.256 507.86C573.271 506.198 573.518 504.663 573.997 503.256C574.476 501.833 575.15 500.598 576.019 499.55C576.887 498.502 577.92 497.693 579.118 497.124C580.331 496.54 581.671 496.248 583.139 496.248C584.337 496.248 585.415 496.413 586.373 496.742C587.331 497.057 588.147 497.566 588.821 498.27C589.51 498.973 590.034 499.887 590.394 501.01C590.753 502.118 590.933 503.473 590.933 505.075V521H586.755V505.03C586.755 503.757 586.568 502.739 586.193 501.976C585.819 501.197 585.272 500.635 584.554 500.291C583.835 499.932 582.951 499.752 581.903 499.752C580.87 499.752 579.927 499.969 579.073 500.403C578.235 500.838 577.508 501.437 576.895 502.2C576.296 502.964 575.824 503.84 575.479 504.828C575.15 505.801 574.985 506.835 574.985 507.928ZM611.395 514.554C611.395 513.955 611.26 513.401 610.99 512.892C610.736 512.368 610.204 511.896 609.396 511.477C608.602 511.042 607.404 510.668 605.802 510.354C604.454 510.069 603.234 509.732 602.141 509.343C601.062 508.953 600.142 508.482 599.378 507.928C598.629 507.374 598.053 506.722 597.648 505.974C597.244 505.225 597.042 504.349 597.042 503.346C597.042 502.387 597.252 501.481 597.671 500.628C598.105 499.774 598.712 499.018 599.49 498.359C600.284 497.701 601.235 497.184 602.343 496.81C603.451 496.435 604.686 496.248 606.049 496.248C607.995 496.248 609.658 496.592 611.035 497.281C612.413 497.97 613.468 498.891 614.202 500.044C614.936 501.182 615.303 502.447 615.303 503.84H611.147C611.147 503.166 610.945 502.515 610.541 501.886C610.152 501.242 609.575 500.71 608.812 500.291C608.063 499.872 607.142 499.662 606.049 499.662C604.896 499.662 603.96 499.842 603.241 500.201C602.537 500.546 602.021 500.987 601.691 501.526C601.377 502.065 601.22 502.634 601.22 503.233C601.22 503.683 601.295 504.087 601.444 504.446C601.609 504.791 601.894 505.113 602.298 505.412C602.702 505.697 603.271 505.966 604.005 506.221C604.739 506.475 605.674 506.73 606.812 506.984C608.804 507.434 610.444 507.973 611.731 508.602C613.019 509.23 613.978 510.002 614.606 510.915C615.235 511.828 615.55 512.937 615.55 514.239C615.55 515.302 615.325 516.276 614.876 517.159C614.442 518.043 613.805 518.806 612.967 519.45C612.143 520.079 611.155 520.573 610.002 520.933C608.864 521.277 607.584 521.449 606.161 521.449C604.02 521.449 602.208 521.067 600.726 520.304C599.243 519.54 598.12 518.552 597.356 517.339C596.593 516.126 596.211 514.846 596.211 513.498H600.389C600.449 514.636 600.778 515.542 601.377 516.216C601.976 516.875 602.71 517.346 603.578 517.631C604.447 517.9 605.308 518.035 606.161 518.035C607.299 518.035 608.25 517.885 609.014 517.586C609.792 517.286 610.384 516.875 610.788 516.351C611.192 515.826 611.395 515.228 611.395 514.554ZM621.075 518.799C621.075 518.095 621.292 517.504 621.727 517.024C622.176 516.53 622.82 516.283 623.658 516.283C624.497 516.283 625.133 516.53 625.567 517.024C626.017 517.504 626.241 518.095 626.241 518.799C626.241 519.488 626.017 520.072 625.567 520.551C625.133 521.03 624.497 521.27 623.658 521.27C622.82 521.27 622.176 521.03 621.727 520.551C621.292 520.072 621.075 519.488 621.075 518.799Z" fill="black"/>
</svg>
