<svg width="1129" height="1070" viewBox="0 0 1129 1070" fill="none" xmlns="http://www.w3.org/2000/svg">
<path d="M420.318 165.019C445.709 150.437 480.027 134.977 510.286 137.218C540.218 139.435 556.599 153.964 565.043 168.938C573.753 154.577 590.008 141.042 618.812 138.908C649.071 136.667 683.389 152.128 708.78 166.709C721.765 174.165 732.987 181.734 740.959 187.433C744.951 190.286 748.143 192.683 750.351 194.376C751.454 195.222 752.313 195.894 752.904 196.36C753.198 196.593 753.428 196.776 753.586 196.902C753.665 196.965 753.727 197.015 753.771 197.05C753.792 197.067 753.811 197.082 753.823 197.093C753.829 197.098 753.835 197.103 753.839 197.106C753.841 197.108 753.844 197.109 753.845 197.11L752.623 198.619C752.624 198.619 752.626 198.62 752.627 198.62L753.849 197.113C754.822 197.902 755.607 198.838 756.2 199.861C760.587 201.503 765.046 203.61 769.565 206.229C785.685 215.572 795.961 227.268 801.952 239.839C807.896 252.31 809.348 265.06 808.787 276.238C808.227 287.392 805.653 297.248 803.266 304.255C802.504 306.49 801.753 308.459 801.079 310.114C801.932 310.238 802.791 310.37 803.654 310.511C829.274 314.675 847.985 324.73 861.273 338.214C874.48 351.616 881.748 367.811 885.568 383.407C891.989 409.629 888.934 435.288 886.993 446.568C899.849 458.521 932.25 496.168 912.571 557.439C909.223 567.865 904.852 576.845 899.811 584.577C902.578 587.427 905.735 591.331 908.724 596.501C916.076 609.219 922.023 628.931 919.513 658.234C915.424 705.967 879.103 732.313 863.617 741.493C866.349 755.813 868.563 786.863 848.227 822.353C825.866 861.374 792.435 871.81 779.446 874.468C749.027 927.106 693.543 941.15 646.09 929.447C611.071 920.811 578.971 897.71 564.161 864.615C549.027 896.806 517.428 919.268 483.008 927.757C435.555 939.459 380.071 925.416 349.653 872.777C336.663 870.12 303.232 859.684 280.871 820.662C260.535 785.172 262.749 754.122 265.481 739.803C249.995 730.623 213.673 704.276 209.584 656.544C207.074 627.241 213.022 607.529 220.374 594.811C223.363 589.64 226.52 585.737 229.287 582.887C224.246 575.155 219.874 566.175 216.526 555.749C196.848 494.478 229.248 456.831 242.104 444.878C240.163 433.598 237.109 407.939 243.53 381.717C247.35 366.121 254.618 349.926 267.825 336.523C281.114 323.039 299.824 312.985 325.444 308.82C326.307 308.68 327.166 308.547 328.019 308.424C327.345 306.769 326.594 304.8 325.832 302.564C323.445 295.558 320.871 285.702 320.311 274.548C319.75 263.37 321.201 250.62 327.145 238.148C333.136 225.578 343.413 213.881 359.533 204.538C364.052 201.919 368.511 199.813 372.898 198.171C373.491 197.148 374.276 196.212 375.249 195.423L376.471 196.93C376.472 196.929 376.474 196.929 376.475 196.929L375.253 195.42C375.254 195.419 375.257 195.417 375.259 195.416C375.263 195.413 375.268 195.407 375.275 195.402C375.288 195.392 375.306 195.377 375.327 195.359C375.371 195.324 375.433 195.275 375.512 195.212C375.67 195.085 375.899 194.903 376.195 194.67C376.785 194.204 377.644 193.532 378.747 192.686C380.955 190.993 384.146 188.596 388.138 185.742C396.11 180.043 407.333 172.475 420.318 165.019ZM698.821 184.052C673.712 169.633 644.029 157.096 620.289 158.855C596.889 160.588 586.325 171.454 581.099 181.132C578.345 186.232 576.937 191.304 576.228 195.137C575.877 197.036 575.706 198.582 575.624 199.606C575.583 200.116 575.565 200.493 575.557 200.714C575.553 200.824 575.551 200.896 575.55 200.925V373H617V338.919C605.874 334.532 598 323.685 598 311C598 294.432 611.432 281 628 281C644.569 281 658 294.431 658 311C658 324.433 649.171 335.802 637 339.625V393H575.55V546H671.354L762.861 444.372C759.788 439.664 758 434.041 758 428C758 411.432 771.432 398 788 398C804.569 398 818 411.431 818 428C818 444.569 804.569 458 788 458C784.79 458 781.699 457.493 778.799 456.56L726.39 514.767L755.094 539.413C759.251 537.234 763.981 536 769 536C785.569 536 799 549.431 799 566C799 582.569 785.569 596 769 596C752.432 596 739 582.568 739 566C739 561.761 739.881 557.729 741.467 554.073L713.003 529.633L680.357 565.891L680 565.569V566H575.55V645H748V645.048L748.072 645L775.986 687.084C778.537 686.378 781.224 686 784 686C800.569 686 814 699.431 814 716C814 732.569 800.569 746 784 746C767.432 746 754 732.568 754 716C754 709.492 756.074 703.47 759.594 698.554L737.339 665H667.358L737.795 771.199L721.128 782.253L721.117 782.235L688.822 803.65C689.589 806.301 690 809.102 690 812C690 828.569 676.569 842 660 842C643.432 842 630 828.568 630 812C630 795.432 643.432 782 660 782C666.381 782 672.295 783.993 677.157 787.389L710.063 765.568L643.359 665H575.55V756.493C575.55 756.494 575.551 756.496 575.551 756.497L575.55 756.499V823.881C575.55 866.867 609.107 899.727 650.879 910.029C691.897 920.145 738.164 907.703 763.144 862.673L763.73 861.604L763.907 861.287C765.721 858.162 768.845 856.002 772.4 855.401L772.758 855.347C777.921 854.633 810.011 848.815 830.873 812.408C850.664 777.87 845.086 748.925 843.131 741.474L842.953 740.82L842.825 740.316C841.603 735.086 843.925 729.343 849.107 726.686C857.674 722.291 895.852 700.116 899.586 656.526C901.787 630.83 896.485 615.291 891.409 606.51C889.937 603.963 888.451 601.925 887.107 600.33C876.32 611.215 864.181 618.388 852.867 623.062C841.857 627.609 831.636 629.803 824.162 630.867C820.415 631.401 817.323 631.655 815.126 631.775C814.027 631.836 813.148 631.864 812.519 631.875C812.205 631.881 811.951 631.883 811.765 631.883C811.672 631.883 811.595 631.882 811.535 631.882C811.506 631.882 811.479 631.882 811.458 631.882C811.448 631.882 811.437 631.881 811.429 631.881C811.425 631.881 811.419 631.881 811.417 631.881C811.412 631.87 811.411 631.552 811.55 621.882L811.407 631.881C805.885 631.801 801.472 627.259 801.551 621.737C801.631 616.219 806.167 611.809 811.685 611.883L811.678 611.882H811.736C811.813 611.882 811.954 611.882 812.154 611.878C812.553 611.871 813.19 611.852 814.033 611.806C815.723 611.713 818.234 611.51 821.344 611.067C827.589 610.178 836.119 608.341 845.233 604.576C863.267 597.127 883.618 582.185 893.529 551.323C911.691 494.774 876.638 463.685 870.801 458.965C867.237 456.082 865.614 451.467 866.555 447.011C867.798 441.122 872.617 414.605 866.142 388.165C862.942 375.1 857.081 362.454 847.028 352.252C837.055 342.132 822.371 333.816 800.446 330.252C776.944 326.432 759.413 330.016 746.191 336.899C732.858 343.841 723.122 354.549 716.018 366.162C708.898 377.8 704.606 390.055 702.1 399.513C700.854 404.214 700.067 408.155 699.597 410.885C699.362 412.247 699.207 413.303 699.113 413.996C699.065 414.342 699.035 414.598 699.016 414.755C699.007 414.832 698.999 414.886 698.996 414.914C698.996 414.916 698.996 414.919 698.996 414.921C698.996 414.923 698.996 414.926 698.995 414.928C698.995 414.928 698.995 414.932 698.995 414.934L698.994 414.937C698.412 420.421 693.498 424.4 688.01 423.826C682.518 423.251 678.531 418.333 679.105 412.841L689.05 413.881L680.348 412.968C679.151 412.841 679.106 412.834 679.105 412.831C679.105 412.829 679.106 412.823 679.107 412.818C679.108 412.809 679.108 412.798 679.11 412.785C679.112 412.76 679.117 412.726 679.121 412.688C679.13 412.61 679.142 412.506 679.157 412.377C679.188 412.118 679.234 411.757 679.296 411.302C679.42 410.391 679.61 409.099 679.888 407.487C680.443 404.266 681.349 399.742 682.767 394.39C685.589 383.739 690.515 369.523 698.957 355.725C707.415 341.9 719.587 328.202 736.956 319.159C749.042 312.867 763.275 309.025 779.913 308.716C780.099 308.045 780.357 307.383 780.693 306.742V306.741C780.698 306.73 780.706 306.711 780.718 306.688C780.755 306.615 780.821 306.484 780.91 306.3C781.089 305.931 781.365 305.347 781.708 304.571C782.396 303.015 783.348 300.701 784.334 297.806C786.322 291.971 788.373 284.005 788.813 275.236C789.252 266.492 788.079 257.217 783.898 248.443C779.764 239.769 772.414 230.997 759.535 223.532C746.783 216.141 735.575 214.402 725.962 215.48C716.197 216.576 707.382 220.666 699.774 225.976C692.159 231.29 686.049 237.624 681.811 242.711C679.708 245.235 678.106 247.405 677.048 248.913C676.52 249.666 676.129 250.25 675.883 250.628C675.76 250.816 675.673 250.953 675.622 251.033C675.602 251.065 675.587 251.089 675.579 251.103C672.697 255.81 666.544 257.292 661.834 254.413C657.123 251.533 655.638 245.378 658.518 240.666L667.05 245.881C658.648 240.745 658.522 240.663 658.523 240.657C658.524 240.655 658.527 240.651 658.529 240.647L658.708 240.36C658.811 240.198 658.953 239.975 659.133 239.699C659.493 239.147 660.009 238.376 660.674 237.428C662.003 235.534 663.94 232.916 666.446 229.908C671.426 223.93 678.817 216.211 688.326 209.574C696.674 203.748 706.884 198.6 718.684 196.366C712.836 192.478 706.113 188.24 698.821 184.052ZM508.809 157.164C485.069 155.406 455.386 167.943 430.278 182.361C422.984 186.549 416.261 190.788 410.413 194.676C422.213 196.909 432.423 202.058 440.771 207.884C450.281 214.521 457.672 222.24 462.653 228.218C465.158 231.225 467.095 233.843 468.423 235.737C469.088 236.685 469.605 237.456 469.965 238.009C470.145 238.284 470.287 238.506 470.39 238.669L470.569 238.957C470.571 238.96 470.574 238.965 470.575 238.967C470.575 238.972 470.432 239.065 462.047 244.19L470.58 238.976C473.46 243.688 471.975 249.842 467.263 252.723C462.553 255.601 456.401 254.119 453.519 249.412L453.52 249.413C453.52 249.414 453.522 249.417 453.523 249.418C453.524 249.421 453.526 249.424 453.527 249.425C453.526 249.424 453.525 249.421 453.524 249.419C453.517 249.408 453.5 249.382 453.476 249.343C453.425 249.263 453.338 249.126 453.215 248.938C452.969 248.56 452.578 247.975 452.05 247.223C450.992 245.714 449.389 243.545 447.286 241.021C443.048 235.934 436.939 229.6 429.324 224.285C421.716 218.975 412.901 214.886 403.136 213.79C393.523 212.712 382.315 214.451 369.563 221.842C356.684 229.307 349.334 238.078 345.2 246.753C341.019 255.526 339.846 264.801 340.285 273.546C340.726 282.314 342.776 290.281 344.764 296.115C345.75 299.01 346.702 301.325 347.39 302.881C347.733 303.657 348.009 304.241 348.188 304.609C348.277 304.793 348.343 304.925 348.38 304.998C348.398 305.034 348.409 305.056 348.413 305.064V305.065C348.412 305.064 348.411 305.061 348.409 305.058C348.408 305.056 348.407 305.052 348.406 305.051L348.405 305.052C348.741 305.693 348.999 306.355 349.185 307.025C365.823 307.334 380.056 311.177 392.142 317.469C409.511 326.512 421.683 340.21 430.141 354.034C438.583 367.833 443.509 382.048 446.331 392.699C447.749 398.052 448.655 402.576 449.21 405.797C449.488 407.409 449.678 408.701 449.802 409.611C449.864 410.066 449.91 410.428 449.941 410.687C449.956 410.815 449.968 410.92 449.977 410.997C449.981 411.036 449.985 411.069 449.988 411.095C449.989 411.107 449.989 411.119 449.99 411.128C449.991 411.132 449.992 411.138 449.992 411.141C449.985 411.144 449.889 411.157 448.75 411.277L440.048 412.19L449.993 411.15C450.567 416.643 446.581 421.561 441.088 422.136C435.601 422.709 430.686 418.731 430.104 413.246L430.103 413.243C430.103 413.242 430.103 413.238 430.103 413.237L430.101 413.224C430.098 413.196 430.092 413.142 430.082 413.064C430.064 412.908 430.033 412.652 429.986 412.306C429.891 411.613 429.736 410.557 429.501 409.194C429.031 406.464 428.244 402.524 426.998 397.822C424.492 388.364 420.201 376.11 413.08 364.472C405.976 352.859 396.24 342.15 382.906 335.209C369.684 328.325 352.154 324.741 328.653 328.562C306.727 332.126 292.042 340.441 282.07 350.562C272.016 360.764 266.155 373.409 262.955 386.475C256.48 412.915 261.3 439.432 262.543 445.32C263.484 449.777 261.862 454.392 258.297 457.274C252.46 461.995 217.407 493.084 235.569 549.633C245.48 580.495 265.831 595.436 283.865 602.886C292.979 606.65 301.509 608.488 307.754 609.377C310.865 609.82 313.375 610.023 315.065 610.115C315.908 610.161 316.545 610.18 316.945 610.188C317.144 610.191 317.285 610.191 317.363 610.191H317.42L317.413 610.192C322.931 610.118 327.467 614.528 327.547 620.047C327.627 625.569 323.213 630.111 317.691 630.19L317.548 620.191C317.691 630.101 317.686 630.19 317.681 630.19C317.678 630.19 317.673 630.19 317.669 630.19C317.661 630.191 317.65 630.191 317.64 630.191C317.619 630.192 317.592 630.191 317.563 630.191C317.503 630.192 317.425 630.193 317.332 630.192C317.146 630.192 316.893 630.19 316.579 630.185C315.95 630.173 315.071 630.145 313.972 630.085C311.775 629.965 308.683 629.71 304.935 629.177C297.461 628.113 287.24 625.919 276.23 621.371C264.916 616.698 252.778 609.524 241.991 598.64C240.647 600.235 239.16 602.272 237.688 604.819C232.612 613.601 227.311 629.139 229.512 654.836C233.246 698.425 271.423 720.601 279.991 724.995C285.174 727.653 287.495 733.395 286.273 738.626L286.144 739.13L285.967 739.783C284.012 747.235 278.434 776.18 298.225 810.718C319.087 847.124 351.176 852.942 356.34 853.656L356.697 853.711C360.253 854.311 363.377 856.472 365.191 859.597L365.368 859.913L365.954 860.982C390.934 906.013 437.201 918.454 478.219 908.339C519.992 898.037 553.548 865.177 553.548 822.19V755.998C553.548 755.997 553.547 755.996 553.547 755.994C553.547 755.99 553.548 755.984 553.548 755.978C553.548 755.963 553.547 755.94 553.547 755.911C553.547 755.854 553.548 755.771 553.548 755.667C553.548 755.458 553.547 755.163 553.547 754.824L553.548 752.562V752.345C553.548 751.808 553.547 751.461 553.547 751.268V751.073L553.548 751.072V665H486.642L419.938 765.568L452.843 787.389C457.705 783.993 463.62 782 470 782C486.569 782 500 795.431 500 812C500 828.569 486.569 842 470 842C453.432 842 440 828.568 440 812C440 809.102 440.411 806.301 441.178 803.65L408.883 782.235L408.872 782.253L392.205 771.199L462.643 665H392.661L370.406 698.554C373.927 703.47 376 709.492 376 716C376 732.569 362.569 746 346 746C329.432 746 316 732.568 316 716C316 699.432 329.432 686 346 686C348.776 686 351.464 686.378 354.015 687.084L381.928 645L382 645.048V645H553.548V566H450V565.569L449.644 565.891L416.997 529.633L388.533 554.073C390.119 557.729 391 561.761 391 566C391 582.569 377.569 596 361 596C344.432 596 331 582.568 331 566C331 549.432 344.432 536 361 536C366.019 536 370.749 537.234 374.906 539.413L403.611 514.767L351.201 456.56C348.302 457.493 345.21 458 342 458C325.432 458 312 444.568 312 428C312 411.432 325.432 398 342 398C358.569 398 372 411.431 372 428C372 434.041 370.212 439.664 367.14 444.372L458.647 546H553.548V393H493V339.625C480.829 335.802 472 324.433 472 311C472 294.432 485.432 281 502 281C518.569 281 532 294.431 532 311C532 323.685 524.127 334.532 513 338.919V373H553.548V199.233C553.548 199.204 553.545 199.133 553.541 199.023C553.533 198.803 553.515 198.426 553.474 197.916C553.392 196.892 553.222 195.346 552.87 193.446C552.161 189.614 550.752 184.542 547.998 179.441C542.772 169.764 532.209 158.897 508.809 157.164ZM470 802C464.477 802 460 806.477 460 812C460 817.523 464.477 822 470 822C475.523 822 480 817.523 480 812C480 806.477 475.523 802 470 802ZM660 802C654.477 802 650 806.477 650 812C650 817.523 654.477 822 660 822C665.523 822 670 817.523 670 812C670 806.477 665.523 802 660 802ZM346 706C340.477 706 336 710.477 336 716C336 721.523 340.477 726 346 726C351.523 726 356 721.523 356 716C356 710.477 351.523 706 346 706ZM784 706C778.477 706 774 710.477 774 716C774 721.523 778.477 726 784 726C789.523 726 794 721.523 794 716C794 710.477 789.523 706 784 706ZM361 556C355.477 556 351 560.477 351 566C351 571.523 355.477 576 361 576C366.523 576 371 571.523 371 566C371 560.477 366.523 556 361 556ZM769 556C763.477 556 759 560.477 759 566C759 571.523 763.477 576 769 576C774.523 576 779 571.523 779 566C779 560.477 774.523 556 769 556ZM342 418C336.477 418 332 422.477 332 428C332 433.523 336.477 438 342 438C347.523 438 352 433.523 352 428C352 422.477 347.523 418 342 418ZM788 418C782.477 418 778 422.477 778 428C778 433.523 782.477 438 788 438C793.523 438 798 433.523 798 428C798 422.477 793.523 418 788 418ZM502 301C496.477 301 492 305.477 492 311C492 316.523 496.477 321 502 321C507.523 321 512 316.523 512 311C512 305.477 507.523 301 502 301ZM628 301C622.477 301 618 305.477 618 311C618 316.523 622.477 321 628 321C633.523 321 638 316.523 638 311C638 305.477 633.523 301 628 301Z" 
fill="black"
/>
</svg>
